<?xml version="1.0" encoding="UTF-8"?>
<svg width="60px" height="60px" viewBox="0 0 60 60" version="1.1" xmlns="http://www.w3.org/2000/svg" xmlns:xlink="http://www.w3.org/1999/xlink">
    <!-- Generator: Sketch 43.2 (39069) - http://www.bohemiancoding.com/sketch -->
    <title>RSS_White</title>
    <desc>Created with Sketch.</desc>
    <defs></defs>
    <g id="Page-1" stroke="none" stroke-width="1" fill="none" fill-rule="evenodd" opacity="0.5">
        <g id="Social_icons" transform="translate(-560.000000, -561.000000)" fill="#FFFFFF">
            <g id="White" transform="translate(60.000000, 560.000000)">
                <g id="RSS" transform="translate(500.000000, 1.000000)">
                    <path d="M0,30 C0,13.4314567 13.4314567,0 30,0 C46.5685433,0 60,13.4314567 60,30 C60,46.5685433 46.5685433,60 30,60 C13.4314567,60 0,46.5685433 0,30 Z M18.0003,38 C18.0003,40.209 19.7912808,42 22.0002571,42 C24.2092335,42 26.0002143,40.209 26.0002143,38 C26.0002143,35.791 24.2092335,34 22.0002571,34 C19.7912808,34 18.0003,35.791 18.0003,38 Z M46,42 C46,26.561 33.4391346,14 18.0003,14 L18.0003,19.333 C30.4991661,19.333 40.6670571,29.501 40.6670571,42 L46,42 Z M36.6668,42 C36.6668,31.707 28.2928897,23.333 18,23.333 L18,28.667 C25.3519212,28.667 31.3338571,34.648 31.3338571,42 L36.6668,42 Z" id="Combined-Shape"></path>
                </g>
            </g>
        </g>
    </g>
</svg>