<?xml version="1.0" encoding="UTF-8"?>
<svg width="61px" height="60px" viewBox="0 0 61 60" version="1.1" xmlns="http://www.w3.org/2000/svg" xmlns:xlink="http://www.w3.org/1999/xlink">
    <!-- Generator: Sketch 43.2 (39069) - http://www.bohemiancoding.com/sketch -->
    <title>Youtube_White</title>
    <desc>Created with Sketch.</desc>
    <defs></defs>
    <g id="Page-1" stroke="none" stroke-width="1" fill="none" fill-rule="evenodd" opacity="1">
        <g id="Social_icons" transform="translate(-160.000000, -721.000000)" fill="#9b9b9b">
            <g id="White" transform="translate(60.000000, 560.000000)">
                <g id="Youtube" transform="translate(100.000000, 161.000000)">
                    <path d="M0,30 C0,13.4314567 13.4508663,0 30.0433526,0 C46.6358389,0 60.0867052,13.4314567 60.0867052,30 C60.0867052,46.5685433 46.6358389,60 30.0433526,60 C13.4508663,60 0,46.5685433 0,30 Z M45.68,23.9613454 C45.68,23.9613454 45.367,21.7080464 44.408,20.7157773 C43.191,19.4128493 41.827,19.4067179 41.202,19.331097 C36.724,19 30.007,19 30.007,19 L29.993,19 C29.993,19 23.276,19 18.798,19.331097 C18.172,19.4067179 16.809,19.4128493 15.591,20.7157773 C14.632,21.7080464 14.32,23.9613454 14.32,23.9613454 C14.32,23.9613454 14,26.6080775 14,29.2537877 L14,31.7349713 C14,34.3817035 14.32,37.0274137 14.32,37.0274137 C14.32,37.0274137 14.632,39.2807127 15.591,40.2729817 C16.809,41.5759097 18.408,41.5350335 19.12,41.6709468 C21.68,41.9223353 30,42 30,42 C30,42 36.724,41.989781 41.202,41.658684 C41.827,41.5820411 43.191,41.5759097 44.408,40.2729817 C45.367,39.2807127 45.68,37.0274137 45.68,37.0274137 C45.68,37.0274137 46,34.3817035 46,31.7349713 L46,29.2537877 C46,26.6080775 45.68,23.9613454 45.68,23.9613454 Z" id="Combined-Shape"></path>
                    <polygon id="Path" points="26.696 34.7414138 26.695 25.5534723 35.341 30.1632825"></polygon>
                </g>
            </g>
        </g>
    </g>
</svg>
