<?xml version="1.0" standalone="no"?>
<!DOCTYPE svg PUBLIC "-//W3C//DTD SVG 1.1//EN" "http://www.w3.org/Graphics/SVG/1.1/DTD/svg11.dtd" >
<svg xmlns="http://www.w3.org/2000/svg">
<metadata>Generated by IcoMoon</metadata>
<defs>
<font id="icomoon" horiz-adv-x="1024">
<font-face units-per-em="1024" ascent="960" descent="-64" />
<missing-glyph horiz-adv-x="1024" />
<glyph unicode="&#x20;" d="" horiz-adv-x="512" />
<glyph unicode="&#x21;" d="M995.018 362.644c11.74 0 22.622 9.504 24.146 21.154 0 0 4.836 35.036 4.836 64.198 0 29.104-4.836 64.196-4.836 64.196-1.586 11.622-12.472 21.156-24.146 21.156h-87.492c-11.802 0-21.342 0-21.342 0 0-0.124-2.938 8.99-6.48 20.146l-33.018 79.728c-5.442 10.366-9.842 18.924-9.842 18.924s6.784 6.76 15.102 15.104l61.938 61.966c8.372 8.318 8.926 22.438 1.342 31.398l-90.612 90.55c-8.928 7.584-23.052 7.032-31.366-1.284l-61.996-61.966c-8.254-8.318-15.042-15.104-14.98-15.196 0 0 0 0 0.062-0.062-36.134 22.806-98.806 42.982-98.806 42.982-11.19 3.61-20.298 6.48-20.298 6.48s0.122 9.596 0.122 21.37v87.46c0 11.676-9.538 22.62-21.156 24.182 0 0-35.032 4.86-64.196 4.86s-64.14-4.86-64.14-4.86c-11.678-1.562-21.154-12.506-21.154-24.182v-87.466c0-11.77 0-21.368 0-21.368 0.060 0-9.048-2.874-20.178-6.48l-79.728-32.984c-10.456-5.442-18.954-9.842-18.954-9.842s-6.726 6.784-15.102 15.102l-61.938 61.968c-8.316 8.312-22.438 8.926-31.426 1.344l-90.612-90.61c-7.52-8.954-6.97-23.080 1.344-31.396l61.998-61.966c8.318-8.316 15.104-15.044 15.164-15.044 0 0 0 0 0 0.124-22.746-36.164-42.92-98.832-42.92-98.832-3.606-11.16-6.48-20.272-6.48-20.272s-9.598 0.126-21.338 0.126h-87.496c-11.74 0-22.562-9.538-24.214-21.156 0 0-4.828-35.096-4.828-64.198 0-29.164 4.828-64.198 4.828-64.198 1.592-11.65 12.472-21.154 24.214-21.154h87.492c11.742 0 21.338 0 21.338 0.062 0 0 2.872-9.048 6.48-20.206 0 0 20.176-62.668 42.92-98.834 0 0.062 0 0.062 0 0.062-0.062 0.062-6.848-6.666-15.164-14.98l-61.996-61.998c-8.314-8.316-9.23-22.746-2.138-32.038l27.452-32.648c7.888-8.684 14.428-15.958 14.61-16.082 0.122-0.12 7.398-6.722 16.082-14.58l32.588-27.48c9.294-7.096 23.726-6.18 32.102 2.136l61.938 62.028c8.374 8.284 15.1 15.102 15.1 15.102s8.5-4.432 18.954-9.846l79.728-32.986c11.128-3.604 20.238-6.508 20.238-6.508s-0.060-9.57-0.060-21.34v-87.494c0-11.736 9.478-22.62 21.154-24.24l42.372-3.61c11.798-0.672 21.522-1.16 21.77-1.16 0.242 0 10.026 0.49 21.766 1.16l42.432 3.61c11.618 1.618 21.156 12.502 21.156 24.24v87.492c0 11.77 0 21.34 0 21.34s8.99 2.906 20.178 6.508c0 0 62.672 20.178 98.806 42.892-0.062 0-0.062 0-0.062 0-0.058-0.062 6.726-6.88 14.98-15.162l61.996-61.996c8.318-8.346 22.746-9.23 32.102-2.168l32.708 27.574c8.684 7.854 15.84 14.398 15.962 14.486 0.12 0.062 6.6 7.216 14.486 15.958l27.576 32.772c7.092 9.294 6.178 23.724-2.198 32.038l-61.938 61.998c-8.318 8.312-15.102 15.042-15.226 14.98 0 0 0 0 0-0.062 22.804 36.166 42.98 98.834 42.98 98.834 3.544 11.16 6.48 20.24 6.48 20.24s9.538-0.094 21.34-0.094h87.488zM512 234.674c-117.822 0-213.324 95.504-213.324 213.324 0 117.818 95.502 213.322 213.324 213.322 117.818 0 213.32-95.504 213.32-213.322 0-117.822-95.504-213.324-213.32-213.324z" />
<glyph unicode="&#x22;" d="M280.316 218.634c0 0-144.468-0.044-156.448-108.366-10.814-97.088-108.368-108.318-108.368-108.318 409.228 0 300.908 180.566 300.908 180.566l-36.092 36.116zM346.868 294.814l29.006-29.080 3.368-3.418 29.132-29.084c0 0 32.948 10.606 87.618 44.202l-104.952 104.95c-33.59-54.676-44.174-87.568-44.174-87.568zM999.862 882.902c-4.764 4.73-10.402 8.194-16.2 11.146-36.28-20.13-70.542-40.188-102.834-60.11-238.16-147.050-373.63-289.266-448.546-390.642l124.63-124.626c100.816 74.476 241.89 208.818 388.038 444.34 21.116 34 42.384 70.394 63.548 108.732-2.328 3.938-5.23 7.682-8.638 11.158z" />
<glyph unicode="&#x23;" d="M527.322 944.526c-360.73 8.618-570.24-303.274-519.908-585.74 4.104 3.078 8.758 5.794 13.58 7.818v20.288c0 65.688 35.228 123.034 87.722 154.494 40.216 167.354 182.846 312.172 418.602 315.358 60.644 0.888 118.352-13.638 170.044-37.416-59.926 18.902-111.258 10.894-194.932-20.068l52.164 28.27c-75.694-14.052-118.24-89.662-42.572-127.55 61.31-33.096 122.73 4.6 179.604-47.368 56.818-52.106 47.338-113.528-33.15-94.71-52.078 9.588-75.554 61.642-137.028 47.396-56.846-14.078-127.716-85.198-104.188-146.592 19.098-61.364 99.444-56.596 137.336-85.148 113.47-70.924 28.326-165.438 75.64-245.818 51.888-94.652 160.644 118.24 189.166 174.896 23.53 52.134 23.53 113.52 47.144 165.604 13.886 35.84 38.726 49.252 61.034 63.334 5.602-27.052 8.624-55.13 8.624-83.678 0-225.696-183.458-405.464-408.878-409.096-43.378-0.582-83.98 3.77-124.668 14.688-11.584-11.226-27.386-18.486-44.876-18.486h-127.358c25.444-16.13 52.994-31.322 83.122-44.818 70.762-30.794 136.614-38.886 213.774-38.886 274.12 0 496.682 222.23 496.682 496.596 0.002 274.148-214.688 489.87-496.678 496.634zM326.93 336.424v36.614c0 73.394-59.924 133.288-133.372 133.288-73.668 0-133.592-59.894-133.592-133.288v-36.612h63.11v36.612c0 38.856 31.682 70.346 70.484 70.346 38.888 0 70.402-31.486 70.402-70.346v-36.612h62.972zM366.484 86.196v207.572c0 9.562-7.788 17.294-17.322 17.294h-311.344c-9.618 0-17.35-7.73-17.35-17.294v-207.572c0-9.562 7.732-17.352 17.35-17.352h311.34c9.536 0 17.324 7.788 17.324 17.35zM209.718 175.222l4.462-37.362c0-14.91-5.652-20.596-20.622-20.596-15.16 0-20.814 5.682-20.814 20.596l4.438 37.362c-17.046 6.624-29.020 22.778-29.020 42.098 0 25.030 20.288 45.374 45.15 45.374 25.086 0 45.43-20.342 45.43-45.374-0.004-19.318-11.95-35.476-29.024-42.098z" />
<glyph unicode="&#x24;" d="M878.48 802.124c-95.932 92.322-227.264 143.436-360.736 143.436-282.166 0-517.746-229.712-517.746-512h146.25c0 201.646 163.982 365.75 365.688 365.75 94.282 0 183.058-40.172 251.292-104.858l-128.762-132.922h389.532v374.25l-145.52-133.654zM512.062 96.692c-94.282 0-183.058 40.172-251.29 104.86l128.762 132.922h-389.534v-374.25l145.518 133.654c95.934-92.322 227.264-143.438 360.736-143.438 282.168 0 517.746 229.712 517.746 512h-146.25c0-201.646-163.982-365.75-365.688-365.75z" />
<glyph unicode="&#x25;" d="M544.896 155.682c-43.084-15.756-90.93-24.972-141.618-24.972-50.564 0-100 9.024-146.43 26.224l-25.306 9.768-80.828-35.148 16.79 70.748-27.642 26.73c-33.052 31.996-72.648 85.352-72.648 159.014 0 58.962 26.34 113.040 70.22 156.608-0.048 3.436-0.386 6.778-0.386 10.222 0 28.076 3.466 55.668 10.104 82.416-89.66-59.594-147.152-148.812-147.152-249.252 0-78.902 35.17-151.24 93.41-207.528l-38.704-163.606 178.594 77.388c51.576-19.344 109.312-30.428 169.98-30.428 107.772 0 204.962 34.472 277.322 89.604-19.678-1.922-39.712-3.436-59.902-3.436-25.978-0.004-50.856 2.304-75.802 5.65zM1024 554.868c0 179.192-180.444 324.228-403.302 324.228-222.59 0-403.324-145.034-403.324-324.228s180.734-324.156 403.324-324.156c60.96 0 118.452 11.018 170.006 30.408l178.59-77.438-38.314 163.99c58.16 55.882 93.020 128.242 93.020 207.194z" />
<glyph unicode="&#x26;" d="M804.778 336.158c30.698 59.008 48.49 125.882 48.49 197.166 0 235.62-191.058 426.618-426.65 426.618-235.708 0-426.618-190.998-426.618-426.618 0-235.706 190.908-426.646 426.618-426.646 71.172 0 138.134 17.73 197.196 48.486l219.104-219.104 181.084 180.966-219.222 219.134zM426.618 223.938c-170.818 0-309.472 138.592-309.472 309.384 0 170.706 138.652 309.442 309.472 309.442 170.62 0 309.416-138.736 309.416-309.442-0.002-170.792-138.798-309.384-309.416-309.384z" />
<glyph unicode="&#x27;" d="M728.572 960l-433.234-0.026c-86.664 0.026-157.526-70.888-157.496-157.524v-708.89c0-86.692 70.832-157.522 157.496-157.522l433.234-0.034c86.664 0 157.582 70.86 157.582 157.558v708.89c-0.058 86.636-70.886 157.55-157.582 157.55zM511.984-24.602c-43.516 0-78.764 35.248-78.764 78.764 0 43.518 35.246 78.794 78.764 78.794s78.762-35.274 78.762-78.794c0-43.514-35.244-78.764-78.762-78.764zM786.512 172.292h-549.052v669.524l549.050 0.030v-669.554h0.004z" />
<glyph unicode="&#x28;" d="M139.776 444.23c-2.694-1.158-5.474-2.274-8.334-3.36-10.618-3.946-20.354-5.924-29.204-5.924-10.604 0-19.080 2.756-25.446 8.268-6.242 5.506-9.070 12.58-8.49 21.208l0.26 3.902c21.706 0.1 42.332 1.812 61.886 5.148 19.556 3.424 34.242 7.64 44.058 12.632 9.932 4.988 17.772 11.228 23.514 18.714 4.362 5.616 6.802 12.162 7.304 19.646 0.712 10.71-4.342 19.856-15.18 27.45-10.842 7.588-26.512 12.362-46.936 11.384-24.282-1.164-37.164-4.154-59.24-13.512-21.95-9.254-39.5-21.736-51.826-36.396-12.2-14.554-18.862-30.208-19.984-46.942-1.5-22.354 7.714-40.188 27.648-53.494 13.018-8.53 21.624-12.79 45.696-12.79 17.332 0.004 34.294 2.864 50.892 8.578 1.812 0.618 3.216 1.058 4.394 1.426-2.848 5.39-4.46 11.538-4.46 18.058 0 5.706 1.234 11.126 3.45 16zM94.252 516.668c6.212 5.302 13.098 9.404 20.654 12.32 7.556 3.010 14.456 4.522 20.692 4.522 5.236-0.006 9.336-1.146 12.302-3.432 3.084-2.29 4.52-5.098 4.296-8.42-0.252-3.75-2.162-7.126-5.73-10.14-4.64-4.058-12.414-7.484-23.326-10.296-10.784-2.702-25.992-4.518-45.632-5.456 5.070 8.63 10.644 15.596 16.74 20.902zM360.028 566.238c-47.35 0-55.976-23.816-55.976-23.816 2.81 6.458-0.978 10.688-3.37 13.346-3.488 3.88-11.202 6.556-19.826 6.672l-16.79-0.004c-4.128-19.016-13.248-55.776-18.348-75.106l-40.67-157.496h18.994c0 0 14.074-0.908 23.282 8.408 9.21 9.308 14.712 28.784 14.712 28.784l9.066 35.688c5.642-0.95 9.444-0.95 13.562-0.95 69.404 0 106.294 53.874 110.356 114.398 2.274 33.914-9.952 50.072-34.988 50.072zM345.278 506.976c-1.956-29.152-20.060-67.5-49.53-67.5-5.072 0-10.392 0.952-14.408 2.534l2.138 8.242c7.702 29.788 19.036 77.608 53.782 74.166 7.6-0.754 8.824-5.4 8.020-17.442zM513.356 565.916c-69.404 0-106.314-54.186-110.376-114.716-2.276-33.902 9.952-50.070 34.988-50.070 26.94 0 54.060 20.73 54.060 20.73l-4.68-16.894c0 0 10.786-1.044 17.544 0 9.846 1.516 16.15 2.964 23.748 9.408 8.874 7.52 10.774 13.696 13.884 26.39 8.528 34.836 18.866 75.172 30.684 119.766-19.39 3.806-40.202 5.388-59.85 5.388zM514.542 517.432c-7.728-30.104-22.058-74.82-53.8-74.47-6.332 0.072-8.83 5.388-8.022 17.428 1.958 29.154 20.058 67.5 49.528 67.5 6.024 0 10.396-0.952 14.452-1.902l-2.158-8.558zM575.658 451.202c-2.274-33.904 9.952-50.070 34.99-50.070 26.938 0 52.908 14.318 52.908 14.318-3.806-13.812-4.828-17.060-4.828-17.060-6.326-23.452-23.082-30.85-50.974-30.85-14.256 0-30.844 3.174-43.39 9.824 0 0-3.812-12.966-1.614-20.798 2.438-8.714 7.168-12.702 14.318-18.254 13.496-10.482 36.93-8.634 43.086-8.040 49.504 4.782 69.922 25.976 80.898 67.688l42.278 162.568c-19.392 3.804-37.65 5.388-57.298 5.388-69.086 0-106.31-54.186-110.374-114.716zM687.22 517.432c-7.726-30.104-18.568-74.614-53.802-74.47-6.334 0.028-8.826 5.388-8.018 17.428 1.952 29.154 20.202 70.418 49.678 70.418 6.020 0 10.394-0.95 14.45-1.9l-2.308-11.476zM845.97 565.916c-46.588 0-93.356-40.562-97.992-109.644-2.298-34.228 11.214-54.824 54-54.824 9.876 0 41.032 1.562 54.596 14.274 5.708 5.346 7.424 10.062 9.348 17.59 1.48 5.818 1.024 15.354 1.024 15.354-15.618-6.018-32.332-9.508-47.226-9.508-19.964 0-25.034 4.75-24.12 18.382 0.15 2.216 0.384 5.702 0.874 8.236 58.416 1.584 98.29 19.65 100.99 59.894 1.276 19.016-8.39 40.244-51.49 40.244zM803.304 496.836c5.884 16.796 17.784 33.592 35.212 33.592 8.244 0 12.718-4.12 12.25-11.092-1.042-15.526-18.578-21.868-47.462-22.5zM1011.104 551.366c-2.846 9.124-10.212 14.55-19.722 14.55-47.852 0-72.538-23.13-74.558-53.236-2.468-36.76 33.006-41.832 31.772-60.212-0.552-8.242-8.478-12.994-21.792-12.994-7.284 0-16.034 1.902-22.836 4.434 0 0-5.722-11.424-5.212-19.144 0.386-5.88 1.144-9.65 4.682-14.356 5.876-7.81 21.448-8.914 23.442-8.822 47.524 2.182 70.688 29.772 72.396 55.318 2.274 33.912-33.744 45.004-32.702 60.528 0.53 7.922 7.212 12.996 20.84 12.996 6.336 0 12.928-0.952 19.14-2.852 0 0 4.062 7.372 4.858 12.566 0.664 4.328 0.992 7.046-0.312 11.224zM175.050 453.38c-13.888 0-25.148-11.26-25.148-25.15 0-13.884 11.26-25.146 25.148-25.146 13.892 0 25.15 11.26 25.15 25.146 0.002 13.89-11.258 25.15-25.15 25.15z" />
<glyph unicode="&#x29;" d="M875.264 449.37l124.366 39.204-25.134 30.666-303.388 370.962-1.042-79.458-4.872-388.818-0.438-38.716 124.476 39.072 94.96-267.762 86.030 27.104-9.256 26.178-85.704 241.562zM252.18 958c-125.846-0.058-227.76-96.052-227.812-214.476 0.052-118.424 101.966-214.424 227.812-214.476 125.734 0.056 227.7 96.052 227.7 214.476s-101.962 214.42-227.7 214.476zM252.18 592.6c-88.552 0.138-160.126 67.658-160.29 150.924 0.166 83.378 71.74 150.87 160.29 150.95 88.496-0.082 160.124-67.572 160.234-150.95-0.108-83.266-71.736-150.786-160.234-150.924zM252.18 830.902c-51.26 0-92.77-39.102-92.77-87.378 0-48.218 41.51-87.4 92.772-87.4 51.254 0 92.822 39.182 92.822 87.4 0 48.274-41.568 87.378-92.822 87.378zM252.18 393.486c-125.846-0.084-227.76-102.054-227.812-227.788 0.052-125.73 101.966-227.646 227.812-227.698 125.734 0.052 227.7 101.968 227.7 227.698 0 125.734-101.962 227.702-227.7 227.788zM252.18 5.462c-88.552 0.164-160.126 71.74-160.29 160.234 0.166 88.498 71.74 160.158 160.29 160.24 88.496-0.082 160.124-71.74 160.234-160.24-0.108-88.494-71.736-160.068-160.234-160.234z" />
<glyph unicode="&#x2a;" d="M389.050 59.486h245.926v40.998h-245.926v-40.998zM389.050-22.482h83.25v-41.018h79.418v41.018h83.258v40.984h-245.926v-40.984zM512.006 959.5c-197.474 0-357.572-160.124-357.572-357.598 0-104.128 44.792-197.504 115.806-262.904 1.834-3.054 4.548-6.244 8.598-8.996 41.928-43.176 81.12-92.704 101.156-141.912 8.048-17.426 27.748-32.070 46.508-32.070h170.998c18.754 0 38.472 14.644 46.524 32.070 20.020 49.202 59.212 98.736 101.14 141.912 4.052 2.752 6.826 5.942 8.654 8.996 71.020 65.4 115.744 158.776 115.744 262.904 0 197.474-160.082 357.598-357.556 357.598zM652.626 390.778l-70.356 70.322-70.318-70.322-70.264 70.288-70.264-70.316-145.362 145.438h99.658l45.704-45.794 45.76 45.794h49.064l45.704-45.794 45.812 45.794h49.064l45.79-45.794 45.676 45.794h99.648l-145.316-145.41z" />
<glyph unicode="&#x2b;" d="M913.52 812.98h-73.024c0 40.12-32.848 73.020-72.968 73.020-40.174 0-73.024-32.9-73.024-73.020h-365.010c0 40.12-32.846 73.020-73.022 73.020-40.12 0-72.972-32.9-72.972-73.020h-73.022c-60.208 0-109.48-49.274-109.48-109.48v-584.026c0-60.256 49.274-109.478 109.48-109.478h803.042c60.202 0 109.48 49.222 109.48 109.478v584.024c0 60.206-49.278 109.48-109.48 109.48zM161.848 110.428c-28.508 0-51.576 23.068-51.576 51.528 0 28.506 23.068 51.574 51.576 51.574 28.456 0 51.524-23.068 51.524-51.574-0.002-28.458-23.068-51.528-51.524-51.528zM161.848 271.12c-28.508 0-51.576 23.068-51.576 51.524 0 28.506 23.068 51.574 51.576 51.574 28.456 0 51.524-23.068 51.524-51.574-0.002-28.456-23.068-51.524-51.524-51.524zM161.848 431.808c-28.508 0-51.576 23.070-51.576 51.524 0 28.51 23.068 51.576 51.576 51.576 28.456 0 51.524-23.068 51.524-51.576-0.002-28.454-23.068-51.524-51.524-51.524zM165.248 685.244c0 20.398 6.956 39.074 18.254 54.294 0.264-39.91 33.008-72.552 72.972-72.552 40.014 0 72.71 32.64 72.972 72.552 11.348-15.222 18.306-33.896 18.306-54.294 0-50.426-40.854-91.278-91.276-91.278-50.378 0.002-91.228 40.856-91.228 91.278zM335.928 110.428c-28.51 0-51.576 23.068-51.576 51.528 0 28.506 23.068 51.574 51.576 51.574 28.456 0 51.524-23.068 51.524-51.574 0-28.458-23.066-51.528-51.524-51.528zM335.928 271.12c-28.51 0-51.576 23.068-51.576 51.524 0 28.506 23.068 51.574 51.576 51.574 28.456 0 51.524-23.068 51.524-51.574 0-28.456-23.066-51.524-51.524-51.524zM335.928 431.808c-28.51 0-51.576 23.070-51.576 51.524 0 28.51 23.068 51.576 51.576 51.576 28.456 0 51.524-23.068 51.524-51.576 0-28.454-23.066-51.524-51.524-51.524zM510.012 110.428c-28.51 0-51.574 23.068-51.574 51.528 0 28.506 23.066 51.574 51.574 51.574 28.456 0 51.526-23.068 51.526-51.574 0-28.458-23.070-51.528-51.524-51.528zM510.012 271.12c-28.51 0-51.574 23.068-51.574 51.524 0 28.506 23.066 51.574 51.574 51.574 28.456 0 51.526-23.068 51.526-51.574 0-28.456-23.070-51.524-51.524-51.524zM510.012 431.808c-28.51 0-51.574 23.070-51.574 51.524 0 28.51 23.066 51.576 51.574 51.576 28.456 0 51.526-23.068 51.526-51.576 0-28.454-23.070-51.524-51.524-51.524zM684.092 110.428c-28.51 0-51.576 23.068-51.576 51.528 0 28.506 23.066 51.574 51.576 51.574 28.456 0 51.524-23.068 51.524-51.574 0-28.458-23.066-51.528-51.524-51.528zM684.092 271.12c-28.51 0-51.576 23.068-51.576 51.524 0 28.506 23.066 51.574 51.576 51.574 28.456 0 51.524-23.068 51.524-51.574 0-28.456-23.066-51.524-51.524-51.524zM684.092 431.808c-28.51 0-51.576 23.070-51.576 51.524 0 28.51 23.066 51.576 51.576 51.576 28.456 0 51.524-23.068 51.524-51.576 0-28.454-23.066-51.524-51.524-51.524zM676.246 685.244c0 20.398 6.96 39.074 18.31 54.294 0.208-39.91 32.952-72.552 72.972-72.552 39.962 0 72.706 32.64 72.914 72.552 11.352-15.222 18.31-33.896 18.31-54.294 0-50.426-40.852-91.278-91.226-91.278-50.428 0.002-91.278 40.856-91.278 91.278zM858.174 110.428c-28.506 0-51.574 23.068-51.574 51.528 0 28.506 23.068 51.574 51.574 51.574 28.458 0 51.528-23.068 51.528-51.574 0-28.458-23.068-51.528-51.528-51.528zM858.174 271.12c-28.506 0-51.574 23.068-51.574 51.524 0 28.506 23.068 51.574 51.574 51.574 28.458 0 51.528-23.068 51.528-51.574 0-28.456-23.068-51.524-51.528-51.524zM858.174 431.808c-28.506 0-51.574 23.070-51.574 51.524 0 28.51 23.068 51.576 51.574 51.576 28.458 0 51.528-23.068 51.528-51.576 0-28.454-23.068-51.524-51.528-51.524z" />
<glyph unicode="&#x2c;" d="M874.692 765.062c-80.76 80.692-212.82 80.692-293.49 0l-142.52-142.498c-12.472-12.492-22.338-26.52-30.926-41.044-28.64-48.304-35.858-105.45-21.97-158.574 8.998-34.398 26.082-67.058 52.896-93.826 8.358-8.426 17.494-15.528 26.906-22.062l72.264 72.31c0.96 0.914 1.28 2.602 2.056 3.698-10.142 4.934-19.734 11.192-27.866 19.37-19.412 19.414-30.148 45.496-30.148 73.36 0 9.478 1.69 18.592 4.064 27.454 4.658 17.222 13.248 33.094 26.084 45.934l142.476 142.54c19.502 19.368 45.542 30.102 73.404 30.102 27.912 0 53.948-10.734 73.36-30.102 19.414-19.462 30.102-45.52 30.102-73.36 0-27.91-10.688-53.972-30.102-73.406l-31.566-31.61 10.232-39.196c7.626-29.232 10.048-59.384 8.086-89.212l86.652 86.652c80.672 80.718 80.672 212.73 0.002 293.47zM666.756 557.062c-8.404 8.428-17.494 15.532-26.904 22.062l-72.356-72.31c-0.914-0.914-1.188-2.604-1.964-3.698 10.14-4.934 19.734-11.216 27.864-19.368 19.458-19.414 30.148-45.522 30.148-73.36 0-9.502-1.692-18.592-4.114-27.5-4.616-17.176-13.202-33.050-26.038-45.884l-142.568-142.52c-19.414-19.438-45.452-30.148-73.314-30.148-27.91 0-53.902 10.71-73.36 30.148-19.414 19.414-30.104 45.474-30.104 73.336 0 27.912 10.69 53.948 30.104 73.384l31.564 31.588-10.278 39.192c-7.674 29.236-10.096 59.43-8.038 89.26l-86.608-86.654c-80.716-80.716-80.716-212.774 0-293.49 80.67-80.672 212.776-80.672 293.446 0l142.52 142.564c12.518 12.448 22.338 26.448 30.928 41 28.64 48.302 35.812 105.428 21.926 158.572-8.956 34.35-26.038 67.058-52.852 93.824z" />
<glyph unicode="&#x2d;" d="M358.484 44.198l-357.484 357.41 142.96 142.958 214.524-214.38 521.732 521.616 142.782-142.99-664.516-664.616z" />
<glyph unicode="&#x2e;" d="M161.112 739.282l-96.076 96.022-64.036-64.034 160.116-160.086 213.518 213.572-63.952 64.036-149.568-149.508zM161.112 437.296l-96.076 96.020-64.036-64.060 160.114-160.084 213.52 213.596-63.952 64.060-149.568-149.532zM161.112 135.31l-96.076 96.026-64.036-64.046 160.114-160.082 213.516 213.55-63.952 64.062-149.566-149.51zM419.042 61.9h603.96v83.494h-603.958v-83.494zM419.042 363.88h603.96v83.496h-603.958v-83.496zM419.042 749.364v-83.494h603.96v83.494h-603.958z" />
<glyph unicode="&#x2f;" d="M509.012 732.464c62.834 0 113.756 50.92 113.756 113.784 0 62.856-50.924 113.754-113.754 113.754-62.828 0-113.754-50.898-113.754-113.754-0.002-62.858 50.924-113.784 113.752-113.784zM186.604 692.81c52.394 0 94.836 42.42 94.836 94.788 0 52.394-42.444 94.816-94.836 94.816-52.344 0-94.796-42.424-94.796-94.816 0.002-52.368 42.452-94.788 94.796-94.788zM246.496 656.614h-151.698c-41.682 0-75.872-34.076-75.872-73.562v-229.854h75.872v-341.352h189.634v265.508h-37.938v379.262zM625.76 694.55h-227.516c-41.742 0-75.872-37.636-75.872-79.356v-299.936h75.872v-379.26h227.518v379.26h75.874v299.936c0.002 41.72-34.134 79.356-75.874 79.356zM831.368 692.81c52.396 0 94.842 42.42 94.842 94.788 0 52.394-42.446 94.816-94.842 94.816-52.336 0-94.792-42.424-94.792-94.816 0.004-52.368 42.452-94.788 94.792-94.788zM929.202 656.614h-151.698v-379.262h-37.938v-265.506h189.634v341.354h75.87v229.854c0.002 39.484-34.188 73.562-75.87 73.562z" />
<glyph unicode="&#x30;" d="M884.654 950.146c-322.424 60.14-361.456-205.808-361.456-205.808 263.342-98.064 361.456 205.808 361.456 205.808zM705.882 647.24c-68.274 9.248-136.288-6.664-193.924-39.73-57.688 33.066-125.592 48.976-193.818 39.73-155.914-36.556-257.048-198.276-223.926-349.142 30.482-149.332 196.236-385.274 368.706-359.094 17.586 3.846 33.774 10.808 49.040 19.388 15.266-8.582 31.506-15.544 49.084-19.388 172.584-26.182 338.288 209.762 368.764 359.094 33.068 150.864-68.058 312.586-223.924 349.142zM177.98 298.362c-28.394 115.644 41.988 238.228 160.806 291.51-52.796-77.366-78.608-186.188-61.61-290.456 13.384-88.206 58.382-203.124 118.862-287.668-109.51 62.606-196.774 193.362-218.058 286.614zM482.44 682.668l36.294 9.306c-4.082 22.602-9.948 43.198-17.582 64.272-7.58 20.888-17.15 41.376-28.976 61.266-23.388 39.22-58.762 77.39-108.068 98.086l-27.148-81.422c30.214-5.566 60.372-25.106 85.37-52.9 24.846-27.586 45.866-62.91 60.11-98.608z" />
<glyph unicode="&#x31;" d="M1020.476 474.808c-19.956 145.65-119.42 252.592-224.49 244.346v0.766h-579.798c-0.086 0-0.11 0-0.236 0h-2.126v-0.17c-99.698-1.872-191.216-105.858-210.312-244.946-20.46-149.476 50.496-282.548 158.628-297.378 97.592-13.388 191.854 74.482 224.272 201.716h251.19c32.42-127.232 126.64-215.102 224.278-201.716 108.092 14.836 179.090 147.906 158.592 297.38zM324.428 444.13h-48.608v-48.604c0-26.77-21.882-48.652-48.648-48.652-26.706 0-48.588 21.88-48.588 48.652v48.604h-48.65c-26.698 0-48.61 21.88-48.61 48.606s21.91 48.628 48.61 48.628h48.65v48.606c0 26.746 21.884 48.628 48.588 48.628 26.766 0 48.648-21.882 48.648-48.628v-48.608h48.608c26.722 0 48.606-21.9 48.606-48.628-0.002-26.724-21.884-48.606-48.606-48.606zM795.136 635.75c27.72 0 50.204-22.476 50.204-50.176 0-27.746-22.484-50.222-50.204-50.222-27.708 0-50.2 22.478-50.2 50.222 0 27.698 22.492 50.176 50.2 50.176zM699.494 439.708c-27.722 0-50.204 22.478-50.204 50.18 0 27.746 22.482 50.22 50.204 50.22 27.764 0 50.22-22.476 50.22-50.22 0-27.702-22.456-50.18-50.22-50.18zM795.136 344.070c-27.726 0-50.2 22.456-50.2 50.178 0 27.744 22.474 50.222 50.2 50.222 27.766 0 50.204-22.48 50.204-50.222 0-27.724-22.436-50.178-50.204-50.178zM890.816 439.708c-27.76 0-50.216 22.478-50.216 50.18 0 27.746 22.452 50.22 50.216 50.22 27.73 0 50.206-22.476 50.206-50.22 0-27.702-22.474-50.18-50.206-50.18z" />
<glyph unicode="&#x32;" d="M531.308-11.496h-397.428v370.616l389.134 349.042 364.9-327.288v-392.368h-356.606zM521.828 800.786l439.486-361.592 62.686 57.97-502.172 410.33-521.828-428.69 61.28-56.6 460.546 378.582z" />
<glyph unicode="&#x33;" d="M244.99 720.7c88.046 5.636 170.62 38.006 245.412 79.366 72.024 39.85 150.192 70.994 230.926 77.638 40.182 3.348 80.674 0.114 118.626-11.61 37.312-11.388 74.428-32.372 98.846-59.052l25.982 21.1c-12.73 22.548-28.434 38.956-47.076 54.196-18.476 14.958-38.788 28.744-60.922 38.288-44.26 19.926-93.374 27.74-141.15 27.46-96.164-2.62-185.494-35.774-262.628-80.702-34.048-19.37-68.872-36.34-104.062-50.792-35.414-13.562-71.466-24.448-107.942-30.086-36.502-5.19-73.508-6.028-110.34 0.392-36.782 5.356-73.788 21.154-105.154 41.466l-25.508-21.542c64.856-67.59 157.702-91.534 244.99-86.12zM843.448 706.354v-325.058l-252.808 144.448v-144.448l-252.83 144.448v-144.448l-252.776 144.448v-577.834h938.97v758.442h-180.554zM311.854 136.226h-120.472v120.44h120.472v-120.44zM492.524 136.226h-120.444v120.44h120.444v-120.44zM673.19 136.226h-120.442v120.44h120.442v-120.44zM853.884 136.226h-120.444v120.44h120.444v-120.44z" />
<glyph unicode="&#x34;" d="M1024-21.918v0 939.834h-196.924v-430.754l-275.706 156.626v-156.628l-275.668 156.628v-156.628l-275.7 156.628v-665.706zM315.11 56.384h-157.52v156.658h157.52v-156.658zM315.11 252.182h-157.52v156.626h157.52v-156.626zM551.376 56.384h-157.532v156.658h157.532v-156.658zM551.376 252.182h-157.532v156.626h157.532v-156.626zM787.688 56.384h-157.53v156.658h157.53v-156.658zM787.688 252.182h-157.53v156.626h157.53v-156.626z" />
<glyph unicode="&#x35;" d="M644.63 27.768c-27.62 0-47.238 4.554-58.406 13.668-11.284 9.028-16.868 26.060-16.868 51.298 0 9.972 1.644 24.704 5.214 44.246 3.488 19.496 7.424 36.852 11.654 51.956l53.602 189.156c5.128 17.36 8.698 36.486 10.586 57.29 2.054 20.81 3.034 35.336 3.034 43.624 0 39.814-13.994 72.152-42.024 97.106-27.99 24.95-67.846 37.386-119.432 37.386-28.728 0-59.058-5.128-91.146-15.388-32.096-10.058-65.664-22.328-100.794-36.65l-14.284-58.482c10.384 3.902 22.818 8.040 37.346 12.394 14.526 4.264 28.848 6.482 42.724 6.482 28.316 0 47.438-4.72 57.37-14.322 9.974-9.48 15.022-26.514 15.022-50.686 0-13.38-1.684-28.278-4.926-44.534-3.282-16.328-7.268-33.45-12.066-51.664l-53.6-189.85c-4.796-19.982-8.288-37.8-10.542-53.72-2.096-15.76-3.124-31.318-3.124-46.462 0-38.906 14.322-71.040 43.176-96.566 28.894-25.322 69.28-38.048 121.278-38.048 33.774 0 63.448 4.478 89.056 13.298 25.606 8.946 59.842 21.834 102.682 38.864l14.326 58.482c-7.39-3.524-19.248-7.51-35.79-12.066-16.326-4.72-30.978-6.81-44.068-6.81zM520.436 756.236c25.080-23.148 55.16-34.846 90.414-34.846 35.006 0 65.010 11.7 89.918 34.846 24.952 23.104 37.472 51.22 37.472 84.216 0 32.956-12.518 61.024-37.472 84.46-24.908 23.394-54.912 35.090-89.918 35.090-35.254 0-65.34-11.698-90.414-35.090-25.276-23.438-37.794-51.506-37.794-84.46 0-32.996 12.516-61.11 37.794-84.216z" />
<glyph unicode="&#x36;" d="M226.466 200.458h-12.258c40.3 29.22 69.406 53.506 69.406 98.646 0 57.216-46.336 104.164-103.44 104.164-57.192 0-103.53-47.356-103.53-104.526 0-45.138 29.106-69.064 69.472-98.284h-12.324c-51.314 0-133.292-38.536-133.292-89.87v-56.268h350.754v56.268c0 51.332-73.588 89.87-124.788 89.87zM701.986 549.044c0 51.334-73.588 89.824-124.788 89.824h-12.28c40.3 29.264 69.404 53.506 69.404 98.69 0 57.172-46.292 104.12-103.418 104.12-57.216 0-103.532-47.31-103.532-104.48 0-45.184 29.106-69.066 69.496-98.33h-12.324c-51.312 0-133.29-38.49-133.29-89.824v-56.266h350.73v56.266zM526.632 434.296h-29.218v-147.404l-137.272-79.288 14.61-25.284 137.27 79.242 137.25-79.242 14.61 25.284-137.25 79.288zM898.712 200.458h-12.28c40.322 29.22 69.474 53.506 69.474 98.646 0 57.216-46.384 104.164-103.486 104.164-57.192 0-103.528-47.356-103.528-104.526 0-45.138 29.106-69.064 69.494-98.284h-12.346c-51.292 0-133.246-38.536-133.246-89.87v-56.268h350.71v56.268c0 51.332-73.612 89.87-124.788 89.87z" />
<glyph unicode="&#x37;" d="M985.358 498.476c-18.522 0-37.052 0-55.554 0-20.378 212.418-200.54 379.942-418.050 379.942-217.534 0-397.714-167.524-418.094-379.942-18.344 0-36.646 0-54.99 0-51.56-100.974-51.56-220.436 0-321.458 40.256 0 80.374 0 120.738 0 0 43.29 0 86.606 0 129.924h53.046c0-53.436 79.186-112.102 198.644-126.542 16.244 26.024 49.482 44.024 88.342 44.024 54.83 0 99.15-35.432 99.15-79.296 0-43.884-44.322-79.32-99.152-79.32-42.218 0-77.972 21.154-92.32 50.876-89.804 10.104-165.148 42.426-210.884 87.476 62.938-111.326 182.192-186.576 319.174-186.576 163.53 0 301.972 107.144 349.214 255.026 0-31.87 0.024-63.768 0-95.588 40.23 0 80.462 0 120.732 0 51.522 100.956 51.522 220.414 0 321.458zM369.516 310.12c-30.77 0-55.788 24.99-55.788 55.784 0 30.798 25.014 55.794 55.788 55.794 30.794 0 55.812-24.996 55.812-55.794 0-30.794-25.020-55.784-55.812-55.784zM702.74 402.892c8.818-9.822 14.322-22.73 14.322-36.986 0-30.794-24.994-55.784-55.784-55.784-30.842 0-55.812 24.99-55.812 55.784 0 13.936 5.3 26.596 13.798 36.374-123.662 12.7-229.666 84.478-289.862 186.438-42.79-58.212-101.55-103.698-169.996-130.264 0 3.836 0 7.722 0 11.534 6.238 189.162 161.7 341.222 352.346 341.222 193.594 0 351.202-156.79 352.732-350.018-47.816-30.68-102.506-51.514-161.742-58.3z" />
<glyph unicode="&#x38;" d="M991.994 208.010h-127.986c35.174 0 64.020 28.818 64.020 64.020v479.966c0 35.192-28.846 63.994-64.020 63.994h-704.014c-35.17 0-64.016-28.802-64.016-63.994v-479.968c0-35.194 28.844-64.020 64.016-64.020h-127.988c-17.606 0-32.006-14.418-32.006-32.008v-63.994c0-17.586 14.402-32.004 32.006-32.004h959.986c17.61 0 32.008 14.418 32.008 32.004v63.994c0.002 17.586-14.398 32.010-32.008 32.010zM607.98 144.014h-191.96c-35.22 0-64.020 28.818-64.020 63.994h319.996c0-35.17-28.8-63.994-64.018-63.994zM852.264 283.768h-680.528v456.49h680.524l0.002-456.49z" />
<glyph unicode="&#x39;" d="M936.386 789.316h-848.774l424.362-367.022 424.412 367.022zM0 764.804v-623.442l334.36 334.302-334.36 289.14zM511.974 322.018l-120.112 103.92-319.248-319.254h878.776l-319.248 319.252-120.168-103.918zM689.646 475.664l334.354-334.302v623.444l-334.354-289.142z" />
<glyph unicode="&#x3a;" d="M541.278 489.522v28.708c0 29.21 51.724 36.168 77.508 80.252 15.208 25.94 19.082 48.69 19.082 73.314 0 32.612-30.316 135.926-135.924 135.926-97.672 0-140.566-82.408-140.566-129.362 0-49.718 70.154-65.404 75.188-3.532 3.216 39.464 33.69 56.654 64.796 56.654 18.56 0 60.080-14.842 60.080-61.266 0 0 3.4-39.522-34.222-57.814 0 0-58.126-23.15-58.126-76.4v-46.976h1.108c-214.382-16.086-393.962-155.070-470.202-346.512l136.346-54.232c59.474 149.37 205.020 255.192 375.666 255.192 170.618 0 316.192-105.822 375.668-255.192l136.32 54.232c-77.662 195.138-262.91 335.464-482.722 347.012z" />
<glyph unicode="&#x3b;" d="M253.65 579.59l138.574 9.184c15.362 1.008 27.928 3.090 27.928 4.612 0 1.544-12.564 3.606-27.928 4.614l-138.574 9.162c-15.366 1.052-28.782 14.422-29.788 29.788l-9.14 138.594c-1.052 15.364-3.112 27.952-4.658 27.952-1.502 0-3.584-12.586-4.636-27.952l-9.184-138.596c-0.986-15.366-14.424-28.736-29.766-29.788l-138.526-9.16c-15.364-1.008-27.952-3.068-27.952-4.614 0-1.524 12.588-3.606 27.952-4.614l138.526-9.184c15.342-1.008 28.782-14.402 29.766-29.764l9.184-138.6c1.052-15.364 3.134-27.932 4.636-27.932 1.544 0 3.604 12.568 4.658 27.932l9.14 138.598c1.008 15.364 14.424 28.758 29.788 29.766zM418.116 295.928c-15.364 1.028-28.782 14.424-29.786 29.784l-5.712 86.056c-1.032 15.364-3.158 27.95-4.638 27.95-1.524 0-3.63-12.586-4.636-27.95l-5.712-86.056c-1.008-15.364-14.424-28.754-29.788-29.784l-86.052-5.712c-15.364-1.052-27.884-3.114-27.884-4.64 0-1.52 12.522-3.626 27.884-4.654l86.052-5.67c15.366-1.032 28.782-14.444 29.788-29.808l5.712-86.056c1.008-15.318 3.112-27.904 4.636-27.904 1.478 0 3.606 12.586 4.638 27.904l5.712 86.056c1.008 15.362 14.422 28.774 29.786 29.808l86.052 5.67c15.364 1.028 27.952 3.134 27.952 4.654 0 1.524-12.588 3.588-27.952 4.64l-86.052 5.712zM759.342 668.754c15.362-1.006 28.826-14.422 29.788-29.79l3.966-59.798c1.006-15.364 3.090-27.954 4.634-27.954s3.652 12.586 4.616 27.954l4.010 59.798c0.986 15.368 14.428 28.784 29.788 29.79l59.822 3.944c15.342 1.028 27.908 3.112 27.908 4.658 0 1.522-12.566 3.628-27.908 4.614l-59.822 3.962c-15.364 1.008-28.758 14.424-29.788 29.79l-4.010 59.824c-0.962 15.362-3.068 27.95-4.616 27.95-1.544 0-3.626-12.586-4.634-27.95l-3.966-59.824c-0.964-15.366-14.428-28.782-29.788-29.79l-59.798-3.962c-15.322-0.988-27.908-3.092-27.908-4.614 0-1.544 12.586-3.63 27.908-4.658l59.798-3.944zM492.274 695.942c-10.862 10.89-28.714 10.89-39.578 0l-32.094-32.14c-10.862-10.862-10.862-28.692 0-39.576l130.040-130.020 71.718 71.65-130.086 130.086zM1015.836 172.382l-364.206 364.178-71.672-71.67 364.158-364.224c10.908-10.884 28.716-10.884 39.578 0l32.14 32.136c10.884 10.908 10.884 28.69 0 39.578z" />
<glyph unicode="&#x3c;" d="M85.356 902.202v-908.38c0-20.082-16.448-36.5-36.476-36.5h-12.436c-20.028 0-36.442 16.412-36.442 36.5v908.38c0 20.024 16.414 36.472 36.442 36.472h12.436c20.030 0 36.476-16.448 36.476-36.472zM1024 341.298l-171.32-59.918 18.37-53.312c23.264-66.492-12.102-139.9-78.568-163.134l-160.994-56.43c-66.432-23.24-139.804 12.036-163.13 78.506l-18.434 53.404-279.24-97.674v810.636l853.318-298.684v-213.396zM794.264 202.364l-18.404 53.346-241.606-84.534 18.436-53.438c7.638-21.77 32.52-33.788 54.322-26.172l161.12 56.404c21.788 7.672 33.802 32.56 26.134 54.392z" />
<glyph unicode="&#x3d;" d="M-0.002 817.404h1024v-116.542h-1024v116.542zM-0.002 507.31h1024v-116.54h-1024v116.54zM-0.002 195.138h1024v-116.544h-1024v116.544z" />
<glyph unicode="&#x3e;" d="M1016.552 546.558c11.842 10.058 9.29 21.54-5.684 25.664l-143.316 39.37c-14.972 4.092-22.88 19.316-17.664 33.93l49.87 140.098c5.216 14.644-2.748 23.326-17.774 19.366l-143.946-37.584c-15.024-3.902-29.514 5.274-32.306 20.55l-26.822 146.25c-2.804 15.276-14.042 18.822-25.11 7.884l-105.784-104.402c-11.068-10.908-28.182-10.164-38.272 1.678l-96.216 113.166c-10.082 11.818-21.596 9.286-25.714-5.714l-39.404-143.284c-4.122-14.976-19.316-22.918-33.962-17.694l-140.064 49.84c-14.638 5.222-23.32-2.748-19.396-17.78l37.586-143.88c3.932-15.032-5.278-29.484-20.55-32.286l-146.278-26.816c-15.272-2.828-18.822-14.068-7.914-25.108l104.462-105.778c10.93-11.048 10.192-28.188-1.65-38.248l-113.198-96.328c-11.842-10.082-9.288-21.596 5.69-25.722l143.282-39.336c14.972-4.122 22.912-19.316 17.694-33.962l-49.786-140.062c-5.218-14.626 2.748-23.308 17.802-19.406l143.832 37.62c15.028 3.924 29.512-5.274 32.308-20.552l26.822-146.25c2.802-15.28 14.036-18.856 25.106-7.92l105.782 104.47c11.068 10.906 28.184 10.154 38.27-1.684l96.274-113.164c10.076-11.838 21.566-9.278 25.686 5.716l39.376 143.3c4.116 15.006 19.31 22.92 33.96 17.704l140.066-49.9c14.644-5.222 23.322 2.744 19.398 17.808l-37.59 143.858c-3.928 15.054 5.282 29.502 20.552 32.312l146.34 26.816c15.27 2.798 18.82 14.042 7.88 25.106l-104.494 105.754c-10.926 11.076-10.188 28.164 1.654 38.246l113.198 96.356zM394.19 271.558c-12.916-2.614-29.95 5.99-38.084 19.236l-57.5 93.716c-8.136 13.244-12.232 11.64-9.096-3.6l19.944-97.898c3.076-15.222-5.932-29.916-20.2-32.808-14.26-2.884-28.298 7.126-31.4 22.344l-47.504 233.588c-3.102 15.222 5.442 29.808 19.070 32.584 13.62 2.778 31.266-5.716 39.398-18.958l53.524-87.234c8.132-13.24 12.226-11.654 9.122 3.6l-18.522 90.86c-3.102 15.224 5.908 29.922 20.142 32.81 14.226 2.91 28.246-7.114 31.348-22.338l47.5-233.59c3.102-15.222-4.836-29.706-17.746-32.312zM538.486 300.904l-62.146-12.64c-15.222-3.104-30.056 6.734-33.164 21.962l-47.504 233.586c-3.102 15.222 6.734 30.114 21.976 33.192l60.832 12.362c15.224 3.106 29.728-5.108 32.426-18.296 2.69-13.246-7.446-26.486-22.694-29.564l-8.024-1.646c-15.222-3.080-25.058-17.944-21.954-33.162l3.352-16.598c3.11-15.224 17.942-25.058 33.166-21.954l0.716 0.14c15.242 3.104 29.786-5.112 32.468-18.324 2.702-13.25-7.442-26.434-22.694-29.566l-0.712-0.114c-15.25-3.13-25.084-17.96-21.98-33.188l3.714-18.298c3.104-15.222 17.936-25.060 33.158-21.928l9.312 1.864c15.226 3.104 29.758-5.076 32.452-18.298 2.692-13.216-7.472-26.424-22.696-29.528zM756.856 344.45l-0.216-0.030c-15.25-3.104-31.878 6.24-37.148 20.86l-40.772 113.138c-5.278 14.592-8.876 13.846-8-1.644l6.622-120.096c0.886-15.524-10.77-30.606-25.992-33.71l-0.326-0.054c-15.226-3.076-31.986 6.202-37.422 20.77l-85.070 227.522c-5.432 14.532 2.254 28.818 17.206 31.844 14.972 3.048 31.1-6.428 36.042-21.154l40.092-119.136c4.944-14.726 8.302-14.064 7.5 1.432l-6.6 126.106c-0.788 15.526 9.484 30.332 22.976 33.082 13.49 2.748 28.712-6.87 33.982-21.482l42.832-118.748c5.274-14.618 8.63-13.906 7.472 1.592l-9.312 125.45c-1.154 15.496 9.726 30.442 24.314 33.41 14.586 2.938 26.956-7.256 27.616-22.75l10.544-242.66c0.668-15.558-11.118-30.64-26.342-33.74z" />
<glyph unicode="&#x3f;" d="M1024 562.712l-350.516 56.074-161.322 316.234-161.65-316.234-350.514-56.074 250.978-251.086-55.564-350.644 316.75 160.896 316.424-160.896-55.030 350.646 250.446 251.086zM512.188 214.346l-210.048-106.672 36.856 232.508-166.502 166.612 232.378 37.176 107.202 209.722 107.002-209.722 232.646-37.204-166.13-166.586 36.506-232.538-209.912 106.702z" />
<glyph unicode="&#x40;" d="M810.034 247.544h52.954c-0.374-11.424-2.784-22.376-7.042-32.38h-169.62c-4.53 10.952-7.116 22.972-7.116 35.514 0 50.744 41.284 91.952 92.004 91.952 13.86 0 27.024-3.136 38.82-8.708v-86.376zM550.822 247.544v356.464h-194.408v-356.462h-64.832v194.408h-194.404v-194.408h-97.18v-32.38h559.936c-1.77 10.554-2.894 21.33-3.092 32.38h-6.022zM615.626 397.904c39.12 41.31 94.314 67.266 155.582 67.266 13.192 0 26.15-1.42 38.826-3.762v272.178h64.8l-160.362 160.364-160.39-160.364h61.544v-335.682zM1024 77.376l-75.428-75.328-91.158 91.254c-24.64-12.842-52.516-20.256-82.174-20.256-98.126 0-177.588 79.534-177.588 177.636s79.462 177.658 177.588 177.658c98.176 0 177.682-79.558 177.682-177.658 0-29.64-7.422-57.562-20.206-82.1l91.278-91.206zM904.076 250.68c0 71.020-57.762 128.806-128.832 128.806-71.074 0-128.782-57.784-128.782-128.806 0-71.050 57.708-128.836 128.782-128.836 71.070 0 128.832 57.786 128.832 128.836z" />
<glyph unicode="&#x41;" d="M785.622 284.282l-168.926 49.418c49.8 38.488 75.082 107.412 95.908 187.914 2.552-1.222 5.154-2.116 8.030-2.442 22.78-2.818 45.296 28.208 50.446 69.298 4.99 40.716-9.274 76.028-31.734 79.254 1.144 123.712-73.010 234.534-227.342 234.534-155.684 0-223.712-110.226-224.74-235.21-21.21-5.048-34.448-39.14-29.672-78.578 5.1-41.092 27.664-72.12 50.504-69.298 0.268 0 0.486 0.164 0.706 0.272 19.038-82.238 45.568-149.122 96.392-186.39l-166.266-48.766c-127.478-32.010-237.926-60.488-237.926-180.346v-110.202h378.532l87.12 203.286-61.678 61.706 50.452 50.5c17.032-4.826 35.312-8.248 56.578-8.248 21.21 0 39.866 2.986 56.688 8.086l50.34-50.336-61.674-61.706 87.116-203.286h378.53v110.202c0.004 119.856-107.136 143.914-237.38 180.34z" />
<glyph unicode="&#x42;" d="M279.848 558.128c0 52.384 17.806 100.552 47.434 139.254-14.186 4.216-28.942 7.176-44.478 7.176-86.962 0-157.354-70.326-157.354-157.15 0-61.824 36.020-114.83 88.016-140.516h-1.146c-77.796 0-211.318-63.014-211.318-140.838v-70.438h146.012v47.64c0 88.774 85.014 154.172 171.564 187.422-24.452 36.482-38.728 80.34-38.728 127.452zM811.726 406.89h-1.144c51.9 25.686 87.924 78.69 87.924 140.516 0 86.822-70.396 157.15-157.174 157.15-16.894 0-32.888-3.346-48.144-8.296 29.126-38.496 46.608-86.252 46.608-138.132 0-46.516-14.048-89.826-37.88-126.052 87.696-32.77 175.068-98.856 175.068-188.822v-47.64h146.014v70.442c0.002 77.82-133.524 140.834-211.274 140.834zM588.698 396.92h-20.828c66.13 23.81 113.498 86.942 113.498 161.206 0 94.73-76.766 171.45-171.474 171.45-94.868 0-171.656-76.72-171.656-171.45 0-74.266 47.318-137.396 113.52-161.206h-16.404c-84.604 0-229.952-68.788-229.952-153.668v-76.832h613.202v76.832c-0.002 84.884-145.348 153.668-229.904 153.668z" />
<glyph unicode="&#x43;" d="M771.552 124.938c-39.682 20.252-73.938 37.812-112.080 25.014-37.452-12.41-71.602-51.71-114.614-133.212-6.88 12.438-13.566 25.042-20.362 37.698-26.332 49.364-53.606 100.384-88.72 143.006l-9.136 11.148-13.264-5.722c-64.504-27.792-76.634-100.328-77.488-165.882-80.902 142.572-147.304 206.028-207.292 197.086-56.852-8.148-97.578-80.572-124.602-221.41l37.756-7.206c30.406 158.722 70.832 187.504 92.24 190.588 27.656 3.11 91.028-23.006 206.024-247.88l36.298 9.13c-0.192 8.096-0.524 16.816-0.908 25.93-2.452 61.828-5.7 144.802 40.588 177.35 28.206-37.284 51.76-81.426 74.624-124.216 12.716-23.808 25.35-47.442 38.664-69.87l18.076-30.492 15.632 31.808c44.11 89.43 78.624 135.778 108.586 145.734 21.932 7.264 44.472-3.414 82.556-22.812 54.188-27.63 128.48-65.518 247.856-49.256l-5.172 38c-107.566-14.524-172.81 18.74-225.262 45.462zM1018.61 154.932l-64 122.35c-0.576 1.158-1.65 1.87-2.586 2.75 10.292 36.812 1.208 77.818-28.066 106.438l-220.366 215.828-0.658-0.632-262.142 257.78 42.376 42.354c93.174-48.846 166.866-128.924 207.514-226.94 13.568 13.65 27.16 27.182 40.754 40.782-45.844 110.62-133.766 198.54-244.412 244.36l-40.728-40.734h0.056l-34.15-34.062c-42.656 30.596-102.23 26.668-140.122-12.104-41.85-42.708-41.14-111.232 1.62-153.030l306.358-301.404 0.716 0.716 191.718-187.616c28.29-27.71 67.75-36.376 103.36-26.972 1.018-2.146 2.422-4.014 4.592-5.146l122.426-60.846c4.624-2.206 10.152-1.268 13.788 2.342 3.494 3.688 4.428 9.216 1.948 13.784z" />
<glyph unicode="&#x44;" d="M783.37 450.928l-385.176 240.736c-1.062 0.664-2.408 0.698-3.506 0.092-1.1-0.612-1.782-1.768-1.782-3.020v-481.476c0-1.254 0.686-2.414 1.782-3.022 0.524-0.288 1.098-0.432 1.676-0.432 0.634 0 1.274 0.174 1.832 0.524l385.178 240.736c1.008 0.63 1.624 1.736 1.624 2.928-0.002 1.19-0.618 2.296-1.628 2.93zM511.988 958.99c-282.248 0-510.988-228.722-510.988-510.966 0-282.272 228.742-511.012 510.988-511.012 282.26 0 511.012 228.742 511.012 511.012 0 282.246-228.754 510.966-511.012 510.966zM512 12.426c-240.552 0-435.568 195.004-435.568 435.57s195.016 435.57 435.568 435.57c240.556 0 435.568-195.004 435.568-435.57s-195.014-435.568-435.568-435.568z" />
<glyph unicode="&#x45;" d="M359.97 674.464l-111.46-111.546c0 0 98.36-268.864 367.306-367.25l98.332 98.388 262.368-65.608c0 0 45.826-13.158 45.826-72.138 0 0 19.758-137.688-157.342-209.826-308.25-85.286-924.74 491.842-859.156 859.098 0 0 65.558 170.524 216.402 150.846 0 0 47.28-7.812 59.038-45.878l78.686-236.082z" />
<glyph unicode="&#x46;" d="M433.71 130.576l0.056 0.028 0.052 635.702-253.786-89.944c-6.89-107.758-5.51-437.234 253.678-545.788zM444.878 38.922l-11.112-3.996-11.25 3.996c-392.974 141.45-331.072 660.686-328.23 682.69l2.534 20.21 337 119.448 336.976-119.42 2.48-19.99c0.496-3.886 2.756-23.77 3.968-54.236 12.436 1.768 24.982 2.98 37.886 2.98 17.676 0 34.934-1.818 51.62-5.048-1.24 38.024-4.080 62.706-4.658 67.394l-9.318 74.778-418.954 148.506-418.952-148.512-9.346-74.692c-3.2-24.956-72.602-613.040 386.74-778.342l41.556-14.918 41.39 14.918c116.578 41.966 198.942 111.478 257.122 192.1-29.452 9.54-56.524 24.128-80.49 42.572-48.664-63.47-115.284-117.456-206.962-150.438zM815.13 610.932c-115.116 0-208.812-93.67-208.812-208.818 0-115.146 93.692-208.836 208.812-208.836 115.146 0 208.87 93.69 208.87 208.836 0 115.152-93.724 208.818-208.87 208.818zM794.096 267.866l-115.12 118.092 63.914 50.544 51.204-76.628 101.826 176.472 55.424-97.914-157.25-170.566z" />
<glyph unicode="&#x47;" d="M846.77 69.74h-669.486c-97.536 0-177.284 79.746-177.284 177.226 0 97.468 79.748 177.23 177.284 177.23h669.486c97.48 0 177.23-79.76 177.23-177.23 0-97.48-79.748-177.226-177.23-177.226zM846.77 471.824h-669.486c-97.536 0-177.284 79.694-177.284 177.218 0 97.478 79.748 177.218 177.284 177.218h669.486c97.48 0 177.23-79.738 177.23-177.218 0-97.526-79.748-177.218-177.23-177.218z" />
<glyph unicode="&#x48;" d="M855.462 691.3c-38.64 0-70.002 31.306-70.002 69.992 0 38.582 31.356 70.014 70.002 70.014 38.678 0 69.972-31.432 69.972-70.014 0-38.686-31.294-69.992-69.972-69.992zM884.008 901.298h-744.028c-76.992 0-139.98-62.99-139.98-140.004 0-77.024 62.988-139.976 139.98-139.976h744.028c76.99 0 139.99 62.954 139.99 139.976 0 77.016-63 140.004-139.99 140.004zM855.462 64.682c-38.64 0-70.002 31.258-70.002 70.004 0 38.542 31.356 69.98 70.002 69.98 38.678 0 69.972-31.438 69.972-69.98 0-38.744-31.294-70.004-69.972-70.004zM884.008 274.648h-744.028c-76.992 0-139.98-62.986-139.98-139.966 0-77.026 62.988-139.98 139.98-139.98h744.028c76.99 0 139.99 62.96 139.99 139.98 0 76.98-63 139.966-139.99 139.966zM855.462 378.020c-38.64 0-70.002 31.262-70.002 69.978 0 38.552 31.356 69.99 70.002 69.99 38.678 0 69.972-31.436 69.972-69.99 0-38.712-31.294-69.978-69.972-69.978zM884.008 587.976h-744.028c-76.992 0-139.98-62.996-139.98-139.98 0-77.042 62.988-139.978 139.98-139.978h744.028c76.99 0 139.99 62.938 139.99 139.978 0 76.986-63 139.98-139.99 139.98z" />
<glyph unicode="&#x49;" d="M707.644 358.14l-106.222-106.224 181.444-200.568c12.852-14.196 34.444-14.744 47.942-1.192l78.63 78.65c13.498 13.498 13 35.066-1.172 47.918l-200.622 181.416zM1009.558 733.726l-116.962-116.932c-23.76 4.756-48.266 17.632-68.788 38.228-20.576 20.472-33.474 45.028-38.284 68.74l117.436 117.384c-23.61 9.642-48.716 14.52-73.924 14.52-49.762 0-99.6-18.98-137.554-56.86-36.714-36.762-57.012-85.602-56.964-137.606 0-29.788 7.35-58.23 19.976-84.31-3.462-1.616-6.874-3.61-9.714-6.452l-81.592-81.566-209.040 189.114 0.672 0.646 1.372-1.344c62.664 62.64 136.462 98.128 195.19 99.576-77.534 76.062-199.2 78.652-280.67 9.24l-2.514 2.514-134.692-134.644c-13.502 13.5-35.64 13.5-49.14 0l-73.724-73.722c-13.522-13.5-13.522-35.644 0-49.168l98.282-98.33c13.526-13.496 35.668-13.496 49.168 0l73.722 73.726c13.5 13.548 13.5 35.664 0 49.164l49.766 49.764 189.136-209.038-243.78-243.756c-13.5-13.5-13.5-35.64 0-49.14l49.14-49.14c13.5-13.55 35.64-13.55 49.166 0l417.878 417.828c3.312 3.286 5.83 7.224 7.522 11.356 24.432-10.834 50.908-16.838 78.402-16.838 52.006 0 100.896 20.226 137.606 56.96 56.708 56.69 70.958 139.978 42.912 210.088z" />
<glyph unicode="&#x4a;" d="M978.664 213.788l-410.18 336.014c12.826 33.348 19.828 69.124 19.828 105.956 0 78.524-30.582 152.428-86.098 207.942-85.646 85.62-211.52 107.188-317.476 64.828l176.764-176.758c-7.24-35.932-26.706-72.91-57.738-103.942-30.97-31.062-68.070-50.526-103.972-57.8l-177.33 177.364c-14.57-35.688-21.962-73.63-21.962-111.634 0-75.258 28.658-150.568 85.978-207.826 55.516-55.574 129.39-86.16 207.914-86.16 47.168 0 92.524 11.298 133.384 32.146l328.288-402.638c59.784-59.81 156.784-59.81 216.506 0l6.096 6.066c59.806 59.75 59.748 156.692-0.004 216.442zM859.88 27.692c-45.51 0-82.284 36.948-82.374 82.432 0.088 45.422 36.858 82.25 82.316 82.25 45.51 0.062 82.372-36.948 82.372-82.342 0-45.48-36.864-82.25-82.316-82.338z" />
<glyph unicode="&#x4b;" d="M227.838 504.846h-227.336c0-62.764 50.876-113.668 113.644-113.668 62.816 0 113.69 50.904 113.69 113.668zM265.738 921.598h-106.040c-46.070 0-90.73-36.594-99.77-81.77l-59.43-297.108h227.338l37.9 378.88zM379.38 391.178c62.768 0 113.644 50.9 113.644 113.668h-227.288c0-62.764 50.876-113.668 113.644-113.668zM528.696 88.090h-338.754v265.19h-75.802v-378.88h497.954v378.88h-83.4v-265.19zM493.022 542.716v378.88h-189.44l-37.846-378.88h227.284zM909.802 391.178c62.82 0 113.696 50.9 113.696 113.668h-227.336c0-62.764 50.876-113.668 113.64-113.668zM834.494 353.28h75.308v-378.88h-75.308v378.88zM1023.498 542.716l-59.426 297.112c-9.038 45.174-53.698 81.772-99.766 81.772h-106.042l37.898-378.88 227.336-0.002zM644.62 391.178c62.766 0 113.644 50.9 113.644 113.668h-227.342c0-62.764 50.876-113.668 113.698-113.668zM530.922 921.598v-378.88h227.342l-37.9 378.88h-189.44z" />
<glyph unicode="&#x4c;" d="M220.344 884.302l83.984-13.154c6.19-0.962 11.254-5.346 13.036-11.278l22.558-73.764 354.472-0.236c5.394-0.022 10.5-2.768 13.504-7.242 3-4.526 3.564-10.248 1.498-15.264l-70.434-169.57c-2.018-4.924-6.326-8.464-11.396-9.612-1.172-0.28-2.342-0.424-3.658-0.376l-244.316 0.582c-7.128 0-13.412 4.668-15.476 11.49l-51.63 168.936c-0.094 0.188-0.142 0.398-0.188 0.588l-22.98 75.238-74.046 11.534c-8.814 1.434-14.914 9.71-13.504 18.572 1.366 8.864 9.664 14.958 18.576 13.552zM592.73 481.742c-24.716-4.572-48.442 11.748-53.086 36.484-4.548 24.716 11.77 48.464 36.482 53.060 24.714 4.572 48.49-11.724 53.038-36.46 4.596-24.712-11.674-48.466-36.434-53.084zM426.912 480.004c-24.712-4.572-48.44 11.724-53.036 36.438-4.596 24.736 11.768 48.512 36.436 53.060 24.714 4.642 48.488-11.702 53.084-36.436 4.596-24.714-11.724-48.466-36.484-53.062zM225.338 12.264c-24.714-4.572-48.462 11.722-53.058 36.438-4.574 24.736 11.768 48.512 36.436 53.062 24.736 4.64 48.512-11.706 53.086-36.438 4.596-24.712-11.724-48.466-36.462-53.062zM391.156 13.998c-24.714-4.572-48.466 11.75-53.084 36.482-4.572 24.716 11.746 48.466 36.46 53.060 24.738 4.572 48.488-11.726 53.060-36.462 4.596-24.71-11.702-48.466-36.436-53.082zM507.806 295.62l-70.412-169.568c-2.016-4.924-6.332-8.466-11.396-9.614-1.168-0.278-2.366-0.424-3.656-0.376l-244.316 0.586c-7.128 0-13.436 4.668-15.498 11.49l-51.63 168.938c-0.094 0.188-0.14 0.396-0.166 0.586l-23.002 75.24-74.020 11.536c-8.818 1.432-14.914 9.71-13.506 18.57 1.36 8.864 9.66 14.962 18.546 13.554l84.012-13.152c6.166-0.964 11.23-5.346 13.034-11.278l22.56-73.764 354.448-0.234c5.416-0.024 10.504-2.768 13.53-7.244 2.976-4.53 3.536-10.252 1.476-15.27zM740.306 12.264c-24.712-4.572-48.462 11.722-53.062 36.438-4.572 24.736 11.768 48.512 36.436 53.062 24.736 4.64 48.514-11.706 53.084-36.438 4.592-24.712-11.724-48.466-36.46-53.062zM906.12 13.998c-24.712-4.572-48.462 11.75-53.082 36.482-4.574 24.716 11.75 48.466 36.462 53.060 24.736 4.572 48.486-11.726 53.058-36.462 4.596-24.71-11.702-48.466-36.438-53.082zM1022.77 295.62l-70.412-169.568c-2.020-4.924-6.332-8.466-11.398-9.614-1.174-0.278-2.368-0.424-3.654-0.376l-244.318 0.586c-7.13 0-13.438 4.668-15.5 11.49l-51.63 168.938c-0.094 0.188-0.14 0.396-0.164 0.586l-23.002 75.24-74.024 11.536c-8.814 1.432-14.908 9.71-13.504 18.57 1.36 8.864 9.66 14.962 18.548 13.554l84.010-13.152c6.168-0.964 11.232-5.346 13.042-11.278l22.558-73.764 354.446-0.234c5.416-0.024 10.504-2.768 13.528-7.244 2.974-4.53 3.54-10.252 1.476-15.27z" />
<glyph unicode="&#x4d;" d="M453.312 41.926c-49.714-9.196-97.484 23.55-106.722 73.318-9.236 49.76 23.628 97.534 73.3 106.724 49.75 9.318 97.524-23.588 106.762-73.296 9.236-49.714-23.586-97.472-73.342-106.746zM860.214 152.202c-9.278 49.75-57.018 82.536-106.788 73.338-49.714-9.272-82.544-57.046-73.342-106.76 9.278-49.734 57.092-82.562 106.78-73.366 49.716 9.276 82.54 57.068 73.35 106.786zM1018.548 642.644c-6.106 9.038-16.326 14.512-27.198 14.552l-713.028 0.476-45.354 148.388c-3.65 11.934-13.872 20.778-26.244 22.678l-169.002 26.482c-17.844 2.814-34.574-9.476-37.31-27.278-2.858-17.802 9.43-34.492 27.196-37.34l148.866-23.236 46.272-151.322c0.076-0.396 0.158-0.79 0.312-1.188l103.87-339.794c4.204-13.764 16.894-23.158 31.202-23.158l491.456-1.188c2.612-0.072 4.996 0.198 7.37 0.802 10.23 2.296 18.87 9.394 22.918 19.3l141.608 341.108c4.202 10.106 3.094 21.602-2.932 30.722z" />
<glyph unicode="&#x4e;" d="M488.674 286.602c-19.76-3.654-38.746 9.36-42.418 29.14-3.67 19.778 9.392 38.768 29.134 42.418 19.774 3.704 38.762-9.376 42.434-29.134s-9.376-38.742-29.152-42.428zM650.4 330.432c-3.688 19.774-22.662 32.804-42.444 29.15-19.76-3.686-32.808-22.674-29.15-42.432 3.688-19.768 22.692-32.814 42.44-29.16 19.76 3.688 32.806 22.682 29.154 42.444zM713.334 525.364c-2.428 3.592-6.49 5.77-10.812 5.784l-283.402 0.188-18.026 58.978c-1.45 4.744-5.512 8.26-10.43 9.014l-67.172 10.526c-7.092 1.118-13.74-3.766-14.83-10.842-1.136-7.076 3.748-13.71 10.81-14.842l59.168-9.234 18.392-60.144c0.030-0.158 0.062-0.314 0.124-0.474l41.286-135.054c1.67-5.472 6.714-9.206 12.4-9.206l195.336-0.472c1.038-0.028 1.986 0.078 2.93 0.318 4.066 0.912 7.5 3.732 9.108 7.67l56.284 135.576c1.67 4.020 1.23 8.588-1.164 12.212z" />
<glyph unicode="&#x4f;" d="M470.162 158.514c-35.44-6.556-69.496 16.788-76.080 52.268-6.584 35.472 16.844 69.532 52.254 76.082 35.466 6.644 69.524-16.816 76.11-52.252 6.586-35.442-16.814-69.488-52.284-76.098zM760.238 237.128c-6.614 35.466-40.648 58.84-76.128 52.282-35.44-6.61-58.846-40.668-52.284-76.106 6.614-35.456 40.698-58.858 76.122-52.302 35.442 6.614 58.842 40.684 52.292 76.126zM873.114 586.76c-4.352 6.442-11.64 10.346-19.39 10.374l-508.312 0.338-32.332 105.784c-2.602 8.508-9.89 14.812-18.71 16.166l-120.478 18.88c-12.722 2.006-24.646-6.754-26.598-19.448-2.036-12.69 6.724-24.588 19.388-26.62l106.124-16.564 32.986-107.876c0.056-0.282 0.112-0.562 0.224-0.85l74.050-242.234c2.998-9.812 12.044-16.51 22.242-16.51l350.354-0.846c1.862-0.052 3.562 0.144 5.254 0.572 7.294 1.636 13.452 6.696 16.338 13.758l100.952 243.174c2.996 7.206 2.206 15.4-2.090 21.9z" />
<glyph unicode="&#x50;" d="M1023.5 486.46h-90.126v71.438l-363.464-363.436-225.182 270.31-280.504-280.476-63.724 63.72 350.298 350.23 225.182-270.306 293.68 293.674h-71.404v90.094h225.248v-225.248z" />
<glyph unicode="&#x51;" d="M943.084 813.346h-862.164c-44.24 0-80.42-36.176-80.42-80.42v-569.854c0-44.24 36.18-80.42 80.42-80.42h862.164c44.236 0 80.416 36.174 80.416 80.42v569.854c0 44.244-36.18 80.42-80.416 80.42zM913.918 521.068h-73.092v57.932l-294.77-294.744-182.62 219.218-227.492-227.464-51.676 51.674 284.092 284.038 182.62-219.22 238.174 238.172h-57.906v73.066h182.674v-182.674z" />
<glyph unicode="&#x52;" d="M512.102 959.5c-184.76 0-334.544-149.702-334.544-334.384 0-126.166 69.87-235.91 172.99-292.946l161.432-395.67 161.432 395.626c103.12 56.88 173.028 166.788 173.028 292.99 0 184.682-149.616 334.384-334.338 334.384zM623.6 566.896l23.414-149.578-134.872 68.64-135.202-68.64 23.696 149.578-107.046 107.092 149.584 23.94 68.968 134.914 68.684-134.914 149.616-23.94-106.842-107.092z" />
<glyph unicode="&#x53;" d="M1019.35 622.326c-2.986-2.988-159.86-107.89-167.866-112.906-5.976 6.99-39.966 27.002-47.972 33.992-1.016-39.966 25.986-534.602 24.972-544.578 0-13.98 2.986-18.996-10.992-21.984-18.996-4.002-601.51-14.994-618.476-16.966-18.998-2.986-32.020-2.986-29.988 18.996 1.016 16.966 36.978 542.548 30.944 552.524-7.944-2.988-40.92-11.948-48.926-12.964-20.014-4.002-31.96 12.006-46.954 23-32.976 21.982-60.994 48.926-92.952 72.94-13.978 9.976-12.962 6.988-4.004 22.94 5.018 9.020 100.958 158.904 125.93 192.836 8.004 10.992 35.962 33.992 44.924 39.966 17.026 12.008 99.942 43.968 120.912 50.002 17.98 5.974 47.97 27.956 63.98 9.976 12.964-14.994 5.974-34.946 19.952-48.986 17.024-17.98 41.996-41.938 65.952-49.942 20.968-6.99 46.954-6.99 68.938-4.96 13.022 0.956 25.030 2.988 36.98 5.976 13.98 2.986 40.98 14.994 50.956 23.956 10.99 10.036 21.982 24.014 29.988 35.962 8.004 10.99 13.98 24.014 21.984 35.008 9.976 12.006 13.98 12.006 27.958 8.004 21.028-5.020 168.88-72.942 178.856-77.96 18.996-10.992 36.98-36.978 50-54.96 12.964-18.998 91.88-146.898 101.914-163.862 5.976-9.98 10.994-8.008 2.988-16.010z" />
<glyph unicode="&#x54;" d="M527.35 944.534c-548.884 13.084-747.728-715.7-213.656-954.296v-0.002c70.758-30.672 136.618-38.942 213.65-38.942 274.276 0 496.654 222.352 496.654 496.63 0.008 274.286-214.462 489.876-496.648 496.61zM527.342 38.91c-74.812-1.174-141.112 12.106-214.71 50.196v0.002c-357.33 180.62-259.88 761.288 214.718 767.798 60.764 0.83 118.304-13.686 170.154-37.534-59.958 19.010-111.25 10.876-194.956-20.080l-3.112-1.39c-32.558-17.884-36.224-71.99 12.58-97.918 61.424-33.164 122.904 4.678 179.674-47.31 56.78-52.032 47.308-113.514-33.116-94.596-52.014 9.47-75.612 61.48-137.094 47.298-56.77-14.184-127.716-85.138-104.062-146.606 18.94-61.432 99.306-56.716 137.134-85.080 113.546-70.972 28.41-165.544 75.718-245.918 52.002-94.606 160.794 118.194 189.148 174.944 23.59 52.032 23.59 113.514 47.294 165.558 13.742 35.824 38.712 49.178 60.926 63.418 5.648-27.072 8.708-55.082 8.708-83.764 0-225.558-183.528-405.456-409.006-409.016z" />
<glyph unicode="&#x55;" d="M482.032 563.78h124.932v-83.268h-124.932v-124.936h-83.298v124.936h-124.9v83.268h124.9v124.962h83.298v-124.962zM996.742 19.672l-58.912-58.882c-32.414-32.386-85.48-32.386-117.832 0l-168.802 168.802c-62.5-34.92-134.366-54.856-210.83-54.856-241.54 0-437.412 198.052-437.354 442.428 0 244.254 195.786 442.428 437.354 442.336 241.51 0 437.354-198.084 437.29-442.336 0-75.568-18.77-146.664-51.75-208.854l170.834-170.838c32.324-32.326 32.324-85.39 0-117.802zM772.634 517.164c0 185.634-148.808 336.174-332.262 336.174-183.612 0-332.362-150.596-332.362-336.232 0-185.642 148.782-336.12 332.362-336.12 183.456 0.004 332.296 150.48 332.262 336.178z" />
<glyph unicode="&#x56;" d="M491.616 389.726c11.22-11.22 29.602-11.22 40.824 0l273.976 273.976c11.222 11.222 7.386 20.412-8.456 20.412h-99.688c-15.846 0-28.87 12.968-28.87 28.87v217.648c0 15.844-12.97 28.87-28.87 28.87h-257.004c-15.9 0-28.87-13.024-28.87-28.87v-217.648c0-15.9-13.024-28.87-28.87-28.87h-99.634c-15.9 0-19.68-9.192-8.458-20.412l273.92-273.976zM846.448 290.6h-668.842c-97.434 0-177.106-79.674-177.106-177.050s79.672-177.050 177.106-177.050h668.842c97.38 0 177.052 79.672 177.052 177.050s-79.672 177.050-177.050 177.050zM846.448 25.024c-48.886 0-88.524 39.64-88.524 88.526 0 48.828 39.64 88.524 88.524 88.524 48.888 0 88.526-39.696 88.526-88.524 0-48.886-39.64-88.526-88.526-88.526z" />
<glyph unicode="&#x57;" d="M701.342 836.308c-35.842 21.988-90.778 43.942-165.016 43.942-81.080 0-142.942-39.808-142.942-101.672 0-71.514 68.756-97.638 171.79-131.964 126.484-41.222 224.12-93.47 224.12-217.18 0-71.414-34.428-123.662-89.366-166.294 23.332-19.232 52.248-64.554 52.248-120.972 0-144.304-133.344-206.17-261.19-206.17-83.818 0-163.568 19.232-215.818 57.696l33.018 78.338c32.982-23.332 100.326-56.28 181.39-56.28 87.972 0 153.938 39.808 153.938 112.698 0 64.556-39.876 98.982-167.62 142.894-141.616 48.148-239.188 98.984-239.188 217.214 0 52.248 27.504 114.078 100.328 160.812-27.468 21.956-49.492 68.722-50.836 115.458 0 120.972 112.7 195.174 254.298 195.174 76.928 0 142.894-19.23 189.696-45.356l-28.848-78.338zM479.96 373.082c70.152-24.678 125.090-45.32 156.694-65.966 34.43 24.746 52.248 63.21 52.248 105.842 0 52.23-33.016 96.206-122.314 127.846-54.954 20.576-125.090 43.942-169.034 70.068-44.046-31.606-63.276-66-63.276-107.222 0-49.49 37.152-90.692 145.682-130.57z" />
<glyph unicode="&#x58;" d="M512.148 394.606c156.044 0 282.476 126.49 282.476 282.536 0 155.986-126.432 282.358-282.476 282.358-156.224 0-282.77-126.372-282.77-282.358 0.002-156.044 126.548-282.536 282.77-282.536zM629.664 316.144h-235.326c-129.95 0-352.904-113.236-352.904-253.154v-126.49h941.136v126.49c0 139.918-223.072 253.154-352.904 253.154z" />
<glyph unicode="&#x59;" d="M224.276 304.148c-70.622 0-127.888-57.268-127.888-127.866 0-70.644 57.268-127.888 127.888-127.888s127.864 57.244 127.864 127.888c0 70.596-57.242 127.866-127.864 127.866zM224.276 128.316c-26.436 0-47.968 21.51-47.968 47.966 0 26.434 21.532 47.942 47.966 47.942s47.966-21.51 47.966-47.942c0-26.458-21.532-47.966-47.966-47.966zM959.544 719.72h-319.686v-351.64h-31.976v415.596c0 35.14-28.77 63.932-63.91 63.932h-479.54c-35.14 0-63.932-28.794-63.932-63.932v-479.528c0-28.312 18.784-52.228 44.394-60.542 27.328 72.592 97.352 124.476 179.382 124.476 83.312 0 154.23-53.51 180.642-127.89h214.188c26.39 74.38 97.308 127.89 180.596 127.89 83.334 0 154.254-53.51 180.642-127.89h43.156v191.82l-63.954 287.708zM703.814 495.966v159.842h205.84l31.932-159.842h-237.772zM799.702 304.148c-70.6 0-127.866-57.268-127.866-127.866 0-70.644 57.268-127.888 127.866-127.888 70.644 0 127.91 57.244 127.91 127.888 0 70.596-57.268 127.866-127.91 127.866zM799.702 128.316c-26.434 0-47.922 21.51-47.922 47.966 0 26.434 21.486 47.942 47.922 47.942s47.966-21.51 47.966-47.942c0-26.458-21.532-47.966-47.966-47.966z" />
<glyph unicode="&#x5a;" d="M1023.5 243.69l-87.73-87.774-434.248 434.294-426.676-426.63-74.346 74.394 502.064 502.11 520.936-496.396z" />
<glyph unicode="&#x5b;" d="M307.69-63.5l-87.776 87.73 434.294 434.248-426.63 426.676 74.394 74.346 502.11-502.064-496.394-520.936z" />
<glyph unicode="&#x5c;" d="M0.5 652.31l87.73 87.776 434.248-434.296 426.674 426.63 74.348-74.394-502.064-502.11-520.934 496.396z" />
<glyph unicode="&#x5d;" d="M716.31 959.5l87.774-87.73-434.294-434.248 426.63-426.674-74.394-74.348-502.11 502.064 496.396 520.934z" />
<glyph unicode="&#x5e;" d="M303.406 765.264h-220.248l130.144-229.224-173.526-285.676h220.248l173.524 285.678-130.142 229.224zM984.222 948h-233.616l-347.092-607.962 223.634-392.038h233.634l-223.654 392.038 347.092 607.962z" />
<glyph unicode="&#x5f;" d="M376.358 761.668c0-25.802 0-140.976 0-140.976h-103.29v-172.402h103.29v-512.288h212.176v512.288h142.376c0 0 13.332 82.668 19.788 173.044-18.53 0-161.366 0-161.366 0s0 100.308 0 117.876c0 17.614 23.136 41.312 46 41.312 22.822 0 71 0 115.6 0 0 23.478 0 104.576 0 179.478-59.554 0-127.298 0-157.176 0-222.644 0-217.4-172.556-217.4-198.332z" />
<glyph unicode="&#x60;" d="M908.004 487.090c57.512 4.744 96.512 30.89 111.534 66.368-20.756-12.746-85.154-26.632-120.71-13.4-1.756 8.356-3.688 16.288-5.6 23.454-27.108 99.51-119.888 179.678-217.11 170 7.866 3.178 15.846 6.134 23.802 8.79 10.688 3.834 73.486 14.056 63.596 36.212-8.356 19.49-85.044-14.732-99.488-19.21 19.068 7.166 50.598 19.5 53.976 41.408-29.222-4-57.888-17.82-80.044-37.9 8 8.61 14.066 19.1 15.356 30.4-77.932-49.768-123.442-150.11-160.266-247.454-28.932 28.022-54.558 50.1-77.558 62.354-64.51 34.6-141.644 70.688-262.73 115.644-3.712-40.064 19.82-93.332 87.598-128.756-14.688 1.966-41.534-2.422-63.022-7.564 8.756-45.9 37.314-83.712 114.688-101.99-35.356-2.334-53.622-10.378-70.178-27.71 16.086-31.914 55.376-69.494 126.042-61.772-78.554-33.864-32.022-96.6 31.912-87.23-109.066-112.668-281.048-104.402-379.802-10.17 257.844-351.332 818.312-207.776 901.82 130.634 62.576-0.532 99.38 21.68 122.18 46.156-36.040-6.118-88.284 0.202-115.996 11.736z" />
<glyph unicode="&#x61;" d="M617.77 378.176l-48.442 37.602c-14.734 12.12-34.912 28.198-34.912 57.798 0 29.546 20.178 48.4 37.624 65.866 56.472 44.312 113 91.356 113 190.8 0 102.158-64.62 155.912-95.53 181.434h83.444l86.020 48.322h-277.114c-72.626 0-164.090-10.722-240.734-73.844-57.912-49.754-86.088-118.234-86.088-180.078 0-104.8 80.71-211.012 223.288-211.012 13.444 0 28.178 1.354 43.088 2.668-6.732-16.068-13.532-29.512-13.532-52.402 0-41.668 21.532-67.148 40.356-91.354-60.468-4-173.49-10.712-256.936-61.76-79.352-47.124-103.62-115.596-103.62-164.004 0-99.442 94.2-192.216 289.27-192.216 231.378 0 353.82 127.668 353.82 254.068 0 92.63-53.824 138.396-113 188.106zM441.502 532.722c-115.644 0-168.086 149.202-168.086 239.202 0 34.956 6.732 71.202 29.556 99.434 21.534 26.89 59.178 44.368 94.178 44.368 111.622 0 169.53-150.522 169.53-247.246 0-24.234-2.74-67.2-33.646-98.154-21.53-21.46-57.888-37.604-91.532-37.604zM442.878-7.478c-143.91 0-236.752 68.544-236.752 163.9 0 95.478 86.108 127.642 115.666 138.396 56.532 18.846 129.156 21.508 141.242 21.508 13.47 0 20.204 0 31.002-1.308 102.268-72.556 146.64-108.886 146.64-177.404 0.006-83.318-68.64-145.092-197.798-145.092zM834 504.216v106.73h-47.966v-106.73h-102.318v-45.524h102.318v-108.188h47.966v108.188h102.322v45.524h-102.322z" />
<glyph unicode="&#x62;" d="M1012 648.466c0 82.584-66.906 149.532-149.434 149.532h-701.108c-82.552 0-149.456-66.948-149.456-149.532v-400.93c0-82.584 66.904-149.534 149.456-149.534h701.11c82.528 0 149.436 66.95 149.436 149.534v400.932zM411.998 278.85v376.592l285.59-188.302-285.592-188.29z" />
<glyph unicode="&#x63;" d="M771.268 634.49c-116.582 0-168.666-64.178-197.822-109.088v-2.134h-1.442c0.418 0.678 0.996 1.434 1.442 2.134v93.578h-219.534c2.956-61.98 0-660.226 0-660.226h219.534v368.714c0 19.758 1.484 39.4 7.268 53.508 15.888 39.466 51.976 80.288 112.622 80.288 79.444 0 111.198-60.554 111.198-149.29v-353.216h219.466v378.578c0.006 202.79-108.264 297.158-252.732 297.158zM13.044 618.976h219.468v-660.222h-219.468v660.222zM124.246 937.246c-75.114 0-124.246-49.266-124.246-114.044 0-63.378 47.71-114.134 121.332-114.134h1.468c76.556 0 124.176 50.756 124.176 114.134-1.444 64.774-47.622 114.044-122.734 114.044z" />
<glyph unicode="&#x64;" d="M1023.308 926.154l-33.36 33.324-476.86-476.392-476.426 476.894-33.326-33.36 476.392-476.86-476.894-476.426 33.36-33.326 476.862 476.392 476.426-476.892 33.328 33.36-476.394 476.86z" />
<glyph unicode="&#x65;" d="M585.172 636.386l55.62-205.704 88.38-94.37h92v92.266l-236 207.808zM345.662 739.904l-146.36-586.966 219.486-220.122 219.486 220.124-146.306 586.966h-146.306zM327.366 813.27h182.896c10.066 0 18.296 8.226 18.296 18.322v110.060c0 10.094-8.23 18.348-18.296 18.348h-182.896c-10.118 0-18.294-8.254-18.294-18.348v-110.062c0-10.096 8.178-18.32 18.294-18.32z" />
<glyph unicode="&#x66;" d="M931.846 524.476l-30.59-366.99h91.726l-30.592 366.99h-30.546zM206.188 484.418v-187.418c195.854-81.098 415.812-81.098 611.624 0v187.418l-305.812-82.302-305.81 82.302zM1023.57 600.906l-511.57 137.612-511.57-137.612 511.57-137.61 511.57 137.61z" />
<glyph unicode="&#x67;" d="M1008.716 321.006l-17.16 51.966c-12.106 36.702-30.716 69.802-53.8 98.586l2.316-1.158c-32.648 30.2-121.768 150.038-159.822 439.228-1.096 8.244-4.768 23.44-16.196 24.792 0 0-95.722 11.010-111.078-73.408 0 0-25.918-96.010 38.538-239.48-5.602 1.354-11.332 2.382-17.32 2.382h-514.472c-37.092 0-67.388-27.818-67.388-61.818s30.296-61.818 67.388-61.818h298.012c-5.022-17.774-8.404-36.446-8.404-56.152h-381.984c-37.092 0-67.42-27.818-67.42-61.752 0-34 30.33-61.818 67.42-61.818h378.184c0.064-14.876 1.32-29.88 3.798-45.076v-11.076h-334.558c-37.090 0-67.388-27.818-67.388-61.754 0-34 30.296-61.818 67.388-61.818h334.558c0-24.726 4.314-48.294 12.040-69.802l-169.29-8.822c-37.092 0-67.42-16.612-67.42-50.55 0-34 30.33-50.548 67.42-50.548h430.404c5.28 0 10.336 0.708 15.294 1.74 32.26-3.284 65.134-1.288 97.328 7.534 145.948 39.86 224.092 197.624 173.606 350.622z" />
<glyph unicode="&#x68;" d="M1023.888 448.028c0 261.304-195.964 476.452-448.918 507.598-8.068 3.724-16.928 4.628-25.73 2.37-12.414 0.902-24.714 1.862-37.24 1.862-12.584 0-24.884-0.96-37.298-1.862-8.858 2.2-17.662 1.354-25.674-2.37-252.954-31.148-448.916-246.294-448.916-507.598 0-260.908 195.342-475.722 447.676-507.374 5.474-2.822 11.454-4.514 17.716-4.514 3.668 0 7.334 0.732 11.060 1.806 11.736-0.79 23.416-1.806 35.436-1.806s23.868 1.016 35.604 1.86c3.61-1.128 7.334-1.806 11.004-1.806 6.15 0 12.072 1.692 17.434 4.458 252.39 31.544 447.846 246.408 447.846 507.376zM98.574 448.028c0 41.076 6.208 80.688 17.436 118.098h206.516c-8.632-72.338-11.228-152.010-3.162-236.252h-203.354c-11.228 37.466-17.436 77.076-17.436 118.154zM403.664 566.126h220.68c8.462-84.356 5.304-164.254-3.894-236.252h-220.79c-8.464 84.356-5.248 164.312 4.004 236.252zM704.634 566.126h203.412c11.172-37.41 17.38-77.022 17.38-118.098s-6.208-80.688-17.38-118.154h-206.572c8.632 72.394 11.228 152.066 3.16 236.252zM875.49 644.894h-181.52c-11.23 64.042-29.116 129.948-55.692 196.698 101.96-32.84 186.768-104.048 237.212-196.698zM544.782 859.76c33.572-72.45 55.298-144.73 68.332-214.866h-196.698c19.072 95.81 46.438 171.192 64.72 215.034 10.27 0.678 20.484 1.524 30.866 1.524 11.058 0 21.948-0.846 32.78-1.692zM389.164 842.832c-18.564-50.218-39.498-117.928-54.508-197.938h-186.088c51.008 93.722 137.112 165.664 240.596 197.938zM148.568 251.162h181.462c11.228-64.1 29.17-129.946 55.804-196.698-102.016 32.784-186.88 103.992-237.266 196.698zM479.274 36.24c-33.572 72.506-55.238 144.73-68.33 214.924h196.698c-19.13-95.81-46.494-171.194-64.774-215.036-10.27-0.732-20.428-1.524-30.866-1.524-11.060 0-21.894 0.788-32.726 1.636zM634.836 53.222c18.62 50.22 39.498 117.984 54.562 197.938h186.090c-50.952-93.722-137.168-165.72-240.654-197.938z" />
<glyph unicode="&#x69;" d="M0.826 489.23h98.918v164.87h-98.918v-164.87zM924.208 654.1v-164.87h98.966v164.87h-98.966zM512 868.476c-209.46 0-379.27-36.912-379.27-82.446v-626.6h65.976v-98.916c0-18.242 14.746-32.988 32.988-32.988h65.928c18.244 0 32.988 14.746 32.988 32.988v98.916h362.774v-98.916c0-18.242 14.746-32.988 32.988-32.988h65.93c18.242 0 32.988 14.746 32.988 32.988v98.916h65.976v626.6c0.002 45.534-169.808 82.446-379.268 82.446zM264.636 241.9c-36.39 0-65.93 29.586-65.93 65.93 0 36.484 29.538 65.966 65.93 65.966 36.438 0 65.976-29.48 65.976-65.966 0-36.344-29.536-65.93-65.976-65.93zM495.506 522.192h-296.798v197.882h296.798v-197.882zM759.364 241.9c-36.438 0-65.976 29.586-65.976 65.93 0 36.484 29.538 65.966 65.976 65.966 36.39 0 65.93-29.48 65.93-65.966 0-36.344-29.538-65.93-65.93-65.93zM825.294 522.192h-296.798v197.882h296.798v-197.882z" />
<glyph unicode="&#x6a;" d="M584.092 832.89v18.716h36.136v108.332h-216.766v-108.332h36.138v-18.742c-214.644-34.842-379.17-220.958-379.17-445.23 0-249.020 202.526-451.572 451.546-451.572 249.070 0 451.598 202.552 451.598 451.572 0 224.376-164.682 410.544-379.48 445.256zM511.974 36.394c-193.624 0-351.214 157.566-351.214 351.24s157.592 351.214 351.214 351.214c193.674 0 351.266-157.54 351.266-351.214s-157.592-351.24-351.266-351.24zM439.598 391.726l69.166-69.218 185.856 300.428-11.856 11.88z" />
<glyph unicode="&#x6b;" d="M511.985 956.040c-281.239 0-509.163-227.899-509.163-509.14 0-281.262 227.923-509.181 509.163-509.181 281.25 0 509.183 227.927 509.183 509.181 0.002 281.241-227.935 509.14-509.183 509.14zM795.659 190.602l-27.379-27.379-256.281 256.279-256.283-256.279-27.38 27.379 256.283 256.279-256.281 256.281 27.38 27.379 256.281-256.281 256.277 256.281 27.382-27.38-256.279-256.279 256.279-256.279z" />
<glyph unicode="&#x6c;" d="M353.264 308.678l-74.361 21.346-74.898-185.386 142.24 60.529 60.238-142.321 76.012 188.111-62.841-18.826-66.391 76.547zM745.917 327.96l-69.075-20.273-64.824-75.558-71.347 20.974 76.878-190.259 60.241 142.321 142.197-60.529-74.070 183.324zM641.788 364.418l74.813 22.007 11.19 77.251 51.073 58.96-32.41 70.976 11.066 77.251-65.526 42.238-32.452 70.933h-78.035l-65.732 42.24-65.608-42.24h-78.077l-32.412-70.933-65.691-42.238 11.19-77.251-32.453-70.976 51.073-58.96 11.107-77.251 74.856-22.007 51.157-59.003 74.856 22.007 74.856-22.007 51.159 59.003z" />
<glyph unicode="&#x6d;" d="M888.395 646.013v-396.183l-25.265-4.060v480.397c-135.717-4.142-264.195-25.96-351.188-80.115-86.996 54.155-215.471 75.974-351.188 80.115v-480.397l-25.265 4.060v396.183h-41.613v-444.566h315.562c51.513 0 57.166-31.616 102.503-31.616 45.422 0 50.894 31.616 102.507 31.616h315.671v444.566h-41.725zM477.449 251.308c-67.805 26.906-149.998 44.216-249.746 51.713v350.211c81.918-6.872 179.928-23.52 249.746-66.955v-334.968zM796.176 303.022c-99.748-7.497-181.944-24.809-249.746-51.713v334.961c69.82 43.435 167.828 60.087 249.746 66.957v-350.206z" />
<glyph unicode="&#x6e;" d="M930.755 786.851h-842.316v-677.703h847.115v677.703h-4.799zM126.283 146.993v514.32h771.426v-514.321h-771.426z" />
<glyph unicode="&#x6f;" d="M482.35 517.898v-0.805c0-10.261 5.494-16.197 26.901-22.099v42.701c-19.349-1.615-26.901-9.494-26.901-19.796zM546.009 419.502v-43.382c18.136 1.894 26.498 8.601 26.498 20.075v0.807c0.002 10.664-5.979 16.603-26.498 22.5zM89.196 673.499v-450.999h845.603v450.999h-845.603zM640.772 401.366c0-48.234-37.082-77.839-93.187-82.969v-38.739h-41.123v39.542c-38.692 3.963-77.068 17.773-106.678 39.1l35.546 52.556c25.285-17.813 49.040-28.437 73.52-32.395v47.423c-63.58 14.622-96.015 36.312-96.015 85.312v0.807c0 46.612 34.010 79.012 94.479 83.332v22.581h41.039v-23.794c32.433-3.477 59.665-14.582 83.373-30.78l-32.355-52.917c-16.197 11.434-35.225 19.351-52.956 23.715v-45.847c62.811-14.627 94.36-37.163 94.36-86.161v-0.765z" />
<glyph unicode="&#x70;" d="M675.83 960h-573.43v-1024h819.2v778.23l-245.77 245.77zM634.86 878.060h40.97l40.97-122.86 122.86-40.97v-40.97h-204.8v204.8zM854.62 196.178h-691.231v345.559h691.231v-345.559zM287.304 321.618h32.399c43.5 0 78.356 23.194 78.356 68.055v0.543c0 39.557-27.945 67-74.189 67h-79.186v-193.761h42.619v58.163zM287.304 418.714h32.993c21.309 0 34.57-10.209 34.57-29.317v-0.553c0-16.65-12.442-29.358-33.751-29.358h-33.812v59.228zM674.355 338.504h92.447v38.707h-92.447v41.226h104.95v38.779h-147.507v-193.761h42.557v75.049zM600.986 360.335v0.563c0 54.518-42.086 96.317-102.963 96.317h-75.612v-193.761h75.612c60.877 0.010 102.963 42.322 102.963 96.881zM465.101 418.714h32.932c34.867 0 58.409-24.074 58.409-58.368v-0.543c0-34.355-23.542-57.866-58.409-57.866h-32.932v116.777z" />
<glyph unicode="&#x71;" d="M675.83 960h-573.43v-1024h819.2v778.26l-245.77 245.74zM839.66 673.29h-204.8v204.8h40.97l40.97-122.921 122.86-40.909v-40.97z" />
<glyph unicode="&#x72;" d="M814.602 446.556l-219.617 192.809c-6.482 5.693-16.466 6.543-23.869 1.946-7.455-4.649-11.049-13.814-8.745-22.272l51.763-190.945c0.881-3.174 2.529-6.103 4.741-8.417l82.248-87.572c3.768-4.024 9.103-6.318 14.623-6.318h85.617c11.059 0 20.060 9.001 20.060 20.060v85.637c0 5.755-2.478 11.244-6.82 15.073zM724.419 365.906l-72.888 77.578-33.014 121.805 162.775-142.92v-56.474h-56.873zM514.468 725.217c-2.243 8.95-10.24 15.196-19.466 15.196h-136.161c-9.226 0-17.234-6.246-19.466-15.196l-136.202-544.655c-1.7-6.799 0.328-14.1 5.284-19.046l204.268-204.278c3.799-3.789 8.827-5.868 14.182-5.868 5.284 0 10.455 2.14 14.182 5.878l204.257 204.268c4.966 4.966 6.994 12.288 5.274 19.046l-136.151 544.655zM479.334 700.283l129.597-518.431-182.036-182.057-182.036 182.057 129.649 518.431h104.827zM341.821 768.358h170.209c20.46 0 37.1 16.63 37.1 37.059v102.134c0 20.449-16.64 37.089-37.1 37.089h-170.209c-20.46 0-37.1-16.64-37.1-37.089v-102.134c0-20.429 16.64-37.059 37.1-37.059zM344.863 808.499v96.010h164.137v-96.010h-164.137z" />
<glyph unicode="&#x73;" d="M227 848.507l57.549-8.98 67.256-220.047c4.608-15.288 18.432-25.559 34.365-25.559l232.561-0.573c2.611 0 5.212 0.307 7.547 0.87 11.469 2.58 20.941 10.609 25.293 21.33l66.939 161.126c4.577 11.090 3.328 23.706-3.369 33.823-6.676 9.953-17.848 15.923-29.921 15.995l-321.434 0.225-16.927 55.368c-3.953 13.158-15.319 23.030-28.928 25.149l-79.677 12.493c-19.835 3.246-38.328-10.772-41.277-30.003-3.082-19.548 10.332-38.042 30.024-41.216zM390.124 635.136l-45.947 150.364 333.302-0.215-62.597-150.682-224.758 0.532zM569.446 571.597c-3.185 0-6.38-0.287-9.492-0.87-28.14-5.222-46.797-32.358-41.595-60.529 4.608-24.576 26.061-42.435 51.016-42.435 3.164 0 6.349 0.287 9.482 0.87 28.16 5.253 46.787 32.399 41.564 60.508-4.536 24.596-25.969 42.455-50.975 42.455zM434.76 570.163c-3.205 0-6.431-0.307-9.564-0.881-13.599-2.509-25.416-10.189-33.28-21.606-7.875-11.448-10.813-25.252-8.274-38.892 4.567-24.566 26.010-42.414 50.964-42.414v0c3.174 0 6.359 0.287 9.503 0.87 13.65 2.54 25.498 10.22 33.341 21.637s10.772 25.221 8.243 38.861c-4.557 24.586-25.969 42.424-50.934 42.424zM243.374 86.159c-3.236 0-6.482-0.307-9.615-0.891-13.619-2.519-25.446-10.189-33.29-21.647-7.844-11.397-10.772-25.18-8.264-38.799 4.567-24.586 25.989-42.445 50.975-42.445 3.195 0 6.4 0.276 9.554 0.891 13.619 2.519 25.436 10.199 33.28 21.627 7.864 11.407 10.783 25.201 8.253 38.789-4.536 24.617-25.938 42.476-50.893 42.476zM378.020 87.583c-3.195 0-6.4-0.276-9.564-0.881-28.119-5.243-46.756-32.348-41.533-60.457 4.567-24.596 25.989-42.455 50.964-42.465 0 0 0 0 0 0 3.185 0 6.41 0.307 9.554 0.891 13.619 2.55 25.436 10.23 33.28 21.647 7.854 11.448 10.783 25.242 8.243 38.84-4.547 24.586-25.989 42.424-50.944 42.424zM493.763 342.487l-321.372 0.215-16.988 55.501c-4.055 13.24-15.104 22.856-28.887 25.037l-79.852 12.493c-19.896 3.052-38.154-10.926-41.093-30.013-3.103-19.497 10.312-38.011 30.013-41.226l57.518-8.96 67.236-220.017c4.608-15.309 18.463-25.58 34.427-25.58l232.55-0.594c2.529 0 5.11 0.307 7.639 0.881 11.397 2.632 20.849 10.609 25.252 21.32l66.877 161.116c4.506 10.977 3.297 23.562-3.471 34.028-6.799 9.902-17.961 15.8-29.85 15.8zM198.656 151.153l-46.039 150.333 333.384-0.215-62.546-150.661-224.799 0.543zM732.436 86.17c-3.195 0-6.461-0.317-9.585-0.891-13.619-2.529-25.457-10.199-33.321-21.658-7.854-11.418-10.783-25.211-8.253-38.799 4.536-24.586 25.969-42.445 50.924-42.455 3.174 0 6.39 0.287 9.533 0.901 13.681 2.519 25.528 10.209 33.393 21.668 7.823 11.397 10.742 25.18 8.212 38.789-4.557 24.596-25.979 42.445-50.903 42.445zM867.144 87.593c-3.174 0-6.4-0.287-9.544-0.891-28.15-5.243-46.797-32.338-41.585-60.477 4.577-24.586 26.030-42.455 50.964-42.455 3.174 0 6.39 0.297 9.533 0.881 13.65 2.55 25.487 10.24 33.331 21.658 7.844 11.448 10.752 25.252 8.223 38.81-4.526 24.607-25.938 42.476-50.924 42.476zM1012.777 326.513c-6.697 10.015-17.9 15.985-29.921 15.985l-321.423 0.215-16.927 55.347c-3.983 13.332-15.053 22.999-28.928 25.19l-79.657 12.472c-20.265 3.287-38.287-10.476-41.288-29.993-3.113-19.497 10.301-38.011 29.993-41.226l57.569-8.97 67.236-219.986c4.608-15.329 18.442-25.6 34.376-25.6l232.571-0.594c2.775 0 5.345 0.317 7.629 0.881 11.387 2.632 20.849 10.629 25.211 21.32l66.949 161.116c4.557 11.069 3.328 23.675-3.389 33.843zM687.77 151.153l-45.937 150.333 333.292-0.215-62.587-150.661-224.768 0.543z" />
<glyph unicode="&#x74;" d="M511.816 447.805l0.389 0.389c-0.154-0.061-0.266-0.133-0.42-0.195l0.031-0.195zM794.819 306.483l-144.62 42.066c33.27 38.973 52.634 92.59 67.656 147.436 29.798 3.021 54.999 37.171 60.795 83.466 5.089 41.544-7.485 77.128-30.29 91.402-2.284 65.751-25.631 124.017-66.427 165.192-41.974 42.363-100.741 64.758-169.933 64.758-74.875 0-136.253-25.743-177.531-74.445-34.181-40.325-53.504-94.413-56.218-157-21.699-15.022-33.311-49.736-28.447-89.938 5.202-41.902 26.378-73.871 52.5-81.766 12.595-50.934 31.887-108.534 68.649-150.006l-124.047-36.403c-118.866-29.85-241.787-60.723-241.787-191.14v-105.021c0-10.977 8.899-19.876 19.876-19.876h360.745c7.946 0 15.135 4.741 18.268 12.042l83.036 193.731c3.205 7.465 1.536 16.128-4.209 21.883l-44.759 44.759 26.020 26.061c16.384-3.84 31.857-5.663 47.892-5.663 16.886 0 32.737 1.782 48.087 5.407l25.815-25.815-44.728-44.749c-5.755-5.755-7.424-14.408-4.209-21.883l83.016-193.731c3.133-7.301 10.322-12.042 18.258-12.042h360.755c10.977 0 19.876 8.899 19.876 19.876v105.021c0.020 124.16-108.81 154.378-224.041 186.378zM979.118 34.949h-327.782l-72.54 169.308 49.275 49.285c7.762 7.772 7.762 20.347 0 28.109l-47.995 48.005c-5.181 5.192-12.841 7.066-19.825 4.966-15.227-4.628-31.007-6.871-48.261-6.871-15.954 0-31.365 2.263-48.507 7.117-6.932 1.987-14.387 0.010-19.487-5.079l-48.087-48.148c-7.752-7.762-7.752-20.337 0-28.099l49.285-49.295-72.571-169.298h-327.752v85.146c0 94.618 80.445 119.634 212.47 152.812l158.464 46.469c7.25 2.13 12.677 8.192 13.978 15.626 1.311 7.465-1.72 15.002-7.823 19.466-38.164 27.965-64.154 79.196-84.275 166.093-1.434 6.205-5.806 11.325-11.684 13.804-3.686 1.546-7.721 1.935-11.53 1.178-6.175 0.778-21.32 17.347-25.211 48.712-3.881 32.072 7.455 51.784 13.138 53.135 8.899 2.12 15.206 10.025 15.288 19.18 0.399 47.974 15.575 204.472 194.314 204.472 58.348 0 107.346-18.319 141.691-52.972 36.076-36.424 55.654-89.866 55.091-150.497-0.082-9.953 7.209-18.442 17.060-19.855 5.673-0.819 17.367-20.552 13.363-53.371-4.035-32.184-19.773-48.794-26.030-48.794 0 0-0.010 0-0.020 0-0.195 0.020-0.625 0.164-1.249 0.461-5.345 2.611-11.602 2.693-17.029 0.195-5.417-2.499-9.431-7.301-10.926-13.076-17.306-66.959-39.526-133.693-84.326-168.325-5.919-4.557-8.755-12.073-7.373-19.415 1.393-7.352 6.769-13.292 13.947-15.391l161.239-47.155 16.753-4.669c124.498-34.57 194.939-58.501 194.939-148.070v-85.156z" />
<glyph unicode="&#x75;" d="M632.125 419.133c34.263 32.758 54.323 78.387 54.323 127.171 0 97.219-79.104 176.323-176.333 176.323-97.321 0-176.507-79.104-176.507-176.323 0-49.183 20.357-95.119 55.091-127.918-81.971-20.204-173.66-80.302-173.66-153.149v-68.588c0-12.841 10.445-23.276 23.276-23.276h547.379c12.841 0 23.265 10.445 23.265 23.276v68.588c0 73.81-94.239 134.451-176.835 153.897zM771.727 210.606h-519.455v54.63c0 58.102 105.964 119.583 185.057 123.064 8.397 0.369 15.514 6.318 17.347 14.531 1.843 8.202-2.048 16.62-9.482 20.541-45.865 24.177-74.342 71.281-74.342 122.931 0 76.687 62.474 139.090 139.274 139.090 76.698 0 139.1-62.392 139.1-139.090 0-51.538-28.406-98.601-74.138-122.839-7.485-3.973-11.346-12.503-9.4-20.746 1.966-8.253 9.247-14.141 17.715-14.316 78.746-1.679 188.334-64.061 188.334-123.156v-54.641zM906.209 425.595c27.965 29.798 43.899 69.202 43.899 111.135 0 90.593-109.865 163.553-200.817 163.553-16.036 0-32.44-2.785-50.135-8.53-7.188-2.324-12.82-8.018-15.032-15.135-2.273-7.188-0.911-15.053 3.625-21.053 24.136-31.918 36.905-69.704 36.905-109.271 0-35.43-10.363-69.919-30.003-99.779-3.891-5.929-4.854-13.199-2.632-20.050 2.222-6.707 7.291-11.991 13.947-14.51 68.229-25.477 141.138-77.425 141.138-146.729v-42.527c0-12.841 10.445-23.265 23.265-23.265h130.345c12.831 0 23.265 10.435 23.265 23.265v62.874c0.020 61.737-50.094 118.61-117.77 140.022zM986.757 236.667h-102.41v28.57c0 82.657-74.742 143.473-149.78 175.401 17.92 32.389 27.32 68.588 27.32 105.656 0 40.909-11.284 80.21-32.799 114.801 6.973 1.3 13.67 1.946 20.204 1.946 72.11 0 163.584-59.474 163.584-126.31 0-42.998-21.75-82.575-58.204-105.861-6.687-4.28-9.933-12.319-8.069-20.040 1.853-7.731 8.407-13.425 16.312-14.182 67.144-6.472 123.853-57.334 123.853-111.073v-48.906zM332.022 422.246c2.181 6.738 1.208 13.998-2.693 19.978-19.61 29.819-29.983 64.307-29.983 99.748 0 39.567 12.759 77.353 36.895 109.251 4.547 6.001 5.908 13.875 3.666 20.961-2.232 7.219-7.875 12.913-15.043 15.227-17.715 5.745-34.12 8.53-50.156 8.53-90.962 0-200.817-72.96-200.817-163.553 0-41.933 15.933-81.336 43.899-111.145-67.686-21.391-117.791-78.275-117.791-139.991v-62.884c0-12.831 10.445-23.265 23.276-23.265h130.345c12.831 0 23.265 10.445 23.265 23.265v42.527c0 69.325 72.909 121.252 141.189 146.749 6.615 2.509 11.684 7.793 13.947 14.602zM289.423 436.306c-75.059-31.959-149.77-92.764-149.77-175.411v-28.559h-102.42v48.906c0 53.729 56.719 104.602 123.853 111.063 7.905 0.758 14.459 6.451 16.312 14.182 1.864 7.721-1.382 15.759-8.079 20.050-36.444 23.276-58.204 62.853-58.204 105.861 0 66.836 91.484 126.31 163.584 126.31 6.523 0 13.22-0.635 20.204-1.946-21.524-34.591-32.799-73.892-32.799-114.79 0.010-37.089 9.411-73.298 27.32-105.667z" />
<glyph unicode="&#x76;" d="M885.371 352.492h-67.164c-10.271 0-18.616-8.346-18.616-18.616v-337.879c0-10.271 8.346-18.616 18.616-18.616h67.164c10.26 0 18.616 8.346 18.616 18.616v337.869c0 10.271-8.356 18.627-18.616 18.627zM876.063 5.294h-48.538v319.283h48.538v-319.283zM621.998 352.492h-80.906c-10.486 0-19.016-8.346-19.016-18.616v-217.876h-290.529v217.866c0 10.271-8.53 18.616-19.026 18.616h-73.533c-10.486 0-19.026-8.346-19.026-18.616v-337.879c0-10.271 8.54-18.616 19.026-18.616h483.011c10.486 0 19.026 8.346 19.026 18.616v337.879c0.010 10.271-8.53 18.627-19.026 18.627zM613.1 5.294h-465.213v319.283h55.726v-236.503h346.378v236.493h63.099v-319.273zM1005.384 516.782h-202.742c-10.26 0-18.606-8.346-18.606-18.616 0-66.161 53.811-119.992 119.962-119.992 66.171 0 120.013 53.832 120.013 119.992-0.010 10.271-8.366 18.616-18.627 18.616zM903.987 406.108c-47.606 0-86.886 36.342-91.566 82.749h183.194c-4.69-46.408-43.991-82.749-91.628-82.749zM750.234 516.782h-202.742c-10.26 0-18.616-8.346-18.616-18.616 0-66.161 53.832-119.992 120.003-119.992 66.161 0 119.972 53.832 119.972 119.992-0.010 10.271-8.356 18.616-18.616 18.616zM648.868 406.108c-47.626 0-86.917 36.342-91.607 82.749h183.194c-4.68-46.408-43.971-82.749-91.587-82.749zM476.457 516.782h-202.68c-10.271 0-18.616-8.346-18.616-18.616 0-66.161 53.811-119.992 119.962-119.992s119.962 53.832 119.962 119.992c-0.010 10.271-8.356 18.616-18.627 18.616zM375.112 406.108c-47.606 0-86.886 36.342-91.566 82.749h183.132c-4.669-46.408-43.95-82.749-91.566-82.749zM239.974 498.166c0 10.26-8.346 18.616-18.616 18.616h-202.742c-10.26 0-18.616-8.346-18.616-18.616 0-66.161 53.811-119.992 119.951-119.992 66.191 0.010 120.023 53.832 120.023 119.992zM28.396 488.858h183.183c-4.69-46.408-43.981-82.749-91.617-82.749-47.606 0-86.886 36.342-91.566 82.749zM802.642 531.937h202.742c5.612 0 10.854 2.488 14.408 6.83 3.533 4.321 4.936 9.953 3.84 15.452l-53.012 264.95c-9.667 48.456-57.764 87.89-107.223 87.89h-94.556c-5.263 0-10.301-2.232-13.804-6.113-3.543-3.912-5.263-9.165-4.71-14.356l33.802-337.879c0.942-9.564 8.899-16.773 18.514-16.773zM863.396 879.135c36.198 0 72.755-29.972 79.841-65.444l50.78-253.819h-182.948l-31.939 319.263h84.265zM547.492 531.937h202.742c5.263 0 10.301 2.243 13.804 6.124 3.543 3.912 5.263 9.165 4.71 14.356l-33.812 337.869c-0.932 9.564-8.899 16.773-18.504 16.773h-168.94c-10.26 0-18.616-8.346-18.616-18.616v-337.889c-0.010-10.271 8.356-18.616 18.616-18.616zM556.8 879.135h151.204l31.939-319.263h-183.142v319.263zM259.953 538.081c3.523-3.901 8.561-6.144 13.824-6.144h202.68c10.26 0 18.616 8.346 18.616 18.616v337.889c0 10.26-8.346 18.616-18.616 18.616h-168.94c-9.605 0-17.582-7.209-18.534-16.763l-33.741-337.869c-0.522-5.243 1.198-10.476 4.71-14.346zM315.945 879.135h151.204v-319.263h-183.091l31.887 319.263zM18.616 531.937h202.732c9.605 0 17.582 7.209 18.534 16.763l33.802 337.879c0.522 5.233-1.198 10.465-4.71 14.336-3.523 3.901-8.561 6.144-13.824 6.144h-94.566c-49.428 0-97.536-39.424-107.233-87.89l-52.992-264.97c-1.085-5.478 0.317-11.11 3.881-15.462 3.553-4.321 8.796-6.799 14.377-6.799zM80.742 813.691c7.096 35.471 43.663 65.444 79.841 65.444h84.275l-31.939-319.263h-182.948l50.77 253.819z" />
<glyph unicode="&#x77;" d="M724.111 199.045c-72.018-74.291-180.89-116.9-298.711-116.9-55.327 0-109.24 9.667-160.236 28.754-5.304 1.966-11.192 1.823-16.343-0.42l-136.53-59.095 28.18 119.378c1.772 7.465-0.573 15.432-6.103 20.767-55.132 53.115-85.484 120.259-85.484 189.041 0 69.458 30.956 137.175 87.163 190.689l1.157 1.096 0.317 1.567c3.82 19.282 9.769 38.502 17.695 57.119l7.014 16.486-14.551-10.435c-90.604-64.963-142.561-158.464-142.561-256.512 0-76.472 31.867-151.542 89.733-211.405l0.225-0.236-35.369-149.934c-1.925-8.090 0.85-16.445 7.229-21.78 3.922-3.287 8.919-5.13 14.070-5.13 2.99 0 5.908 0.625 8.673 1.812l168.54 72.96 0.215-0.082c53.33-18.852 109.507-28.396 166.984-28.396 132.813 0 259.359 52.244 338.545 139.745l4.69 5.171-42.107 18.248-2.437-2.509zM929.024 349.716l-0.082 0.317 0.225 0.225c57.836 59.894 89.713 134.973 89.713 211.415 0 188.692-188.549 342.211-420.27 342.211-231.782 0-420.342-153.518-420.342-342.211 0-188.682 188.559-342.19 420.342-342.19 57.426 0 113.623 9.554 166.953 28.385l0.236 0.082 168.499-72.929c2.796-1.208 5.724-1.812 8.724-1.812 5.11 0 10.097 1.812 14.029 5.1 6.38 5.345 9.155 13.701 7.24 21.78l-35.267 149.627zM598.61 860.129c207.606 0 376.515-133.878 376.515-298.445 0-68.772-30.351-135.916-85.484-189.051-5.53-5.325-7.885-13.271-6.113-20.756l28.17-119.378-136.499 59.095c-2.775 1.208-5.714 1.812-8.714 1.812-2.591 0-5.181-0.461-7.67-1.382-50.985-19.077-104.878-28.754-160.215-28.754-207.647 0-376.576 133.857-376.576 298.424 0.010 164.557 168.94 298.435 376.586 298.435z" />
<glyph unicode="&#x78;" d="M511.795 447.785l0.43 0.43c-0.174-0.061-0.297-0.154-0.471-0.215l0.041-0.215zM320.614 660.122c-1.546-5.734 0.051-11.807 4.28-16.036l79.954-80.026-17.715-111.688c-0.942-5.919 1.321-11.766 5.949-15.524l-0.287-1.853 1.669 0.84c2.703-1.751 5.816-2.693 9.073-2.693 2.591 0 5.181 0.625 7.506 1.802l101.038 51.292 100.669-51.231c5.181-2.703 11.766-2.365 16.671 0.819l1.659-0.829-0.297 1.843c4.639 3.727 6.912 9.585 5.99 15.473l-17.49 111.739 79.831 80.036c4.239 4.239 5.827 10.312 4.301 16.046l-0.532 1.608c-2.099 5.53-6.984 9.513-12.882 10.455l-111.831 17.889-51.302 100.782c-2.734 5.315-7.997 8.714-13.906 9.021l-0.85 1.69-0.86-1.679c-5.908-0.297-11.192-3.686-13.926-9.021l-51.579-100.792-111.739-17.889c-5.898-0.942-10.752-4.915-12.861-10.455l-1.853-0.297 1.321-1.321zM459.274 658.637c5.222 0.829 9.769 4.127 12.175 8.827l40.602 79.34 40.366-79.309c2.396-4.7 6.953-8.008 12.165-8.858l88.125-14.090-62.843-62.986c-3.738-3.727-5.489-9.073-4.69-14.305l13.793-87.982-79.35 40.376c-4.618 2.355-10.373 2.365-15.053 0.010l-79.575-40.387 13.937 87.921c0.84 5.233-0.881 10.598-4.649 14.346l-62.966 63.027 87.962 14.070zM512.123 954.307c-186.399 0-338.043-151.542-338.043-337.807 0-120.556 64.512-232.172 168.714-292.567l150.979-370.248c2.693-6.615 8.622-11.141 15.544-12.063l2.673-6.554 2.673 6.554c6.922 0.922 12.851 5.448 15.534 12.042l151.112 370.166c104.131 60.406 168.612 172.052 168.612 292.669 0 186.266-151.552 337.807-337.797 337.807zM512.123 914.975c164.557 0 298.455-133.898 298.455-298.476 0-108.79-59.156-209.070-154.388-261.683-3.953-2.161-7.045-5.663-8.714-9.789l-135.475-331.878-135.342 331.909c-1.7 4.198-4.813 7.69-8.724 9.841-95.314 52.623-154.522 152.873-154.522 261.591 0 164.588 134.001 298.486 298.711 298.486z" />
<glyph unicode="&#x79;" d="M527.401 946.698c-543.396 12.954-740.239-708.536-211.507-944.732 70.052-30.392 135.25-38.564 211.507-38.564 271.534 0 491.694 220.109 491.694 491.653s-212.337 484.977-491.694 491.643zM529.091 4.997c-82.319-1.3-155.269 13.312-236.268 55.245-393.185 198.728-285.952 837.673 236.268 844.841 66.857 0.911 130.181-15.063 187.238-41.298-65.966 20.91-157.286 9.103-157.286 9.103-83.251-15.626-130.068-98.847-46.807-140.483 67.604-36.475 135.229 5.151 197.714-52.050 62.474-57.252 52.050-124.908-36.454-104.1-57.231 10.435-83.19 67.656-150.845 52.050-62.464-15.596-140.534-93.676-114.514-161.331 20.849-67.604 109.271-62.413 150.907-93.614 124.928-78.1 15.37-134.154 67.42-222.587 57.231-104.079 192.809 82.063 224.020 144.486 25.958 57.262 25.958 124.897 52.060 182.17 15.114 39.434 42.568 54.129 67.041 69.786 6.195-29.798 9.574-60.6 9.574-92.17-0.010-248.187-201.964-446.126-450.068-450.048zM511.816 447.805l0.389 0.389c-0.154-0.061-0.266-0.133-0.42-0.195l0.031-0.195z" />
<glyph unicode="&#x7a;" d="M482.335 588.104l0.164 0.164c-0.061-0.020-0.113-0.051-0.174-0.082l0.010-0.082zM938.783 641.587c-51.702 51.702-120.453 80.189-193.638 80.189-93.819 0-181.821-48.978-231.741-128.379h-409.989c-5.304 0-10.301-2.068-14.049-5.816l-78.428-78.438c-3.748-3.748-5.816-8.745-5.816-14.049v-94.085c0-5.294 2.068-10.281 5.816-14.029l78.469-78.51c7.506-7.496 20.603-7.496 28.109 0l80.056 80.056 80.097-80.056c7.506-7.496 20.613-7.496 28.119 0l80.056 80.056 79.053-79.012c3.758-4.372 9.267-6.912 15.063-6.912h33.382c49.91-79.411 137.912-128.369 231.793-128.369 150.948 0.041 273.746 122.839 273.746 273.766 0.041 73.134-28.396 141.875-80.097 193.587zM745.144 213.975c-83.753 0-161.628 45.373-203.274 118.395-3.553 6.185-10.148 10.015-17.275 10.015h-36.332l-88.381 88.31c-7.496 7.526-20.593 7.526-28.109 0l-80.056-80.056-80.097 80.056c-7.516 7.526-20.603 7.526-28.109 0l-80.067-80.046-58.573 58.624v77.609l66.775 66.785h413c7.137 0 13.752 3.84 17.285 10.025 41.646 73.001 119.501 118.344 203.213 118.344 62.536 0 121.344-24.34 165.519-68.526 44.196-44.186 68.495-102.943 68.465-165.468-0.010-129.044-104.98-234.035-233.984-234.066zM896.010 507.095c-15.759 15.811-36.762 24.515-59.105 24.515-46.070 0-83.558-37.489-83.599-83.62 0.072-46.019 37.56-83.517 83.589-83.569h0.010c46.029 0 83.497 37.519 83.497 83.589 0.010 22.313-8.643 43.295-24.392 59.085zM836.925 396.288c-28.477 0.031-51.712 23.255-51.763 51.712 0.020 28.529 23.265 51.732 51.794 51.732 13.793 0 26.757-5.376 36.495-15.145s15.124-22.753 15.104-36.567c0-28.518-23.173-51.732-51.63-51.732z" />
<glyph unicode="&#x7b;" d="M512 954.88c-279.491 0-506.88-227.389-506.88-506.88 0-279.501 227.389-506.88 506.88-506.88 279.501 0 506.88 227.379 506.88 506.88 0 358.195-330.138 506.88-506.88 506.88zM770.273 513.28c12.605-18.76 23.46-38.636 32.287-59.136-30.904-16.456-50.616-48.927-50.616-84.050 0-18.442 5.263-36.198 15.268-51.63-40.735-39.27-88.054-72.1-140.728-97.669-35.031-17.009-71.731-30.31-109.148-39.537-14.664 35.369-49.439 58.808-87.91 58.808-17.613 0-34.642-4.803-49.572-13.937-4.014 6.666-7.496 12.943-10.619 19.046-51.108 100.188-57.467 233.216-18.883 395.448 3.215-0.338 6.154-0.502 9.021-0.502 43.090 0 80.087 28.273 91.597 69.345 139.93-28.283 253.215-97.843 319.304-196.188zM524.431 139.264c41.175 9.923 81.705 24.504 120.586 43.366 57.057 27.709 108.37 63.406 152.576 106.138 9.574-5.806 20.275-9.943 31.416-12.093-8.090-78.838-40.049-158.382-95.017-236.524-3.523-1.915-7.066-3.748-10.639-5.56l-0.645 0.082c-81.807 11.489-152.248 33.413-209.459 65.137 6.554 12.175 10.373 25.651 11.182 39.455zM871.24 462.254c-7.834 2.038-15.903 3.072-24.074 3.072-1.004 0-1.987-0.031-3.082-0.092-10.271 24.75-23.255 48.855-38.615 71.711-70.932 105.513-190.167 180.378-337.193 212.101 39.813 8.929 81.080 13.445 122.993 13.445 112.005 0 224.358-31.846 325.151-92.119 1.004-72.755-14.172-142.735-45.179-208.118zM591.329 804.895c-51.722 0-102.584-6.4-151.265-19.046-8.284 13.251-19.64 24.207-33.167 32 17.459 43.868 32.799 76.022 39.69 89.969 21.801 3.092 43.796 4.649 65.413 4.649 102.38 0 254.228-53.012 356.209-168.909-88.228 40.192-183.45 61.338-276.879 61.338zM394.476 897.26c-7.608-16.548-17.705-39.475-28.559-66.888-2.161 0.154-4.332 0.236-6.543 0.236-41.103 0-77.793-26.839-90.47-65.69-35.164-1.628-70.953-5.53-106.629-11.633 61.143 69.878 142.807 120.535 232.202 143.974zM289.116 671.089c5.99-6.543 12.861-12.206 20.49-16.886-41.226-171.366-33.7-319.396 21.821-428.237 4.874-9.544 10.465-19.22 17.48-30.259-5.202-8.233-9.062-17.111-11.54-26.491-93.338 10.557-181.125 47.575-254.29 107.192 8.96 171.295 80.159 307.62 206.039 394.68zM336.026 126.648c8.591-44.196 48.056-77.056 93.399-77.056 19.876 0 38.83 6.083 55.030 17.623 47.073-27.341 102.922-48.312 166.267-62.444-44.882-14.1-91.464-21.238-138.721-21.238-158.157 0-306.227 81.828-391.393 214.876 66.007-39.465 138.373-63.58 215.419-71.762zM819.538 100.372c29.594 59.177 47.237 118.876 52.511 177.848 41.605 11.182 70.359 48.456 70.359 91.884 0 28.078-12.165 54.262-33.526 72.428 22.907 47.974 38.113 98.744 45.251 151.235 14.828-45.517 22.344-94.444 22.344-145.756-0.010-133.908-56.893-259.205-156.938-347.638zM268.175 708.147c-112.538-76.503-186.511-190.495-215.163-331.059-3.635 23.532-5.478 47.278-5.478 70.912 0 90.696 26.317 178.616 76.134 254.392 47.155 10.721 94.7 17.428 141.435 19.948 0.645-4.782 1.679-9.523 3.072-14.193z" />
<glyph unicode="&#x7c;" d="M708.987 723.702v39.383c0 65.014-53.197 118.149-118.252 118.149h-157.43c-65.004 0-118.2-53.135-118.2-118.149v-39.383h78.766v39.383c0 21.422 18.094 39.393 39.475 39.393h157.43c21.391 0 39.383-17.992 39.383-39.393v-39.383h78.828zM866.57 684.319h-709.038c-86.6 0-157.532-70.881-157.532-157.532v-354.488c0-86.661 70.932-157.532 157.532-157.532h709.038c86.579 0 157.43 70.871 157.43 157.532v354.488c0 86.651-70.83 157.532-157.43 157.532z" />
<glyph unicode="&#x7d;" d="M263.148 751.739c2.171 0.174 4.301 0.236 6.38 0.256 18.852 0 38.84-6.42 59.423-19.067 12.012-7.404 24.32-17.132 36.567-28.918 2.099-2.017 5.417-1.987 7.465 0.072l24.248 24.228c1.024 1.014 1.587 2.417 1.567 3.86-0.020 1.454-0.635 2.816-1.7 3.799-16.394 15.278-30.925 26.634-45.732 35.717-29.542 18.135-58.972 27.351-87.48 27.382-4.577 0-9.472-0.276-14.94-0.87-33.802-3.656-59.791-20.91-79.462-52.746-7.301-11.94-11.96-24.392-13.844-37.018-1.864-12.8-1.3-25.784 1.659-38.564 2.847-12.964 6.963-24.34 12.175-33.741 4.833-9.083 15.923-26.542 37.11-58.429 18.924-28.406 29.87-51.825 32.532-69.622 2.642-17.695-1.27-35.205-11.612-52.070-13.967-22.661-32.748-36.004-55.839-39.66-4.383-0.707-8.899-1.075-13.414-1.085-18.872 0-38.717 6.287-58.993 18.719-20.234 12.401-40.468 33.014-60.16 61.266-0.901 1.29-2.324 2.13-3.891 2.263-1.516 0.133-3.113-0.42-4.239-1.526l-25.354-25.19c-1.761-1.751-2.079-4.495-0.758-6.605 16.64-26.593 40.847-49.766 71.967-68.905 27.116-16.691 55.726-25.149 85.033-25.149h0.164c6.984 0 14.326 0.481 21.883 1.454 37.97 5.171 67.604 25.866 90.593 63.273 9.298 15.247 14.664 30.167 16.415 45.65 1.638 15.626 0.481 30.812-3.441 45.107-3.86 14.336-8.858 27.064-14.868 37.827-5.99 10.65-18.77 30.71-39.086 61.368-27.044 40.52-33.638 72.643-19.61 95.447 12.012 19.302 28.57 29.88 49.244 31.478zM603.32 528.62c3.983-4.004 9.411-6.246 15.073-6.246 0.020 0 0.041 0 0.061 0 5.673 0.020 11.11 2.294 15.104 6.328 48.712 49.285 91.208 102.441 126.3 157.983 5.437 8.591 4.045 19.835-3.318 26.839-43.028 40.919-99.645 63.457-159.406 63.457-56.422 0-110.664-20.347-152.75-57.303-4.434-3.891-7.055-9.431-7.24-15.329-0.195-5.898 2.058-11.602 6.226-15.77l159.949-159.959zM597.115 734.341c42.854 0 83.692-14.182 116.756-40.233-27.679-41.728-59.791-81.971-95.754-120.023l-127.539 127.56c31.13 21.207 68.219 32.696 106.537 32.696zM586.035 490.598c0.113 5.796-2.14 11.366-6.236 15.473l-158.853 158.822c-4.301 4.301-10.148 6.615-16.333 6.205-6.083-0.358-11.715-3.308-15.483-8.090-70.441-89.395-64.676-219.3 13.404-302.162 4.147-4.413 9.81-6.707 15.524-6.707 4.055 0 8.141 1.167 11.735 3.553 36.024 23.788 91.177 63.519 149.453 117.688 4.229 3.932 6.697 9.431 6.789 15.217zM421.878 403.753c-47.452 61.235-52.419 146.668-12.984 212.91l124.979-124.948c-42.24-37.714-81.848-67.236-111.995-87.962zM948.050 521.533l-137.667 137.728c-4.557 4.557-10.957 6.82-17.316 6.124-6.41-0.676-12.165-4.219-15.647-9.626-103.076-159.59-243.067-266.394-317.338-315.832-5.315-3.553-8.755-9.288-9.39-15.636-0.635-6.359 1.618-12.657 6.134-17.183l138.342-138.414c46.285-46.285 108.073-71.772 173.957-71.772s127.652 25.487 173.916 71.772l5.007 5.007c95.887 95.887 95.887 251.935 0 347.832zM917.914 203.858l-5.018-4.997c-38.226-38.236-89.293-59.29-143.78-59.29-54.497 0-105.585 21.053-143.821 59.29l-120.146 120.207c76.483 53.484 197.54 151.654 293.478 291.635l119.286-119.306c79.258-79.288 79.258-208.271 0-287.539z" />
<glyph unicode="&#x7e;" d="M613.417 248.863c5.622 0 11.080 2.406 14.879 6.779l62.188 71.731 90.952 26.737c7.393 2.171 12.831 8.448 13.937 16.056l13.599 93.921 62.095 71.711c5.048 5.827 6.226 14.060 3.031 21.074l-39.424 86.282 13.455 93.911c1.085 7.619-2.355 15.165-8.817 19.343l-79.677 51.354-39.465 86.241c-3.195 7.004-10.199 11.5-17.9 11.5h-94.863l-79.913 51.354c-6.502 4.168-14.828 4.168-21.309-0.010l-79.729-51.323h-94.904c-7.7 0-14.705-4.495-17.91-11.51l-39.404-86.231-79.862-51.354c-6.492-4.178-9.953-11.745-8.847-19.384l13.609-93.901-39.444-86.262c-3.205-7.014-2.028-15.247 3.021-21.074l62.085-71.7 13.496-93.901c1.096-7.629 6.543-13.916 13.937-16.087l91.013-26.747 62.188-71.721c5.059-5.806 13.025-8.141 20.439-5.99l90.993 26.737 91.013-26.737c1.823-0.553 3.697-0.799 5.54-0.799zM522.424 315.822c-1.812 0.532-3.676 0.788-5.55 0.788s-3.738-0.256-5.55-0.788l-84.398-24.812-57.682 66.529c-2.468 2.836-5.714 4.915-9.329 5.99l-84.408 24.801-12.524 87.101c-0.532 3.738-2.13 7.24-4.608 10.086l-57.58 66.499 36.588 80.026c1.567 3.441 2.13 7.26 1.577 11.008l-12.616 87.101 74.066 47.626c3.174 2.038 5.693 4.946 7.26 8.376l36.547 79.974h88.044c3.779 0 7.475 1.085 10.66 3.133l73.964 47.616 74.127-47.626c3.174-2.038 6.871-3.123 10.639-3.123h87.992l36.598-79.985c1.556-3.42 4.076-6.318 7.229-8.356l73.902-47.636-12.472-87.132c-0.543-3.738 0-7.547 1.567-10.977l36.547-80.026-57.59-66.509c-2.468-2.847-4.055-6.339-4.598-10.066l-12.616-87.122-84.367-24.801c-3.625-1.065-6.851-3.154-9.318-5.99l-57.682-66.529-84.419 24.822zM468.296 217.17l-68.864-20.634-77.292 89.078c-2.499 2.877-5.775 4.977-9.441 6.021l-95.908 27.556c-9.718 2.796-19.917-2.191-23.695-11.551l-96.584-239.084c-2.99-7.393-1.229-15.852 4.465-21.432 5.693-5.591 14.182-7.219 21.514-4.055l165.294 70.328 70.001-165.376c3.082-7.291 10.23-12.022 18.135-12.022 0.051 0 0.102 0 0.164 0 7.967 0.072 15.114 4.915 18.104 12.319l98.028 242.606c2.836 7.025 1.393 15.043-3.697 20.644-5.11 5.612-12.974 7.782-20.224 5.601zM375.491 7.209l-59.136 139.715c-2.038 4.823-5.908 8.632-10.752 10.588-2.365 0.952-4.874 1.434-7.383 1.434-2.621 0-5.253-0.532-7.711-1.577l-139.643-59.423 72.11 178.514 73.247-21.053 81.807-94.29c5.079-5.847 13.087-8.172 20.521-5.96l41.779 12.524-64.84-160.471zM927.488 68.557l-95.539 236.411c-3.789 9.39-14.1 14.356-23.798 11.52l-89.078-26.132c-3.666-1.065-6.932-3.185-9.411-6.062l-75.305-87.798-79.811 23.47c-7.24 2.13-15.084-0.072-20.152-5.673s-6.502-13.599-3.666-20.603l99.164-245.381c2.99-7.404 10.127-12.247 18.094-12.319 0.061 0 0.113 0 0.174 0 7.895 0 15.043 4.731 18.135 12.022l70.001 165.376 165.253-70.328c7.342-3.164 15.821-1.526 21.514 4.055 5.642 5.591 7.404 14.060 4.424 21.443zM733.542 157.358c-4.803 2.058-10.24 2.099-15.094 0.154-4.844-1.956-8.724-5.765-10.762-10.588l-59.126-139.715-66.058 163.482 52.941-15.575c7.434-2.171 15.452 0.205 20.5 6.072l79.811 93.030 66.365 19.456 71.025-175.729-139.602 59.412z" />
<glyph unicode="&#xa1;" d="M882.572 485.644c-2.226 63.133-29.393 121.164-73.946 168.193l45.183 86.543c-40.605 21.164-90.574 10.371-127.357-23.011-59.376 33.257-131.599 52.951-209.619 52.951-132.44 0-248.167-56.479-312.454-140.754-8.149 5.333-16.084 10.75-23.221 16.419-31.746 23.746-24.439 41.823-11.212 52.237 7.894 6.213 10.414 17.111 6.045 26.18l-4.407 9.133c-2.771 5.795-8.021 10.036-14.235 11.548-6.258 1.533-12.85 0.17-18.014-3.674-38.717-28.951-56.982-71.235-42.327-105.543 9.573-23.495 43.588-42.076 74.239-62.232-13.142-30.191-20.701-62.524-20.701-96.347 0-84.128 44.596-159.796 115.601-213.231l-17.384-86.941c-2.52-12.64 0.757-25.741 8.902-35.715 8.186-9.972 20.364-15.724 33.255-15.724h64.96c17.551 0 33.384 10.707 39.891 27l17.469 43.669c32.878-7.727 67.564-12.072 103.592-12.072 26.243 0 51.816 2.288 76.508 6.53l15.241-38.108c6.509-16.314 22.34-27.021 39.934-27.021h64.917c12.891 0 25.112 5.754 33.257 15.724 8.186 9.974 11.463 23.075 8.943 35.692l-13.858 69.264c43.967 27.461 79.742 62.732 104.349 103.317l37.287-11.945c5.629-1.806 11.758-1.22 16.922 1.636 5.207 2.857 8.986 7.686 10.457 13.418l19.861 76.253c2.899 11.171 1.177 23.032-4.744 32.944-5.921 9.908-15.621 17.006-26.832 19.693l-16.502 3.974zM685.088 665.261c-2.813-11.233-12.47-21.375-28.72-30.067l-4.073-2.183-3.693 2.666c-31.789 23.032-81.044 36.805-131.767 36.805-50.725 0-99.98-13.772-131.767-36.805l-3.695-2.666-4.073 2.142c-16.249 8.733-25.91 18.874-28.72 30.107l-1.22 4.87 4.116 2.856c41.78 29.269 102.078 46.043 165.36 46.043 63.279 0 123.538-16.774 165.317-46.043l4.115-2.856-1.177-4.868zM765.879 462.654c-21.54 0-39.092 26.266-39.092 58.599s17.551 58.599 39.092 58.599c21.583 0 39.095-26.266 39.095-58.599s-17.512-58.599-39.095-58.599z" />
</font>
</defs>
</svg>
