<?xml version="1.0" encoding="UTF-8" standalone="no"?>
<svg
   xmlns:dc="http://purl.org/dc/elements/1.1/"
   xmlns:cc="http://creativecommons.org/ns#"
   xmlns:rdf="http://www.w3.org/1999/02/22-rdf-syntax-ns#"
   xmlns:svg="http://www.w3.org/2000/svg"
   xmlns="http://www.w3.org/2000/svg"
   viewBox="0 0 584.4267 138.26666"
   height="138.26666"
   width="584.4267"
   xml:space="preserve"
   version="1.1"
   id="svg2"><metadata
     id="metadata8"><rdf:RDF><cc:Work
         rdf:about=""><dc:format>image/svg+xml</dc:format><dc:type
           rdf:resource="http://purl.org/dc/dcmitype/StillImage" /></cc:Work></rdf:RDF></metadata><defs
     id="defs6"><clipPath
       id="clipPath18"
       clipPathUnits="userSpaceOnUse"><path
         id="path20"
         d="m 0,0 4380,0 0,1036.99 -4380,0 L 0,0 Z" /></clipPath></defs><g
     transform="matrix(1.3333333,0,0,-1.3333333,0,138.26667)"
     id="g10"><g
       transform="scale(0.1)"
       id="g12"><g
         id="g14"><g
           clip-path="url(#clipPath18)"
           id="g16"><path
             id="path22"
             style="fill:#c31129;fill-opacity:1;fill-rule:evenodd;stroke:none"
             d="m 564.23,352.406 c -5.168,-1.601 -11.32,-3.535 -19.269,-6.25 -72.813,-25.078 -147.207,-37.617 -223.242,-37.636 -105.586,0 -143.328,18.691 -200.43,56.113 C 33.8398,422.992 -6.58203,501.215 0,599.262 4.92188,672.684 34.1406,741.336 87.6562,805.191 141.738,869.488 216.895,921.93 313.184,962.535 c 96.836,41.045 154.98,61.565 261.66,61.565 89.699,0 158.32,-16.65 205.879,-49.944 47.539,-33.301 69.726,-73.426 66.601,-120.39 -2.207,-32.84 -12.91,-61.571 -32.051,-86.2 -25.175,-32.832 -59.57,-60.195 -103.144,-82.089 -43.047,-21.895 -107.481,-40.372 -193.25,-55.411 -85.774,-14.613 -176.25,-22.132 -271.457,-22.582 l -1.152,-17.109 c -2.54,-37.852 9.863,-68.887 37.246,-93.027 27.922,-24.18 65.105,-36.27 111.621,-36.27 38.816,0 81.523,8.672 128.105,25.996 12.551,4.746 24.738,9.649 36.555,14.727 -9.719,-21.387 -15.129,-45.156 -15.129,-70.176 0,-28.613 7.07,-55.566 19.562,-79.219 z M 286.68,727.879 c 86.14,4.121 152.851,12.09 200.168,23.945 47.84,12.324 81.961,27.364 102.312,45.156 15.645,13.211 24.024,28.028 25.125,44.461 0.981,14.59 -5.32,26.899 -18.855,36.954 -13.008,10.023 -30.996,15.023 -53.965,15.039 -27.356,0 -57.617,-6.622 -90.762,-19.832 -33.144,-12.786 -63.34,-30.793 -90.598,-54.043 -26.746,-23.262 -51.199,-53.829 -73.425,-91.68" /><path
             id="path24"
             style="fill:#666666;fill-opacity:1;fill-rule:evenodd;stroke:none"
             d="m 1679.4,817.359 c 9.98,148.731 -43.65,219.631 -153.47,219.631 -207.71,0 -245.54,-104.455 -245.54,-104.455 12.32,28.313 -4.3,46.856 -14.78,58.535 -15.3,17.01 -49.14,28.75 -86.98,29.26 l -73.65,-0.02 c -18.1,-83.408 -58.1,-244.658 -80.48,-329.443 L 846.094,0 l 83.32,0 c 0,0 61.731,-3.96094 102.126,36.8984 40.4,40.8399 64.53,126.2696 64.53,126.2696 l 39.77,156.543 c 24.75,-4.18 41.43,-4.18 59.49,-4.18 304.45,0 466.26,236.328 484.07,501.828 z m -218.17,-40.32 c -8.58,-127.871 -87.99,-296.078 -217.27,-296.078 -22.24,0 -45.58,4.16 -63.2,11.113 l 9.38,36.153 c 33.79,130.668 83.5,340.445 235.91,325.324 33.34,-3.309 38.72,-23.68 35.18,-76.512" /><path
             id="path26"
             style="fill:#666666;fill-opacity:1;fill-rule:evenodd;stroke:none"
             d="m 2461.04,1011.97 c -85.06,16.68 -176.35,23.63 -262.54,23.63 -304.44,0 -466.35,-237.702 -484.16,-503.213 -9.98,-148.731 43.65,-219.629 153.47,-219.629 118.17,0 237.13,90.918 237.13,90.918 l -20.53,-74.102 c 0,0 47.31,-4.57 76.96,0 43.18,6.66 70.84,13.008 104.17,41.27 38.91,32.988 47.25,60.078 60.89,115.761 37.42,152.817 82.77,329.758 134.61,525.365 z m -247.88,-151.525 -9.47,-37.527 C 2169.8,690.867 2106.94,494.711 1967.7,496.254 c -27.78,0.312 -38.74,23.633 -35.19,76.445 8.58,127.895 87.98,296.086 217.26,296.086 26.42,0 45.6,-4.156 63.39,-8.34" /><path
             id="path28"
             style="fill:#666666;fill-opacity:1;fill-rule:evenodd;stroke:none"
             d="m 3207.29,1011.97 c -85.06,16.68 -165.14,23.63 -251.33,23.63 -303.05,0 -466.35,-237.702 -484.16,-503.213 -9.98,-148.731 43.65,-219.629 153.47,-219.629 118.17,0 232.09,62.793 232.09,62.793 -16.7,-60.586 -21.17,-74.824 -21.17,-74.824 -27.75,-102.872 -101.25,-135.313 -223.59,-135.313 -62.54,0 -135.3,13.906 -190.33,43.086 0,0 -16.72,-56.875 -7.09,-91.23 10.7,-38.2231 31.46,-55.7036 62.81,-80.0591 59.2,-45.99996 161.99,-37.871056 188.98,-35.26949 217.15,20.96879 306.72,113.94159 354.87,296.91059 l 185.45,713.118 z m -236.02,-138.72 -10.12,-50.332 c -33.88,-132.051 -81.46,-327.309 -235.99,-326.664 -27.8,0.117 -38.73,23.633 -35.18,76.445 8.57,127.895 88.61,308.891 217.91,308.891 26.41,0 45.59,-4.168 63.38,-8.34" /><path
             id="path30"
             style="fill:#666666;fill-opacity:1;fill-rule:evenodd;stroke:none"
             d="m 3883.36,859.059 c 5.6,83.398 -36.8,176.541 -225.86,176.541 -204.36,0 -409.51,-177.924 -429.84,-480.967 -10.08,-150.137 49.2,-240.488 236.87,-240.488 43.32,0 179.98,6.855 239.47,62.617 25.04,23.457 32.56,44.14 41,77.168 6.5,25.508 4.49,67.343 4.49,67.343 -68.49,-26.406 -141.81,-41.699 -207.15,-41.699 -87.57,0 -109.8,20.84 -105.8,80.625 0.67,9.727 1.68,25.02 3.83,36.133 256.25,6.953 431.15,86.195 442.99,262.727 z m -204.82,-27.801 c -4.58,-68.106 -81.49,-95.918 -208.19,-98.692 25.8,73.672 78.01,147.356 154.45,147.356 36.16,0 55.79,-18.086 53.74,-48.664" /><path
             id="path32"
             style="fill:#666666;fill-opacity:1;fill-rule:nonzero;stroke:none"
             d="m 4381.86,971.766 c -12.48,40.024 -44.79,63.834 -86.51,63.834 -209.9,0 -318.18,-101.483 -327.05,-233.534 -10.82,-161.238 144.79,-183.488 139.38,-264.113 -2.43,-36.152 -37.19,-56.992 -95.59,-56.992 -31.95,0 -70.33,8.34 -100.16,19.453 0,0 -25.09,-50.117 -22.87,-83.984 1.68,-25.782 5.02,-42.325 20.55,-62.969 25.76,-34.258 94.08,-39.102 102.83,-38.711 208.46,9.57 310.06,130.605 317.56,242.656 9.98,148.754 -148.01,197.406 -143.44,265.512 2.33,34.758 31.62,57.004 91.41,57.004 27.79,0 56.72,-4.184 83.96,-12.524 0,0 17.82,32.344 21.31,55.137 2.91,18.985 4.34,30.899 -1.38,49.231" /><path
             id="path34"
             style="fill:#c31129;fill-opacity:1;fill-rule:nonzero;stroke:none"
             d="m 604.219,431.625 c 0,60.918 49.394,110.313 110.312,110.313 60.938,0 110.313,-49.395 110.313,-110.313 0,-60.918 -49.375,-110.313 -110.313,-110.313 -60.918,0 -110.312,49.395 -110.312,110.313" /></g></g></g></g></svg>