<svg id="Ebene_2" data-name="Ebene 2" xmlns="http://www.w3.org/2000/svg" viewBox="0 0 459.137 60.001"><defs><style>.cls-1{fill:#d41317;}.cls-2{fill:#2e2a2a;}.cls-3{fill:#d4021d;}</style></defs><title>logo_developer_portal_4c</title><path id="e" class="cls-1" d="M17.616,24.766a11.412,11.412,0,0,0,2.87,7.211,8.608,8.608,0,0,0,6.563,2.674,9.019,9.019,0,0,0,4.637-1.175A5.329,5.329,0,0,0,34.27,30.2H44.942c-1.259,4.106-3.123,7.266-6.241,9.48A18.767,18.767,0,0,1,27.54,43C16.05,43,7.846,35.76,7.846,21.282a24.992,24.992,0,0,1,1.313-8.346,17.955,17.955,0,0,1,3.816-6.4,16.5,16.5,0,0,1,6.114-4.092,19.954,19.954,0,0,1,7.8-1.418c6.237,0,10.55,1.972,13.751,5.915s4.679,9.885,4.679,17.826Zm17.228-6.644a10.987,10.987,0,0,0-.78-3.849,8.062,8.062,0,0,0-1.846-2.755A7.372,7.372,0,0,0,29.592,9.9a8.992,8.992,0,0,0-3.036-.527,8.559,8.559,0,0,0-5.944,2.309,9.789,9.789,0,0,0-2.667,6.442Z" transform="translate(-7.846 -1.025)"/><path id="p" class="cls-2" d="M48.736,61.026V1.451H58.865l.081,4.882c2.349-3.768,6.13-5.1,11.1-5.1a14.714,14.714,0,0,1,6.523,1.459A15.151,15.151,0,0,1,82.038,6.9,20.462,20.462,0,0,1,85.6,13.625a28.944,28.944,0,0,1,1.3,8.994,29.713,29.713,0,0,1-1.094,8.305,19.624,19.624,0,0,1-3.2,6.523A14.462,14.462,0,0,1,77.46,41.7a13.754,13.754,0,0,1-6.523,1.5c-4.916,0-8.86-1.269-11.83-5.429V61.026Zm19.609-26.82q9.074,0,9.075-12.316a14.184,14.184,0,0,0-2.512-8.71,7.751,7.751,0,0,0-6.482-3.363,7.863,7.863,0,0,0-6.361,3.16,12.747,12.747,0,0,0-2.552,8.265Q59.513,34.207,68.345,34.206Z" transform="translate(-7.846 -1.025)"/><path class="cls-2" d="M123.923,10.161A11.512,11.512,0,0,0,121.1,5.219a12.768,12.768,0,0,0-5.243-3.039,25.245,25.245,0,0,0-7.817-1.053,28.045,28.045,0,0,0-8.1,1.013,14.019,14.019,0,0,0-5.385,2.876,11.251,11.251,0,0,0-3,4.573,16.872,16.872,0,0,0-1.011,5.788h9.8a7.427,7.427,0,0,1,1.985-4.411c1.053-1.08,2.8-1.679,5.226-1.679a9.5,9.5,0,0,1,4.9,1.065,3.364,3.364,0,0,1,1.823,3.024,3.386,3.386,0,0,1-1.377,3.031,14.134,14.134,0,0,1-5.348,1.5q-3.971.568-7.333,1.254A18.346,18.346,0,0,0,94.435,21.3a10.266,10.266,0,0,0-3.808,4.01,14.451,14.451,0,0,0-1.377,6.847,10.4,10.4,0,0,0,3.2,7.9q3.2,3.039,10.088,3.038a18.788,18.788,0,0,0,7.13-1.256,13.266,13.266,0,0,0,4.943-3.493,14.427,14.427,0,0,0,.648,3.435h9.459V16.846A23.307,23.307,0,0,0,123.923,10.161Zm-10.65,20.095a9.185,9.185,0,0,1-5.024,4.619,10.154,10.154,0,0,1-3.768.689q-5.1,0-5.1-4.456a4.813,4.813,0,0,1,1.7-3.97q1.7-1.377,6.239-2.269,1.079-.209,1.969-.408h0s2.912-.624,4.823-1.144l-.066,3.578A7.582,7.582,0,0,1,113.274,30.256Z" transform="translate(-7.846 -1.025)"/><path id="g" class="cls-2" d="M156.46,37.305a5.078,5.078,0,0,1-1.421,1.937,13.6,13.6,0,0,1-2.671,1.831,14.917,14.917,0,0,1-6.847,1.3,16.192,16.192,0,0,1-7.9-1.742,15.266,15.266,0,0,1-5.429-4.578,18.709,18.709,0,0,1-3-6.563,31.258,31.258,0,0,1-.932-7.617A24.951,24.951,0,0,1,129.64,13.4a20.416,20.416,0,0,1,3.727-6.563,16.7,16.7,0,0,1,5.51-4.213,13.962,13.962,0,0,1,6.4-1.5c4.969,0,8.7,1.189,11.182,5.186V1.451h10.246v41a19.483,19.483,0,0,1-1.252,7.981,16.239,16.239,0,0,1-4.213,5.753,18.5,18.5,0,0,1-6.32,3.525,25.65,25.65,0,0,1-15.476.041,18.281,18.281,0,0,1-6.117-3.322,15.306,15.306,0,0,1-4.011-5.226,16.086,16.086,0,0,1-1.459-6.968h9.8a6.91,6.91,0,0,0,2.39,5.631,9.638,9.638,0,0,0,6.361,1.985,11.133,11.133,0,0,0,7.131-2.309,7.582,7.582,0,0,0,2.917-6.28Zm-9.683-3.2a8.143,8.143,0,0,0,6.441-2.957q2.552-2.957,2.553-8.062,0-12.8-8.994-12.8t-8.994,12.154q0,5.348,2.552,8.508A7.941,7.941,0,0,0,146.778,34.1Z" transform="translate(-7.846 -1.025)"/><path class="cls-2" d="M244.049,25.151a7.5,7.5,0,0,0-2.877-3.444,21.672,21.672,0,0,0-5.712-2.39q-3.567-1.012-8.751-2.471a21.341,21.341,0,0,1-4.821-1.864,2.921,2.921,0,0,1-1.661-2.593,2.687,2.687,0,0,1,1.661-2.633,12.119,12.119,0,0,1,4.9-.77,8.343,8.343,0,0,1,5.064,1.346,5.1,5.1,0,0,1,1.859,3.088h10.238a12.67,12.67,0,0,0-4.277-8.72c-2.647-2.322-6.834-3.529-12.559-3.529a29.217,29.217,0,0,0-7.941.909,15.928,15.928,0,0,0-5.267,2.46,8.847,8.847,0,0,0-2.755,3.56,10.139,10.139,0,0,0-.932,4.292,14.016,14.016,0,0,0,.689,4.536,8.059,8.059,0,0,0,2.471,3.727,19.745,19.745,0,0,0,5.55,3.119,63.285,63.285,0,0,0,9.4,2.714,16.47,16.47,0,0,1,4.821,1.7,3.426,3.426,0,0,1,1.58,3.16,3.05,3.05,0,0,1-2.147,2.876,12.874,12.874,0,0,1-5.145.932,10,10,0,0,1-5.793-1.663,4.959,4.959,0,0,1-2.144-3.447H208.627a11.807,11.807,0,0,0,1.35,4.784,12.954,12.954,0,0,0,3.808,4.437,18.173,18.173,0,0,0,5.955,2.826,28.89,28.89,0,0,0,7.779.988q8.751,0,13.208-3.517a10.665,10.665,0,0,0,4.254-8.869A13.7,13.7,0,0,0,244.049,25.151Z" transform="translate(-7.846 -1.025)"/><path id="e-2" data-name="e" class="cls-2" d="M179.266,24.766a11.412,11.412,0,0,0,2.87,7.211,8.608,8.608,0,0,0,6.563,2.674,9.019,9.019,0,0,0,4.637-1.175,5.329,5.329,0,0,0,2.585-3.282h10.672c-1.259,4.106-3.123,7.266-6.241,9.48A18.767,18.767,0,0,1,189.19,43C177.7,43,169.5,35.76,169.5,21.282a24.992,24.992,0,0,1,1.313-8.346,17.955,17.955,0,0,1,3.816-6.4,16.5,16.5,0,0,1,6.114-4.092,19.954,19.954,0,0,1,7.8-1.418c6.237,0,10.55,1.972,13.751,5.915s4.679,9.885,4.679,17.826Zm17.228-6.644a10.987,10.987,0,0,0-.78-3.849,8.062,8.062,0,0,0-1.846-2.755A7.371,7.371,0,0,0,191.242,9.9a8.992,8.992,0,0,0-3.036-.527,8.559,8.559,0,0,0-5.944,2.309,9.789,9.789,0,0,0-2.667,6.442Z" transform="translate(-7.846 -1.025)"/><path class="cls-3" d="M268.153,39.622a3.979,3.979,0,0,1-1.78,1.644,5.925,5.925,0,0,1-2.488.5,6,6,0,0,1-2.771-.612,5.561,5.561,0,0,1-1.971-1.658,7.528,7.528,0,0,1-1.168-2.405,10.1,10.1,0,0,1-.394-2.826,9.487,9.487,0,0,1,.394-2.731,7.12,7.12,0,0,1,1.168-2.324,5.677,5.677,0,0,1,4.661-2.228,5.522,5.522,0,0,1,2.378.529,4.153,4.153,0,0,1,1.781,1.563h.054V22.01h3.858V41.416h-3.668V39.622Zm-.163-6.944a4.092,4.092,0,0,0-.557-1.414,3.141,3.141,0,0,0-1.018-.992,3,3,0,0,0-1.577-.38,3.146,3.146,0,0,0-1.6.38,3.02,3.02,0,0,0-1.046,1.006,4.437,4.437,0,0,0-.57,1.426,7.7,7.7,0,0,0-.177,1.672,7.136,7.136,0,0,0,.191,1.63,4.421,4.421,0,0,0,.61,1.454,3.367,3.367,0,0,0,1.06,1.032,2.856,2.856,0,0,0,1.535.4,3.06,3.06,0,0,0,1.591-.381,2.891,2.891,0,0,0,1.018-1.018,4.564,4.564,0,0,0,.543-1.454,8.553,8.553,0,0,0,.163-1.686A8.347,8.347,0,0,0,267.989,32.678Z" transform="translate(-7.846 -1.025)"/><path class="cls-3" d="M278.914,38.045a3.953,3.953,0,0,0,4.512.258,2.421,2.421,0,0,0,1.032-1.236h3.4a6.453,6.453,0,0,1-2.5,3.615,7.357,7.357,0,0,1-4.076,1.087,8.056,8.056,0,0,1-2.991-.529,6.207,6.207,0,0,1-2.255-1.509,6.777,6.777,0,0,1-1.428-2.337,8.559,8.559,0,0,1-.5-2.991,8.181,8.181,0,0,1,.517-2.935,6.8,6.8,0,0,1,3.737-3.914,7.286,7.286,0,0,1,2.922-.57,6.676,6.676,0,0,1,3.125.693,6.237,6.237,0,0,1,2.188,1.862,7.655,7.655,0,0,1,1.238,2.662,9.947,9.947,0,0,1,.271,3.126H277.963A3.9,3.9,0,0,0,278.914,38.045Zm4.362-7.392a2.713,2.713,0,0,0-2.107-.76,3.356,3.356,0,0,0-1.535.312,2.931,2.931,0,0,0-.979.775,2.866,2.866,0,0,0-.517.978,4.466,4.466,0,0,0-.176.925h6.278A4.465,4.465,0,0,0,283.277,30.653Z" transform="translate(-7.846 -1.025)"/><path class="cls-3" d="M293.862,41.416l-4.811-14.051h4.05l2.963,9.594h.054l2.963-9.594h3.832l-4.756,14.051Z" transform="translate(-7.846 -1.025)"/><path class="cls-3" d="M308.647,38.045a3.953,3.953,0,0,0,4.512.258,2.421,2.421,0,0,0,1.032-1.236h3.4a6.453,6.453,0,0,1-2.5,3.615,7.357,7.357,0,0,1-4.076,1.087,8.056,8.056,0,0,1-2.991-.529,6.207,6.207,0,0,1-2.255-1.509,6.777,6.777,0,0,1-1.428-2.337,8.559,8.559,0,0,1-.5-2.991,8.181,8.181,0,0,1,.517-2.935,6.8,6.8,0,0,1,3.737-3.914,7.286,7.286,0,0,1,2.922-.57,6.676,6.676,0,0,1,3.125.693,6.237,6.237,0,0,1,2.188,1.862,7.655,7.655,0,0,1,1.238,2.662,9.947,9.947,0,0,1,.271,3.126H307.7A3.9,3.9,0,0,0,308.647,38.045Zm4.362-7.392a2.713,2.713,0,0,0-2.107-.76,3.356,3.356,0,0,0-1.535.312,2.931,2.931,0,0,0-.979.775,2.866,2.866,0,0,0-.517.978,4.466,4.466,0,0,0-.176.925h6.278A4.465,4.465,0,0,0,313.01,30.653Z" transform="translate(-7.846 -1.025)"/><path class="cls-3" d="M324.084,22.01V41.416h-3.86V22.01Z" transform="translate(-7.846 -1.025)"/><path class="cls-3" d="M327.21,31.347a6.427,6.427,0,0,1,3.751-3.833,8.02,8.02,0,0,1,2.989-.529,8.131,8.131,0,0,1,3,.529,6.4,6.4,0,0,1,3.765,3.833,8.634,8.634,0,0,1,.515,3.056,8.52,8.52,0,0,1-.515,3.044,6.606,6.606,0,0,1-1.468,2.324,6.4,6.4,0,0,1-2.3,1.481,8.308,8.308,0,0,1-3,.517,8.194,8.194,0,0,1-2.989-.517,6.4,6.4,0,0,1-2.283-1.481,6.567,6.567,0,0,1-1.468-2.324,8.489,8.489,0,0,1-.517-3.044A8.6,8.6,0,0,1,327.21,31.347Zm3.506,4.7a4.362,4.362,0,0,0,.557,1.442,2.947,2.947,0,0,0,1.046,1.018,3.185,3.185,0,0,0,1.63.381,3.264,3.264,0,0,0,1.644-.381,2.92,2.92,0,0,0,1.06-1.018,4.393,4.393,0,0,0,.557-1.442,8.194,8.194,0,0,0,.163-1.644,8.4,8.4,0,0,0-.163-1.657,4.241,4.241,0,0,0-.557-1.442,3.088,3.088,0,0,0-1.06-1.018,3.181,3.181,0,0,0-1.644-.394,2.969,2.969,0,0,0-2.676,1.412,4.213,4.213,0,0,0-.557,1.442,8.4,8.4,0,0,0-.163,1.657A8.194,8.194,0,0,0,330.717,36.048Z" transform="translate(-7.846 -1.025)"/><path class="cls-3" d="M347.4,27.364v1.794h.054a4.241,4.241,0,0,1,1.794-1.657,5.494,5.494,0,0,1,2.391-.517,6.094,6.094,0,0,1,2.854.624,5.894,5.894,0,0,1,1.984,1.658,6.994,6.994,0,0,1,1.169,2.405,10.66,10.66,0,0,1,.38,2.868,9.629,9.629,0,0,1-.38,2.717,6.919,6.919,0,0,1-1.155,2.31,5.709,5.709,0,0,1-1.929,1.6,5.816,5.816,0,0,1-2.7.6,5.487,5.487,0,0,1-2.405-.529,4.555,4.555,0,0,1-1.808-1.563h-.054v6.659h-3.858V27.364Zm5.015,11.143a3.09,3.09,0,0,0,1.032-.992,4.093,4.093,0,0,0,.557-1.426,8.417,8.417,0,0,0,.163-1.658,7.838,7.838,0,0,0-.177-1.658,4.4,4.4,0,0,0-.584-1.454,3.253,3.253,0,0,0-1.046-1.032,2.925,2.925,0,0,0-1.563-.394,2.977,2.977,0,0,0-1.59.394,3.169,3.169,0,0,0-1.032,1.018,4.241,4.241,0,0,0-.557,1.442,8.549,8.549,0,0,0-.163,1.685,7.747,7.747,0,0,0,.177,1.658,4.276,4.276,0,0,0,.57,1.426,3.291,3.291,0,0,0,4.213.992Z" transform="translate(-7.846 -1.025)"/><path class="cls-3" d="M364.47,38.045a3.953,3.953,0,0,0,4.512.258,2.421,2.421,0,0,0,1.032-1.236h3.4a6.453,6.453,0,0,1-2.5,3.615,7.357,7.357,0,0,1-4.076,1.087,8.056,8.056,0,0,1-2.991-.529,6.207,6.207,0,0,1-2.255-1.509,6.777,6.777,0,0,1-1.428-2.337,8.559,8.559,0,0,1-.5-2.991,8.181,8.181,0,0,1,.517-2.935,6.8,6.8,0,0,1,3.737-3.914,7.286,7.286,0,0,1,2.922-.57,6.676,6.676,0,0,1,3.125.693,6.237,6.237,0,0,1,2.188,1.862,7.655,7.655,0,0,1,1.238,2.662,9.947,9.947,0,0,1,.271,3.126H363.518A3.9,3.9,0,0,0,364.47,38.045Zm4.362-7.392a2.713,2.713,0,0,0-2.107-.76,3.356,3.356,0,0,0-1.535.312,2.931,2.931,0,0,0-.979.775,2.866,2.866,0,0,0-.517.978,4.466,4.466,0,0,0-.176.925H369.8A4.465,4.465,0,0,0,368.832,30.653Z" transform="translate(-7.846 -1.025)"/><path class="cls-3" d="M379.608,27.364v2.609h.054a4.788,4.788,0,0,1,.733-1.21,4.865,4.865,0,0,1,1.06-.951,5.121,5.121,0,0,1,1.278-.61,4.592,4.592,0,0,1,1.412-.218,2.992,2.992,0,0,1,.842.135v3.587c-.18-.036-.4-.067-.651-.095a7.08,7.08,0,0,0-.735-.041,4.122,4.122,0,0,0-1.794.353,3.111,3.111,0,0,0-1.182.965,3.85,3.85,0,0,0-.638,1.426,7.752,7.752,0,0,0-.191,1.767v6.332H375.94V27.364Z" transform="translate(-7.846 -1.025)"/><path class="cls-3" d="M397.735,27.364v1.794h.054a4.241,4.241,0,0,1,1.794-1.657,5.494,5.494,0,0,1,2.391-.517,6.094,6.094,0,0,1,2.854.624,5.894,5.894,0,0,1,1.984,1.658,6.994,6.994,0,0,1,1.169,2.405,10.66,10.66,0,0,1,.38,2.868,9.629,9.629,0,0,1-.38,2.717,6.919,6.919,0,0,1-1.155,2.31,5.709,5.709,0,0,1-1.929,1.6,5.816,5.816,0,0,1-2.7.6,5.487,5.487,0,0,1-2.405-.529,4.555,4.555,0,0,1-1.808-1.563h-.054v6.659h-3.858V27.364Zm5.015,11.143a3.09,3.09,0,0,0,1.032-.992,4.093,4.093,0,0,0,.557-1.426,8.417,8.417,0,0,0,.163-1.658,7.838,7.838,0,0,0-.177-1.658,4.4,4.4,0,0,0-.584-1.454,3.253,3.253,0,0,0-1.046-1.032,2.925,2.925,0,0,0-1.563-.394,2.977,2.977,0,0,0-1.59.394,3.169,3.169,0,0,0-1.032,1.018,4.241,4.241,0,0,0-.557,1.442,8.549,8.549,0,0,0-.163,1.685,7.747,7.747,0,0,0,.177,1.658,4.276,4.276,0,0,0,.57,1.426,3.291,3.291,0,0,0,4.213.992Z" transform="translate(-7.846 -1.025)"/><path class="cls-3" d="M410.753,31.347a6.427,6.427,0,0,1,3.751-3.833,8.02,8.02,0,0,1,2.989-.529,8.131,8.131,0,0,1,3,.529,6.4,6.4,0,0,1,3.765,3.833,8.634,8.634,0,0,1,.515,3.056,8.52,8.52,0,0,1-.515,3.044,6.606,6.606,0,0,1-1.468,2.324,6.4,6.4,0,0,1-2.3,1.481,8.308,8.308,0,0,1-3,.517,8.194,8.194,0,0,1-2.989-.517,6.4,6.4,0,0,1-2.283-1.481,6.567,6.567,0,0,1-1.468-2.324,8.489,8.489,0,0,1-.517-3.044A8.6,8.6,0,0,1,410.753,31.347Zm3.506,4.7a4.362,4.362,0,0,0,.557,1.442,2.947,2.947,0,0,0,1.046,1.018,3.185,3.185,0,0,0,1.63.381,3.264,3.264,0,0,0,1.644-.381,2.92,2.92,0,0,0,1.06-1.018,4.393,4.393,0,0,0,.557-1.442,8.194,8.194,0,0,0,.163-1.644,8.4,8.4,0,0,0-.163-1.657,4.241,4.241,0,0,0-.557-1.442,3.088,3.088,0,0,0-1.06-1.018,3.181,3.181,0,0,0-1.644-.394,2.969,2.969,0,0,0-2.676,1.412,4.213,4.213,0,0,0-.557,1.442A8.4,8.4,0,0,0,414.1,34.4,8.194,8.194,0,0,0,414.259,36.048Z" transform="translate(-7.846 -1.025)"/><path class="cls-3" d="M430.945,27.364v2.609H431a4.788,4.788,0,0,1,.733-1.21,4.865,4.865,0,0,1,1.06-.951,5.121,5.121,0,0,1,1.278-.61,4.592,4.592,0,0,1,1.412-.218,2.992,2.992,0,0,1,.842.135v3.587c-.18-.036-.4-.067-.651-.095a7.08,7.08,0,0,0-.735-.041,4.122,4.122,0,0,0-1.794.353,3.111,3.111,0,0,0-1.182.965,3.85,3.85,0,0,0-.638,1.426,7.752,7.752,0,0,0-.191,1.767v6.332h-3.858V27.364Z" transform="translate(-7.846 -1.025)"/><path class="cls-3" d="M445.566,27.364v2.583H442.74V36.9a1.893,1.893,0,0,0,.325,1.3,1.887,1.887,0,0,0,1.3.327c.218,0,.426-.01.626-.028a5.433,5.433,0,0,0,.57-.081v2.989a9.154,9.154,0,0,1-1.087.109c-.4.018-.788.027-1.169.027a11.342,11.342,0,0,1-1.7-.122,4.006,4.006,0,0,1-1.412-.476,2.5,2.5,0,0,1-.965-1.006,3.578,3.578,0,0,1-.353-1.711V29.947h-2.337V27.364h2.337V23.153h3.86v4.212Z" transform="translate(-7.846 -1.025)"/><path class="cls-3" d="M447.251,31.686a4.488,4.488,0,0,1,.679-2.256,4.618,4.618,0,0,1,1.523-1.44,6.639,6.639,0,0,1,2.079-.775,11.848,11.848,0,0,1,2.324-.23,15.824,15.824,0,0,1,2.147.149,6.582,6.582,0,0,1,1.984.584,3.92,3.92,0,0,1,1.468,1.21,3.383,3.383,0,0,1,.57,2.052v7.311a14.636,14.636,0,0,0,.109,1.82,3.309,3.309,0,0,0,.38,1.3H456.6a5.633,5.633,0,0,1-.177-.666,5.907,5.907,0,0,1-.095-.693,5.039,5.039,0,0,1-2.174,1.333,8.762,8.762,0,0,1-2.555.38,6.892,6.892,0,0,1-1.876-.244,4.282,4.282,0,0,1-1.521-.761,3.532,3.532,0,0,1-1.02-1.3,4.409,4.409,0,0,1-.366-1.875,4.1,4.1,0,0,1,.42-1.971,3.518,3.518,0,0,1,1.087-1.236,4.848,4.848,0,0,1,1.523-.693,16.414,16.414,0,0,1,1.725-.367q.87-.136,1.713-.218a10.086,10.086,0,0,0,1.495-.244,2.6,2.6,0,0,0,1.034-.475,1.045,1.045,0,0,0,.352-.911,2.053,2.053,0,0,0-.2-.992,1.521,1.521,0,0,0-.545-.571,2.131,2.131,0,0,0-.788-.271,6.52,6.52,0,0,0-.964-.068,2.939,2.939,0,0,0-1.8.489,2.183,2.183,0,0,0-.76,1.632Zm8.914,2.854a1.726,1.726,0,0,1-.61.339,6.37,6.37,0,0,1-.789.2c-.281.054-.574.1-.883.135s-.616.081-.923.135a6.927,6.927,0,0,0-.856.218,2.55,2.55,0,0,0-.735.367,1.734,1.734,0,0,0-.5.584,1.879,1.879,0,0,0-.191.9,1.814,1.814,0,0,0,.191.87,1.455,1.455,0,0,0,.515.556,2.164,2.164,0,0,0,.761.286,4.835,4.835,0,0,0,.9.081,3.424,3.424,0,0,0,1.767-.38,2.554,2.554,0,0,0,.923-.911,2.918,2.918,0,0,0,.367-1.074,7.464,7.464,0,0,0,.067-.869Z" transform="translate(-7.846 -1.025)"/><path class="cls-3" d="M466.982,22.01V41.416h-3.86V22.01Z" transform="translate(-7.846 -1.025)"/></svg>