<svg id="Ebene_2" data-name="Ebene 2" xmlns="http://www.w3.org/2000/svg" viewBox="0 0 260.75 45.5"><defs><style>.cls-1{fill:#fff;}</style></defs><title>2Zeichenfläche 1</title><path id="e" class="cls-1" d="M9.1,18.07a8,8,0,0,0,2,5A6,6,0,0,0,15.69,25a6.31,6.31,0,0,0,3.24-.82,3.73,3.73,0,0,0,1.81-2.29H28.2a11.9,11.9,0,0,1-4.36,6.63A13.12,13.12,0,0,1,16,30.81c-8,0-13.77-5.06-13.77-15.18A17.47,17.47,0,0,1,3.19,9.8,12.55,12.55,0,0,1,5.86,5.32a11.54,11.54,0,0,1,4.27-2.86,14,14,0,0,1,5.45-1c4.36,0,7.38,1.38,9.61,4.14s3.27,6.91,3.27,12.46Zm12-4.65a7.68,7.68,0,0,0-.55-2.69A5.64,5.64,0,0,0,19.31,8.8a5.15,5.15,0,0,0-1.84-1.13,6.29,6.29,0,0,0-2.12-.37,6,6,0,0,0-4.16,1.61,6.84,6.84,0,0,0-1.86,4.5Z"/><path id="p" class="cls-1" d="M30.86,43.42V1.77h7.08L38,5.18c1.64-2.63,4.29-3.57,7.76-3.57a10.29,10.29,0,0,1,4.56,1,10.59,10.59,0,0,1,3.82,2.95,14.3,14.3,0,0,1,2.49,4.7,20.23,20.23,0,0,1,.91,6.29,20.77,20.77,0,0,1-.76,5.81,13.72,13.72,0,0,1-2.24,4.56,10.11,10.11,0,0,1-3.6,3,9.62,9.62,0,0,1-4.56,1c-3.44,0-6.19-.89-8.27-3.8V43.42ZM44.56,24.67q6.34,0,6.34-8.61A9.92,9.92,0,0,0,49.15,10a5.42,5.42,0,0,0-4.53-2.35,5.5,5.5,0,0,0-4.45,2.21,8.91,8.91,0,0,0-1.78,5.78Q38.39,24.67,44.56,24.67Z"/><path class="cls-1" d="M83.42,7.86a8,8,0,0,0-2-3.46,8.93,8.93,0,0,0-3.67-2.12,17.65,17.65,0,0,0-5.46-.74,19.61,19.61,0,0,0-5.66.71,9.8,9.8,0,0,0-3.76,2,7.87,7.87,0,0,0-2.09,3.2,11.8,11.8,0,0,0-.71,4h6.85a5.19,5.19,0,0,1,1.39-3.08A5,5,0,0,1,72,7.25,6.64,6.64,0,0,1,75.41,8a2.35,2.35,0,0,1,1.27,2.11,2.37,2.37,0,0,1-1,2.12,9.88,9.88,0,0,1-3.74,1q-2.78.4-5.13.88a12.83,12.83,0,0,0-4.05,1.5,7.18,7.18,0,0,0-2.66,2.8,10.1,10.1,0,0,0-1,4.79,7.27,7.27,0,0,0,2.24,5.52q2.24,2.12,7.05,2.12a13.13,13.13,0,0,0,5-.88,9.27,9.27,0,0,0,3.46-2.44,10.09,10.09,0,0,0,.45,2.4H84V12.53A16.29,16.29,0,0,0,83.42,7.86ZM76,21.9a6.42,6.42,0,0,1-3.51,3.23,7.1,7.1,0,0,1-2.63.48q-3.57,0-3.57-3.12a3.36,3.36,0,0,1,1.19-2.78,10.56,10.56,0,0,1,4.36-1.59l1.38-.29h0s2-.44,3.37-.8l0,2.5A5.3,5.3,0,0,1,76,21.9Z"/><path id="g" class="cls-1" d="M106.17,26.83a3.55,3.55,0,0,1-1,1.35,9.5,9.5,0,0,1-1.87,1.28,10.43,10.43,0,0,1-4.79.91A11.32,11.32,0,0,1,93,29.15,10.67,10.67,0,0,1,89.2,26a13.08,13.08,0,0,1-2.1-4.59A21.85,21.85,0,0,1,86.45,16a17.44,17.44,0,0,1,1-5.92A14.27,14.27,0,0,1,90,5.53a11.67,11.67,0,0,1,3.85-2.95,9.76,9.76,0,0,1,4.47-1c3.47,0,6.08.83,7.82,3.63V1.77h7.16V30.43a13.62,13.62,0,0,1-.87,5.58,11.35,11.35,0,0,1-2.95,4,12.93,12.93,0,0,1-4.42,2.46,17.93,17.93,0,0,1-10.82,0A12.78,12.78,0,0,1,90,40.2a10.7,10.7,0,0,1-2.8-3.65,11.25,11.25,0,0,1-1-4.87H93a4.83,4.83,0,0,0,1.67,3.94A6.74,6.74,0,0,0,99.14,37a7.78,7.78,0,0,0,5-1.61,5.3,5.3,0,0,0,2-4.39ZM99.4,24.59a5.69,5.69,0,0,0,4.5-2.07,8.34,8.34,0,0,0,1.78-5.64q0-8.95-6.29-9t-6.29,8.5a9.19,9.19,0,0,0,1.78,5.95A5.55,5.55,0,0,0,99.4,24.59Z"/><path class="cls-1" d="M167.4,18.34a5.24,5.24,0,0,0-2-2.41,15.15,15.15,0,0,0-4-1.67l-6.12-1.73a14.92,14.92,0,0,1-3.37-1.3,2,2,0,0,1-1.16-1.81,1.88,1.88,0,0,1,1.16-1.84A8.47,8.47,0,0,1,155.33,7a5.83,5.83,0,0,1,3.54.94,3.56,3.56,0,0,1,1.3,2.16h7.16a8.86,8.86,0,0,0-3-6.1c-1.85-1.62-4.78-2.47-8.78-2.47a20.43,20.43,0,0,0-5.55.64,11.14,11.14,0,0,0-3.68,1.72,6.19,6.19,0,0,0-1.93,2.49,7.09,7.09,0,0,0-.65,3,9.8,9.8,0,0,0,.48,3.17A5.63,5.63,0,0,0,146,15.19a13.8,13.8,0,0,0,3.88,2.18,44.24,44.24,0,0,0,6.57,1.9,11.51,11.51,0,0,1,3.37,1.19,2.4,2.4,0,0,1,1.1,2.21,2.13,2.13,0,0,1-1.5,2,9,9,0,0,1-3.6.65,7,7,0,0,1-4.05-1.16,3.47,3.47,0,0,1-1.5-2.41h-7.6a8.25,8.25,0,0,0,.94,3.34,9.06,9.06,0,0,0,2.66,3.1,12.7,12.7,0,0,0,4.16,2,20.2,20.2,0,0,0,5.44.69q6.12,0,9.23-2.46a7.46,7.46,0,0,0,3-6.2A9.58,9.58,0,0,0,167.4,18.34Z"/><path id="e-2" data-name="e" class="cls-1" d="M122.11,18.07a8,8,0,0,0,2,5A6,6,0,0,0,128.7,25a6.31,6.31,0,0,0,3.24-.82,3.73,3.73,0,0,0,1.81-2.29h7.46a11.9,11.9,0,0,1-4.36,6.63,13.12,13.12,0,0,1-7.8,2.32c-8,0-13.77-5.06-13.77-15.18a17.47,17.47,0,0,1,.92-5.83,12.55,12.55,0,0,1,2.67-4.47,11.54,11.54,0,0,1,4.27-2.86,14,14,0,0,1,5.45-1c4.36,0,7.38,1.38,9.61,4.14s3.27,6.91,3.27,12.46Zm12-4.65a7.68,7.68,0,0,0-.55-2.69,5.64,5.64,0,0,0-1.29-1.93,5.15,5.15,0,0,0-1.84-1.13,6.29,6.29,0,0,0-2.12-.37,6,6,0,0,0-4.16,1.61,6.84,6.84,0,0,0-1.86,4.5Z"/><path class="cls-1" d="M184.25,28.5A2.78,2.78,0,0,1,183,29.65a4.14,4.14,0,0,1-1.74.35,4.19,4.19,0,0,1-1.94-.43A3.89,3.89,0,0,1,178,28.41a5.26,5.26,0,0,1-.82-1.68,7.06,7.06,0,0,1-.28-2,6.63,6.63,0,0,1,.28-1.91,5,5,0,0,1,.82-1.62,4,4,0,0,1,3.26-1.56,3.86,3.86,0,0,1,1.66.37,2.9,2.9,0,0,1,1.25,1.09h0V16.18h2.7V29.75h-2.56V28.5Zm-.11-4.85a2.86,2.86,0,0,0-.39-1A2.2,2.2,0,0,0,183,22a2.1,2.1,0,0,0-1.1-.27,2.2,2.2,0,0,0-1.12.27,2.11,2.11,0,0,0-.73.7,3.1,3.1,0,0,0-.4,1,5.38,5.38,0,0,0-.12,1.17,5,5,0,0,0,.13,1.14,3.09,3.09,0,0,0,.43,1,2.35,2.35,0,0,0,.74.72,2,2,0,0,0,1.07.28,2.14,2.14,0,0,0,1.11-.27,2,2,0,0,0,.71-.71,3.19,3.19,0,0,0,.38-1,6,6,0,0,0,.11-1.18A5.84,5.84,0,0,0,184.13,23.64Z"/><path class="cls-1" d="M191.77,27.39a2.76,2.76,0,0,0,3.15.18,1.69,1.69,0,0,0,.72-.86H198a4.51,4.51,0,0,1-1.75,2.53,5.14,5.14,0,0,1-2.85.76,5.63,5.63,0,0,1-2.09-.37,4.34,4.34,0,0,1-1.58-1.05,4.74,4.74,0,0,1-1-1.63,6,6,0,0,1-.35-2.09,5.72,5.72,0,0,1,.36-2.05,4.75,4.75,0,0,1,2.61-2.74,5.09,5.09,0,0,1,2-.4,4.67,4.67,0,0,1,2.18.48,4.36,4.36,0,0,1,1.53,1.3,5.35,5.35,0,0,1,.87,1.86,7,7,0,0,1,.19,2.19h-7.09A2.72,2.72,0,0,0,191.77,27.39Zm3-5.17a1.9,1.9,0,0,0-1.47-.53,2.35,2.35,0,0,0-1.07.22,2,2,0,0,0-.68.54,2,2,0,0,0-.36.68,3.12,3.12,0,0,0-.12.65h4.39A3.12,3.12,0,0,0,194.82,22.23Z"/><path class="cls-1" d="M202.22,29.75l-3.36-9.82h2.83l2.07,6.71h0l2.07-6.71h2.68l-3.33,9.82Z"/><path class="cls-1" d="M212.37,16.18v4.94h0A2.88,2.88,0,0,1,213.75,20a4.53,4.53,0,0,1,1.76-.35,3.74,3.74,0,0,1,2.76,1.24,4.76,4.76,0,0,1,.94,1.61,6.74,6.74,0,0,1,.36,2.33,6.74,6.74,0,0,1-.36,2.33,4.76,4.76,0,0,1-.94,1.61A3.74,3.74,0,0,1,215.5,30a5.19,5.19,0,0,1-1.94-.34,2.46,2.46,0,0,1-1.29-1.16h0v1.25h-2.56V16.18Zm4.37,7.47a3.13,3.13,0,0,0-.42-1,2.19,2.19,0,0,0-.71-.69,2.2,2.2,0,0,0-2.06,0,2.16,2.16,0,0,0-.72.69,3.16,3.16,0,0,0-.42,1,5.23,5.23,0,0,0-.13,1.2,5.16,5.16,0,0,0,.13,1.18,3.14,3.14,0,0,0,.42,1,2.16,2.16,0,0,0,.72.69,2.2,2.2,0,0,0,2.06,0,2.19,2.19,0,0,0,.71-.69,3.12,3.12,0,0,0,.42-1,5.16,5.16,0,0,0,.13-1.18A5.23,5.23,0,0,0,216.74,23.65Z"/><path class="cls-1" d="M224.05,16.18V29.75h-2.7V16.18Z"/><path class="cls-1" d="M226.24,22.71A4.49,4.49,0,0,1,228.86,20a5.61,5.61,0,0,1,2.09-.37A5.68,5.68,0,0,1,233,20a4.47,4.47,0,0,1,2.63,2.68,6,6,0,0,1,.36,2.14,6,6,0,0,1-.36,2.13,4.62,4.62,0,0,1-1,1.63,4.47,4.47,0,0,1-1.61,1A5.81,5.81,0,0,1,231,30a5.73,5.73,0,0,1-2.09-.36,4.47,4.47,0,0,1-1.6-1,4.59,4.59,0,0,1-1-1.62,5.93,5.93,0,0,1-.36-2.13A6,6,0,0,1,226.24,22.71ZM228.69,26a3,3,0,0,0,.39,1,2.06,2.06,0,0,0,.73.71A2.23,2.23,0,0,0,231,28a2.28,2.28,0,0,0,1.15-.27,2,2,0,0,0,.74-.71,3.07,3.07,0,0,0,.39-1,5.73,5.73,0,0,0,.11-1.15,5.87,5.87,0,0,0-.11-1.16,3,3,0,0,0-.39-1,2.16,2.16,0,0,0-.74-.71A2.22,2.22,0,0,0,231,21.7a2.08,2.08,0,0,0-1.87,1,3,3,0,0,0-.39,1,5.87,5.87,0,0,0-.11,1.16A5.73,5.73,0,0,0,228.69,26Z"/><path class="cls-1" d="M247.07,30.47a3.33,3.33,0,0,1-.69,1.42A4.14,4.14,0,0,1,244.84,33a6.64,6.64,0,0,1-2.7.46,6.29,6.29,0,0,1-1.47-.18,4.69,4.69,0,0,1-1.37-.56,3.36,3.36,0,0,1-1-1,2.83,2.83,0,0,1-.47-1.43h2.68a1.54,1.54,0,0,0,.74,1.05,2.66,2.66,0,0,0,1.27.29,2,2,0,0,0,1.66-.68,2.69,2.69,0,0,0,.5-1.73V27.95h0a2.67,2.67,0,0,1-1.25,1.15,4,4,0,0,1-1.7.37,4.29,4.29,0,0,1-1.9-.39A3.6,3.6,0,0,1,238.47,28a4.44,4.44,0,0,1-.75-1.58,7.44,7.44,0,0,1-.24-1.91,6.13,6.13,0,0,1,.28-1.83,4.79,4.79,0,0,1,.81-1.56,3.9,3.9,0,0,1,1.32-1.07,4,4,0,0,1,1.81-.4,3.79,3.79,0,0,1,1.7.36,2.94,2.94,0,0,1,1.23,1.22h0V19.93h2.56v9.2A6.59,6.59,0,0,1,247.07,30.47Zm-3.7-3.27a2.11,2.11,0,0,0,.72-.61,2.69,2.69,0,0,0,.43-.86,3.6,3.6,0,0,0,.14-1,5.56,5.56,0,0,0-.11-1.15,2.88,2.88,0,0,0-.38-1,2,2,0,0,0-.7-.67,2.22,2.22,0,0,0-1.1-.25,2,2,0,0,0-1,.23,2.06,2.06,0,0,0-.68.62,2.6,2.6,0,0,0-.4.89,4.38,4.38,0,0,0-.12,1.05,5.38,5.38,0,0,0,.1,1.05,2.85,2.85,0,0,0,.36.94,2.12,2.12,0,0,0,.67.68,1.91,1.91,0,0,0,1,.27A2.14,2.14,0,0,0,243.38,27.21Z"/></svg>