<svg id="Ebene_2" data-name="Ebene 2" xmlns="http://www.w3.org/2000/svg" viewBox="0 0 361.4 61.88"><defs><style>.cls-1{fill:#d41317;}.cls-2{fill:#2e2a2a;}.cls-3{fill:#d4021d;}</style></defs><title>Zeichenfläche 1</title><path id="e" class="cls-1" d="M15.27,24.68a11.41,11.41,0,0,0,2.87,7.21,8.61,8.61,0,0,0,6.56,2.67,9,9,0,0,0,4.64-1.17,5.33,5.33,0,0,0,2.59-3.28H42.6c-1.26,4.11-3.12,7.27-6.24,9.48A18.77,18.77,0,0,1,25.2,42.91C13.7,42.91,5.5,35.68,5.5,21.2a25,25,0,0,1,1.31-8.35,18,18,0,0,1,3.82-6.4,16.5,16.5,0,0,1,6.11-4.09A20,20,0,0,1,24.54.94c6.24,0,10.55,2,13.75,5.92S43,16.74,43,24.68ZM32.5,18a11,11,0,0,0-.78-3.85,8.06,8.06,0,0,0-1.85-2.75,7.37,7.37,0,0,0-2.63-1.62,9,9,0,0,0-3-.53,8.56,8.56,0,0,0-5.94,2.31A9.79,9.79,0,0,0,15.6,18Z"/><path id="p" class="cls-2" d="M46.39,60.94V1.37H56.52l.08,4.88c2.35-3.77,6.13-5.1,11.1-5.1A14.71,14.71,0,0,1,74.22,2.6a15.15,15.15,0,0,1,5.47,4.21,20.46,20.46,0,0,1,3.57,6.73,28.94,28.94,0,0,1,1.3,9,29.71,29.71,0,0,1-1.09,8.31,19.62,19.62,0,0,1-3.2,6.52,14.46,14.46,0,0,1-5.15,4.25,13.75,13.75,0,0,1-6.52,1.5c-4.92,0-8.86-1.27-11.83-5.43V60.94ZM66,34.12q9.07,0,9.08-12.32a14.18,14.18,0,0,0-2.51-8.71,7.75,7.75,0,0,0-6.48-3.36,7.86,7.86,0,0,0-6.36,3.16,12.75,12.75,0,0,0-2.55,8.26Q57.17,34.12,66,34.12Z"/><path class="cls-2" d="M121.58,10.08a11.51,11.51,0,0,0-2.83-4.94,12.77,12.77,0,0,0-5.24-3A25.25,25.25,0,0,0,105.69,1a28,28,0,0,0-8.1,1,14,14,0,0,0-5.39,2.88,11.25,11.25,0,0,0-3,4.57,16.87,16.87,0,0,0-1,5.79H98a7.43,7.43,0,0,1,2-4.41c1.05-1.08,2.8-1.68,5.23-1.68a9.5,9.5,0,0,1,4.9,1.06,3.36,3.36,0,0,1,1.82,3,3.39,3.39,0,0,1-1.38,3,14.13,14.13,0,0,1-5.35,1.5q-4,.57-7.33,1.25a18.35,18.35,0,0,0-5.79,2.15,10.27,10.27,0,0,0-3.81,4,14.45,14.45,0,0,0-1.38,6.85A10.4,10.4,0,0,0,90.1,40q3.2,3,10.09,3a18.79,18.79,0,0,0,7.13-1.26,13.27,13.27,0,0,0,4.94-3.49,14.43,14.43,0,0,0,.65,3.43h9.46V16.76A23.31,23.31,0,0,0,121.58,10.08ZM110.93,30.17a9.19,9.19,0,0,1-5,4.62,10.15,10.15,0,0,1-3.77.69Q97,35.48,97,31a4.81,4.81,0,0,1,1.7-4q1.7-1.38,6.24-2.27l2-.41h0s2.91-.62,4.82-1.14l-.07,3.58A7.58,7.58,0,0,1,110.93,30.17Z"/><path id="g" class="cls-2" d="M154.12,37.22a5.08,5.08,0,0,1-1.42,1.94A13.59,13.59,0,0,1,150,41a14.92,14.92,0,0,1-6.85,1.3,16.19,16.19,0,0,1-7.9-1.74A15.27,15.27,0,0,1,129.85,36a18.71,18.71,0,0,1-3-6.56,31.26,31.26,0,0,1-.93-7.62,25,25,0,0,1,1.38-8.47A20.42,20.42,0,0,1,131,6.76a16.7,16.7,0,0,1,5.51-4.21,14,14,0,0,1,6.4-1.5c5,0,8.7,1.19,11.18,5.19V1.37h10.25v41a19.48,19.48,0,0,1-1.25,8,16.24,16.24,0,0,1-4.21,5.75,18.49,18.49,0,0,1-6.32,3.52,25.65,25.65,0,0,1-15.48,0A18.28,18.28,0,0,1,131,56.34a15.31,15.31,0,0,1-4-5.23,16.09,16.09,0,0,1-1.46-7h9.8a6.91,6.91,0,0,0,2.39,5.63,9.64,9.64,0,0,0,6.36,2,11.13,11.13,0,0,0,7.13-2.31,7.58,7.58,0,0,0,2.92-6.28ZM144.43,34a8.14,8.14,0,0,0,6.44-3q2.55-3,2.55-8.06,0-12.8-9-12.8t-9,12.15q0,5.35,2.55,8.51A7.94,7.94,0,0,0,144.43,34Z"/><path class="cls-2" d="M241.7,25.07a7.5,7.5,0,0,0-2.88-3.44,21.67,21.67,0,0,0-5.71-2.39l-8.75-2.47a21.34,21.34,0,0,1-4.82-1.86,2.92,2.92,0,0,1-1.66-2.59,2.69,2.69,0,0,1,1.66-2.63,12.12,12.12,0,0,1,4.9-.77,8.34,8.34,0,0,1,5.06,1.35,5.1,5.1,0,0,1,1.86,3.09h10.24a12.67,12.67,0,0,0-4.28-8.72c-2.65-2.32-6.83-3.53-12.56-3.53a29.22,29.22,0,0,0-7.94.91,15.93,15.93,0,0,0-5.27,2.46A8.85,8.85,0,0,0,208.81,8a10.14,10.14,0,0,0-.93,4.29,14,14,0,0,0,.69,4.54A8.06,8.06,0,0,0,211,20.57a19.75,19.75,0,0,0,5.55,3.12,63.29,63.29,0,0,0,9.4,2.71,16.47,16.47,0,0,1,4.82,1.7,3.43,3.43,0,0,1,1.58,3.16,3.05,3.05,0,0,1-2.15,2.88,12.87,12.87,0,0,1-5.15.93,10,10,0,0,1-5.79-1.66A5,5,0,0,1,217.16,30H206.28a11.81,11.81,0,0,0,1.35,4.78,13,13,0,0,0,3.81,4.44,18.17,18.17,0,0,0,6,2.83,28.89,28.89,0,0,0,7.78,1q8.75,0,13.21-3.52a10.67,10.67,0,0,0,4.25-8.87A13.7,13.7,0,0,0,241.7,25.07Z"/><path id="e-2" data-name="e" class="cls-2" d="M176.92,24.68a11.41,11.41,0,0,0,2.87,7.21,8.61,8.61,0,0,0,6.56,2.67A9,9,0,0,0,191,33.39a5.33,5.33,0,0,0,2.59-3.28h10.67c-1.26,4.11-3.12,7.27-6.24,9.48a18.77,18.77,0,0,1-11.16,3.32c-11.49,0-19.69-7.24-19.69-21.72a25,25,0,0,1,1.31-8.35,18,18,0,0,1,3.82-6.4,16.5,16.5,0,0,1,6.11-4.09,20,20,0,0,1,7.8-1.42c6.24,0,10.55,2,13.75,5.92s4.68,9.89,4.68,17.83ZM194.15,18a11,11,0,0,0-.78-3.85,8.06,8.06,0,0,0-1.85-2.75,7.37,7.37,0,0,0-2.63-1.62,9,9,0,0,0-3-.53,8.56,8.56,0,0,0-5.94,2.31A9.79,9.79,0,0,0,177.25,18Z"/><path class="cls-3" d="M265.81,39.6A4,4,0,0,1,264,41.25a5.92,5.92,0,0,1-2.49.5,6,6,0,0,1-2.77-.61,5.56,5.56,0,0,1-2-1.66,7.53,7.53,0,0,1-1.17-2.41,10.1,10.1,0,0,1-.39-2.83,9.49,9.49,0,0,1,.39-2.73,7.12,7.12,0,0,1,1.17-2.32A5.68,5.68,0,0,1,261.46,27a5.52,5.52,0,0,1,2.38.53,4.15,4.15,0,0,1,1.78,1.56h.05V22h3.86V41.4h-3.67V39.6Zm-.16-6.94a4.09,4.09,0,0,0-.56-1.41,3.14,3.14,0,0,0-1-1,3,3,0,0,0-1.58-.38,3.15,3.15,0,0,0-1.6.38,3,3,0,0,0-1,1,4.44,4.44,0,0,0-.57,1.43,7.7,7.7,0,0,0-.18,1.67,7.14,7.14,0,0,0,.19,1.63,4.42,4.42,0,0,0,.61,1.45,3.37,3.37,0,0,0,1.06,1,2.86,2.86,0,0,0,1.54.4,3.06,3.06,0,0,0,1.59-.38,2.89,2.89,0,0,0,1-1,4.56,4.56,0,0,0,.54-1.45,8.55,8.55,0,0,0,.16-1.69A8.35,8.35,0,0,0,265.64,32.66Z"/><path class="cls-3" d="M276.57,38a4,4,0,0,0,4.51.26,2.42,2.42,0,0,0,1-1.24h3.4a6.45,6.45,0,0,1-2.5,3.62,7.36,7.36,0,0,1-4.08,1.09,8.06,8.06,0,0,1-3-.53,6.21,6.21,0,0,1-2.25-1.51,6.78,6.78,0,0,1-1.43-2.34,8.56,8.56,0,0,1-.5-3,8.18,8.18,0,0,1,.52-2.93A6.8,6.8,0,0,1,276,27.54a7.29,7.29,0,0,1,2.92-.57,6.68,6.68,0,0,1,3.12.69,6.24,6.24,0,0,1,2.19,1.86,7.65,7.65,0,0,1,1.24,2.66,10,10,0,0,1,.27,3.13H275.62A3.9,3.9,0,0,0,276.57,38Zm4.36-7.39a2.71,2.71,0,0,0-2.11-.76,3.36,3.36,0,0,0-1.54.31,2.93,2.93,0,0,0-1,.78,2.87,2.87,0,0,0-.52,1,4.47,4.47,0,0,0-.18.92h6.28A4.47,4.47,0,0,0,280.93,30.63Z"/><path class="cls-3" d="M291.52,41.4l-4.81-14.05h4l3,9.59h.05l3-9.59h3.83L295.81,41.4Z"/><path class="cls-3" d="M306,22v7.07h.05A4.12,4.12,0,0,1,308,27.47a6.48,6.48,0,0,1,2.51-.5,5.35,5.35,0,0,1,4,1.77,6.81,6.81,0,0,1,1.35,2.3,9.64,9.64,0,0,1,.52,3.33,9.64,9.64,0,0,1-.52,3.33,6.81,6.81,0,0,1-1.35,2.3,5.35,5.35,0,0,1-4,1.77,7.43,7.43,0,0,1-2.77-.49,3.52,3.52,0,0,1-1.85-1.66h-.05V41.4h-3.67V22Zm6.25,10.68a4.48,4.48,0,0,0-.6-1.44,3.14,3.14,0,0,0-1-1,3.15,3.15,0,0,0-2.95,0,3.09,3.09,0,0,0-1,1,4.51,4.51,0,0,0-.6,1.44,7.49,7.49,0,0,0-.19,1.71,7.37,7.37,0,0,0,.19,1.69,4.49,4.49,0,0,0,.6,1.44,3.09,3.09,0,0,0,1,1,3.14,3.14,0,0,0,2.95,0,3.14,3.14,0,0,0,1-1,4.46,4.46,0,0,0,.6-1.44,7.37,7.37,0,0,0,.19-1.69A7.49,7.49,0,0,0,312.28,32.67Z"/><path class="cls-3" d="M322.74,22V41.4h-3.86V22Z"/><path class="cls-3" d="M325.87,31.33a6.43,6.43,0,0,1,3.75-3.83,8,8,0,0,1,3-.53,8.13,8.13,0,0,1,3,.53,6.4,6.4,0,0,1,3.76,3.83,8.63,8.63,0,0,1,.52,3.06,8.52,8.52,0,0,1-.52,3,6.61,6.61,0,0,1-1.47,2.32,6.4,6.4,0,0,1-2.3,1.48,8.31,8.31,0,0,1-3,.52,8.19,8.19,0,0,1-3-.52,6.4,6.4,0,0,1-2.28-1.48,6.57,6.57,0,0,1-1.47-2.32,8.49,8.49,0,0,1-.52-3A8.6,8.6,0,0,1,325.87,31.33Zm3.51,4.7a4.36,4.36,0,0,0,.56,1.44,3,3,0,0,0,1,1,3.19,3.19,0,0,0,1.63.38,3.26,3.26,0,0,0,1.64-.38,2.92,2.92,0,0,0,1.06-1,4.39,4.39,0,0,0,.56-1.44,8.19,8.19,0,0,0,.16-1.64,8.4,8.4,0,0,0-.16-1.66,4.24,4.24,0,0,0-.56-1.44,3.09,3.09,0,0,0-1.06-1,3.18,3.18,0,0,0-1.64-.39,3,3,0,0,0-2.68,1.41,4.21,4.21,0,0,0-.56,1.44,8.4,8.4,0,0,0-.16,1.66A8.19,8.19,0,0,0,329.38,36Z"/><path class="cls-3" d="M355.67,42.43a4.76,4.76,0,0,1-1,2,5.93,5.93,0,0,1-2.2,1.59,9.5,9.5,0,0,1-3.86.65,9,9,0,0,1-2.11-.26,6.71,6.71,0,0,1-2-.8,4.8,4.8,0,0,1-1.47-1.4,4.05,4.05,0,0,1-.67-2.05h3.83a2.2,2.2,0,0,0,1.06,1.51,3.81,3.81,0,0,0,1.82.42,2.8,2.8,0,0,0,2.38-1,3.84,3.84,0,0,0,.72-2.47V38.82h-.05a3.82,3.82,0,0,1-1.78,1.64A5.76,5.76,0,0,1,348,41a6.13,6.13,0,0,1-2.72-.56,5.15,5.15,0,0,1-1.88-1.52,6.35,6.35,0,0,1-1.07-2.26,10.64,10.64,0,0,1-.34-2.73,8.76,8.76,0,0,1,.39-2.62,6.85,6.85,0,0,1,1.16-2.23,5.58,5.58,0,0,1,1.89-1.54A5.67,5.67,0,0,1,348,27a5.42,5.42,0,0,1,2.43.52,4.2,4.2,0,0,1,1.75,1.74h.05V27.35h3.67V40.5A9.43,9.43,0,0,1,355.67,42.43Zm-5.29-4.67a3,3,0,0,0,1-.87,3.85,3.85,0,0,0,.61-1.24,5.14,5.14,0,0,0,.2-1.45,8,8,0,0,0-.16-1.64,4.12,4.12,0,0,0-.54-1.37,2.81,2.81,0,0,0-1-1,3.17,3.17,0,0,0-1.58-.35,2.82,2.82,0,0,0-1.4.33,3,3,0,0,0-1,.88,3.72,3.72,0,0,0-.57,1.28,6.27,6.27,0,0,0-.18,1.51,7.69,7.69,0,0,0,.15,1.51,4.08,4.08,0,0,0,.52,1.35,3,3,0,0,0,1,1,2.73,2.73,0,0,0,1.5.38A3.07,3.07,0,0,0,350.38,37.76Z"/></svg>