<?xml version="1.0" encoding="utf-8"?>
<!-- Generator: Adobe Illustrator 21.1.0, SVG Export Plug-In . SVG Version: 6.00 Build 0)  -->
<svg version="1.1" id="Ebene_1" xmlns="http://www.w3.org/2000/svg" xmlns:xlink="http://www.w3.org/1999/xlink" x="0px" y="0px"
	 viewBox="0 0 485 122.7" style="enable-background:new 0 0 485 122.7;" xml:space="preserve">
<style type="text/css">
	.st0{fill:#FFFFFF;}
</style>
<title>2Zeichenfläche 2</title>
<path id="e" class="st0" d="M20,48.6c0.2,5.5,2.2,10.7,5.9,14.8c3.3,3.6,8,5.5,13.4,5.5c3.3,0.1,6.6-0.8,9.5-2.4
	c2.6-1.4,4.5-3.9,5.2-6.7h21.8c-2.6,8.4-6.4,14.9-12.8,19.4s-14,6.8-22.8,6.8C16.8,85.8,0,71,0,41.4c-0.1-5.8,0.9-11.6,2.7-17.1
	C4.4,19.5,7,15,10.5,11.3C14,7.6,18.3,4.7,23,2.9c5.1-2,10.5-3,15.9-2.9c12.8,0,21.6,4,28.1,12.1c6.6,8.1,9.6,20.2,9.6,36.4L20,48.6
	z M55.3,35c-0.1-2.7-0.6-5.4-1.6-7.9c-0.9-2.1-2.1-4-3.8-5.6c-1.5-1.5-3.4-2.6-5.4-3.3c-2-0.7-4.1-1.1-6.2-1.1
	c-4.5-0.1-8.9,1.6-12.2,4.7c-3.2,3.1-5,7.5-5.4,13.2H55.3z"/>
<path id="p" class="st0" d="M83.7,122.7V0.9h20.7l0.2,10c4.8-7.7,12.5-10.4,22.7-10.4c4.6,0,9.2,1,13.3,3c4.3,2,8.2,4.9,11.2,8.6
	c3.3,4.1,5.7,8.7,7.3,13.7c1.8,6,2.7,12.2,2.6,18.4c0.1,5.7-0.7,11.5-2.2,17c-1.3,4.8-3.5,9.3-6.5,13.3c-2.8,3.7-6.4,6.7-10.5,8.7
	c-4.1,2.1-8.7,3.1-13.3,3.1c-10.1,0-18.1-2.6-24.2-11.1v47.5L83.7,122.7z M123.8,67.9c12.4,0,18.6-8.4,18.6-25.2
	c0-7.3-1.7-13.2-5.1-17.8c-3-4.4-8-6.9-13.3-6.9c-5.1,0-9.9,2.4-13,6.5c-3.5,4.3-5.2,9.9-5.2,16.9C105.7,59,111.7,67.9,123.8,67.9
	L123.8,67.9z"/>
<path class="st0" d="M237.4,18.7c-1-3.8-3-7.3-5.8-10.1c-3-2.9-6.7-5-10.7-6.2c-5.2-1.6-10.6-2.3-16-2.1c-5.6-0.1-11.2,0.6-16.6,2.1
	c-4.1,1.1-7.8,3.1-11,5.9c-2.8,2.6-4.9,5.8-6.1,9.4c-1.4,3.8-2.1,7.8-2.1,11.8h20c0.3-3.4,1.7-6.5,4.1-9c2.1-2.2,5.7-3.4,10.7-3.4
	c4.2,0,7.5,0.7,10,2.2c2.3,1.2,3.8,3.6,3.7,6.2c0,2.9-0.9,4.9-2.8,6.2s-5.5,2.3-10.9,3.1s-10.4,1.6-15,2.6
	c-4.2,0.8-8.2,2.3-11.9,4.4c-3.3,2-6,4.8-7.8,8.2c-1.9,3.5-2.8,8.1-2.8,14c0,6.6,2.2,12,6.5,16.1c4.4,4.1,11.2,6.2,20.6,6.2
	c5,0.1,9.9-0.8,14.6-2.6c3.9-1.6,7.4-4,10.2-7.1c0.2,2.4,0.6,4.7,1.3,7H239v-51C239.2,27.8,238.6,23.2,237.4,18.7z M215.6,59.8
	c-2.1,4.3-5.8,7.7-10.3,9.4c-2.5,1-5.1,1.4-7.7,1.4c-7,0-10.4-3-10.4-9.1c0-3.5,1.2-6.2,3.5-8.1c2.3-1.9,6.6-3.4,12.8-4.6
	c1.5-0.3,2.8-0.6,4-0.8l0,0c0,0,6-1.3,9.9-2.3l-0.1,7.3C217.2,55.3,216.7,57.7,215.6,59.8z"/>
<path id="g" class="st0" d="M303.9,74.2c-0.6,1.5-1.6,2.9-2.9,4c-1.7,1.5-3.5,2.7-5.5,3.7c-4,2-8.7,2.6-14,2.6
	c-6.7,0-11.6-1.2-16.1-3.6c-4.4-2.2-8.2-5.4-11.1-9.4c-2.9-4-5-8.6-6.1-13.4c-1.3-5.1-1.9-10.3-1.9-15.6c-0.1-5.9,0.9-11.8,2.8-17.3
	c1.7-4.9,4.3-9.5,7.6-13.4c3.1-3.6,7-6.6,11.3-8.7c4-2,8.5-3.1,13-3.1c10.2,0,17.8,2.4,22.9,10.6V0.9h21v83.8
	c0,6.2-0.5,11.6-2.6,16.3c-2,4.5-4.9,8.5-8.6,11.8c-3.8,3.2-8.2,5.7-12.9,7.2c-10.3,3.3-21.3,3.3-31.6,0.1
	c-4.6-1.4-8.8-3.7-12.5-6.8c-3.5-2.9-6.3-6.6-8.2-10.7c-2.1-4.5-3.1-9.3-3-14.2h20c0,5,1.6,8.8,4.9,11.5s7.6,4.1,13,4.1
	c5.3,0.2,10.4-1.5,14.6-4.7c4-3.1,6.2-7.8,6-12.8L303.9,74.2z M284.1,67.7c5.1,0.1,9.9-2.1,13.2-6c3.5-4,5.2-9.5,5.2-16.5
	c0-17.5-6.1-26.2-18.4-26.2s-18.4,8.3-18.4,24.9c0,7.3,1.7,13.1,5.2,17.4C274.1,65.4,279,67.7,284.1,67.7L284.1,67.7z"/>
<g id="s">
	<path class="st0" d="M483,49.4c-1.2-2.9-3.3-5.3-5.9-7c-3.6-2.2-7.6-3.8-11.7-4.9l-17.9-5.1c-3.4-0.9-6.7-2.1-9.9-3.8
		c-2.3-1.3-3.4-3.1-3.4-5.3c-0.1-2.3,1.2-4.5,3.4-5.4c2.3-1,5.6-1.6,10-1.6c4.6,0,8.1,1,10.4,2.8c2,1.6,3.3,3.8,3.8,6.3h20.9
		c-0.9-8-3.8-13.5-8.8-17.8c-5.4-4.8-14-7.2-25.7-7.2c-5.5-0.1-10.9,0.5-16.2,1.9c-3.9,1-7.5,2.7-10.8,5c-2.5,1.9-4.4,4.4-5.6,7.3
		c-1.3,2.8-1.9,5.7-1.9,8.8c0,3.1,0.4,6.3,1.4,9.3c0.9,3,2.7,5.6,5,7.6c3.4,2.7,7.2,4.9,11.4,6.4c6.3,2.3,12.7,4.2,19.2,5.6
		c3.4,0.6,6.8,1.8,9.9,3.5c2.2,1.3,3.2,3.5,3.2,6.5c0,2.7-1.5,4.6-4.4,5.9c-3.3,1.3-6.9,2-10.5,1.9c-4.2,0.1-8.3-1.1-11.9-3.4
		c-2.4-1.6-4-4.2-4.4-7h-22.2c0.2,3.4,1.2,6.8,2.8,9.8c1.9,3.6,4.5,6.7,7.8,9.1c3.7,2.7,7.8,4.6,12.2,5.8c5.2,1.4,10.5,2.1,15.9,2
		c11.9,0,20.9-2.4,27-7.2c5.7-4.3,8.9-11,8.7-18.1C485,56,484.3,52.2,483,49.4z"/>
</g>
<path id="e-2" class="st0" d="M350.6,48.6c0.2,5.5,2.2,10.7,5.9,14.8c3.3,3.6,8,5.5,13.4,5.5c3.3,0.1,6.6-0.8,9.5-2.4
	c2.6-1.4,4.5-3.8,5.3-6.7h21.8c-2.6,8.4-6.4,14.9-12.8,19.4s-14,6.8-22.8,6.8c-23.5,0-40.3-14.8-40.3-44.4
	c-0.1-5.8,0.8-11.6,2.7-17.1c1.7-4.9,4.3-9.3,7.8-13.1c3.5-3.7,7.8-6.6,12.5-8.4c5.1-2,10.5-3,15.9-2.9c12.8,0,21.6,4,28.1,12.1
	s9.6,20.2,9.6,36.4L350.6,48.6z M385.8,35c-0.1-2.7-0.6-5.4-1.6-7.9c-0.9-2.1-2.1-4-3.8-5.6c-1.5-1.5-3.4-2.6-5.4-3.3
	c-2-0.7-4.1-1.1-6.2-1.1c-4.5-0.1-8.9,1.6-12.2,4.7c-3.2,3.1-5,7.5-5.5,13.2H385.8z"/>
</svg>
